<svg xmlns="http://www.w3.org/2000/svg" width="26.527" height="31.93" viewBox="0 0 26.527 31.93">
  <g id="add-cash" transform="translate(-2.784 -1.046)">
    <g id="Group_2058" data-name="Group 2058" transform="translate(2.784 11.394)">
      <path id="Path_2451" data-name="Path 2451" d="M4.3,13.4a4.783,4.783,0,0,0,1.514.244H27.792V26.2H5.817A1.477,1.477,0,0,1,4.3,24.763V13.4M2.784,9.334V24.763a2.955,2.955,0,0,0,3.033,2.87H28.255a1.029,1.029,0,0,0,1.056-1V13.2a1.028,1.028,0,0,0-1.056-1H5.817A2.954,2.954,0,0,1,2.784,9.334Z" transform="translate(-2.784 -6.051)" fill="#28e808"/>
      <path id="Rectangle_853" data-name="Rectangle 853" d="M3,0H21.261a.8.8,0,0,1,.8.8V6.567a0,0,0,0,1,0,0H3a3,3,0,0,1-3-3V3A3,3,0,0,1,3,0Z" transform="translate(0)" fill="#dcffd5"/>
    </g>
    <g id="Group_2061" data-name="Group 2061" transform="translate(10.711 1.046)">
      <g id="Group_2059" data-name="Group 2059" transform="translate(4.514)">
        <line id="Line_21" data-name="Line 21" y2="7.542" transform="translate(0.823 0.001)" fill="#fff"/>
        <rect id="Rectangle_854" data-name="Rectangle 854" width="1.645" height="7.542" fill="#28e808"/>
      </g>
      <g id="Group_2060" data-name="Group 2060" transform="translate(0 2.55)">
        <path id="Path_2452" data-name="Path 2452" d="M13.6,8.75a.821.821,0,0,1-.582-.242L8.271,3.76,9.434,2.6,13.6,6.765,17.784,2.6l1.159,1.166L14.179,8.51A.813.813,0,0,1,13.6,8.75Z" transform="translate(-8.271 -2.596)" fill="#28e808"/>
      </g>
    </g>
  </g>
</svg>
