<svg id="analytics" xmlns="http://www.w3.org/2000/svg" width="26" height="26" viewBox="0 0 26 26">
  <g id="analytics-2" data-name="analytics" transform="translate(7442 6305)">
    <g id="Group_1746" data-name="Group 1746">
      <path id="Subtraction_4" data-name="Subtraction 4" d="M5,20H1a1,1,0,0,1-1-1V1A1,1,0,0,1,1,0H5A1,1,0,0,1,6,1V19A1,1,0,0,1,5,20ZM2,2V18H4V2Z" transform="translate(-7432 -6302)" fill="#818181" stroke="rgba(0,0,0,0)" stroke-width="1"/>
      <path id="Subtraction_3" data-name="Subtraction 3" d="M5,15H1a1,1,0,0,1-1-1V1A1,1,0,0,1,1,0H5A1,1,0,0,1,6,1V14A1,1,0,0,1,5,15ZM2,2V13H4V2Z" transform="translate(-7424 -6297)" fill="#818181" stroke="rgba(0,0,0,0)" stroke-width="1"/>
      <path id="Subtraction_5" data-name="Subtraction 5" d="M5,10H1A1,1,0,0,1,0,9V1A1,1,0,0,1,1,0H5A1,1,0,0,1,6,1V9A1,1,0,0,1,5,10ZM2,2V8H4V2Z" transform="translate(-7440 -6292)" fill="#818181" stroke="rgba(0,0,0,0)" stroke-width="1"/>
    </g>
  </g>
  <rect id="Rectangle_755" data-name="Rectangle 755" width="26" height="26" fill="none"/>
</svg>
