<svg xmlns="http://www.w3.org/2000/svg" xmlns:xlink="http://www.w3.org/1999/xlink" width="375" height="304" viewBox="0 0 375 304">
  <defs>
    <clipPath id="clip-path">
      <rect id="Rectangle_1222" data-name="Rectangle 1222" width="375" height="304" transform="translate(0 79)" fill="#fff" stroke="#707070" stroke-width="1"/>
    </clipPath>
  </defs>
  <g id="assets" transform="translate(0 -79)" clip-path="url(#clip-path)">
    <g id="Group_2752" data-name="Group 2752" transform="translate(-49.189 90.588)">
      <g id="Group_2753" data-name="Group 2753" transform="translate(0.409 0.412)">
        <g id="Group_2759" data-name="Group 2759" transform="translate(0 50.776)">
          <g id="Group_2757" data-name="Group 2757" transform="translate(122.311)">
            <path id="Path_6226" data-name="Path 6226" d="M249.818,111a53.134,53.134,0,1,1-53.133-53.134A53.133,53.133,0,0,1,249.818,111" transform="translate(-143.55 -57.861)" fill="#fc0"/>
            <path id="Path_6227" data-name="Path 6227" d="M237.337,76.795a53.131,53.131,0,0,0-90.793,51.787q44.944-26.68,90.793-51.787" transform="translate(-143.55 -57.861)" fill="#fcdc59"/>
            <path id="Path_6228" data-name="Path 6228" d="M210.515,175.534a52.964,52.964,0,0,0,31.373-15.146c-8.3,3.988-16.573,8.022-24.858,12.03-2.167,1.048-4.345,2.075-6.515,3.116" transform="translate(-151.237 -69.63)" fill="#fcdc59"/>
            <path id="Path_6229" data-name="Path 6229" d="M237.778,111.7A40.393,40.393,0,1,1,197.386,71.3,40.391,40.391,0,0,1,237.778,111.7" transform="translate(-145.093 -59.404)" fill="#da8100"/>
            <path id="Path_6230" data-name="Path 6230" d="M239.208,113.668a39.85,39.85,0,1,1-39.849-39.85,39.849,39.849,0,0,1,39.849,39.85" transform="translate(-145.382 -59.693)" fill="#f0aa00"/>
            <path id="Path_6231" data-name="Path 6231" d="M219.622,92.652H206.635a13.411,13.411,0,0,1,4.407,8.865h8.579v4.345h-8.5c-.787,8.865-7.162,14.515-17.238,14.863,6.14,7.04,12.83,15.905,19.442,24.858h-7.556c-6.14-8.17-11.886-15.731-19.284-24.423v-5.389h4.33c8.5,0,13.066-3.911,13.616-9.908H186.485v-4.345H204.2c-1.1-5.041-5.274-7.561-12.122-7.561h-5.588V88.306h33.137Z" transform="translate(-148.479 -61.356)" fill="#ea9c00"/>
            <path id="Path_6232" data-name="Path 6232" d="M218.372,91.4H205.385a13.411,13.411,0,0,1,4.407,8.865h8.579v4.346h-8.5c-.787,8.865-7.162,14.515-17.237,14.863,6.139,7.04,12.829,15.905,19.441,24.858h-7.556c-6.139-8.17-11.885-15.731-19.283-24.423v-5.388h4.329c8.5,0,13.066-3.912,13.616-9.909H185.236v-4.346h17.71c-1.1-5.041-5.274-7.561-12.121-7.561h-5.588V87.057h33.136Z" transform="translate(-148.335 -61.212)" fill="#fc0"/>
          </g>
          <g id="Group_2756" data-name="Group 2756" transform="translate(245.743 0.177)">
            <path id="Path_6233" data-name="Path 6233" d="M383.638,116.1l.326.6.6.327-.6.326-.326.6-.326-.6-.6-.326.6-.327Z" transform="translate(-298.618 -64.723)" fill="#fbfce6"/>
            <path id="Path_6234" data-name="Path 6234" d="M393.439,110.925a52.863,52.863,0,1,1-52.862-52.863,52.863,52.863,0,0,1,52.862,52.863" transform="translate(-287.713 -58.061)" fill="#ff953c"/>
            <path id="Path_6235" data-name="Path 6235" d="M381.021,76.9a52.86,52.86,0,0,0-90.33,51.523q44.714-26.544,90.33-51.523" transform="translate(-287.713 -58.061)" fill="#ffab6c"/>
            <path id="Path_6236" data-name="Path 6236" d="M354.336,175.134a52.694,52.694,0,0,0,31.213-15.068c-8.255,3.968-16.488,7.98-24.731,11.967-2.155,1.044-4.322,2.065-6.482,3.1" transform="translate(-295.361 -69.77)" fill="#ffab6c"/>
            <path id="Path_6237" data-name="Path 6237" d="M381.461,111.623a40.187,40.187,0,1,1-40.186-40.187,40.185,40.185,0,0,1,40.186,40.187" transform="translate(-289.248 -59.596)" fill="#d66b22"/>
            <path id="Path_6238" data-name="Path 6238" d="M382.882,113.585a39.647,39.647,0,1,1-39.647-39.648,39.646,39.646,0,0,1,39.647,39.648" transform="translate(-289.535 -59.883)" fill="#e87f31"/>
            <path id="Path_6239" data-name="Path 6239" d="M351.464,111.6v-.1q8.487-1.389,8.489-8.438,0-4.58-3.576-6.508a18.933,18.933,0,0,0-7.5-1.818V89.979h-3.444v4.646h-3.342V89.979h-3.443v4.646h-8.378l.022,4.064,4.487,0a1.265,1.265,0,0,1,1.265,1.266v24.388a1.266,1.266,0,0,1-1.266,1.266h-4.508l-.354,5.028h8.732v4.713h3.443v-4.713h3.342v4.713h3.444v-4.834a22.081,22.081,0,0,0,8.661-2.116q4.218-2.239,4.219-7.846,0-7.665-10.29-8.952M342.14,98.689c4.278,0,11.444,0,11.444,5.165s-7.166,5.165-11.444,5.165Zm0,26.585V114.539c5.017,0,13.419,0,13.419,5.367s-8.4,5.368-13.419,5.368" transform="translate(-292.557 -61.725)" fill="#d66b22"/>
            <path id="Path_6240" data-name="Path 6240" d="M350.051,110.6v-.1q8.487-1.389,8.489-8.438,0-4.58-3.576-6.508a18.933,18.933,0,0,0-7.5-1.818V88.979h-3.444v4.646h-3.342V88.979h-3.443v4.646h-8.378l.022,4.064,4.487,0a1.265,1.265,0,0,1,1.265,1.266v24.388a1.266,1.266,0,0,1-1.266,1.266h-4.508l-.354,5.028h8.732v4.713h3.443v-4.713h3.342v4.713h3.444v-4.834a22.081,22.081,0,0,0,8.661-2.116q4.218-2.239,4.219-7.846,0-7.665-10.29-8.952m-9.325-12.914c4.278,0,11.444,0,11.444,5.165s-7.166,5.165-11.444,5.165Zm0,26.586V113.538c5.017,0,13.419,0,13.419,5.368s-8.4,5.368-13.419,5.368" transform="translate(-292.395 -61.61)" fill="#ff953c"/>
          </g>
          <g id="Group_2758" data-name="Group 2758" transform="translate(0 0.177)">
            <path id="Path_6241" data-name="Path 6241" d="M105.726,110.925A52.863,52.863,0,1,1,52.864,58.062a52.863,52.863,0,0,1,52.862,52.863" transform="translate(0 -58.061)" fill="#546b8f"/>
            <path id="Path_6242" data-name="Path 6242" d="M93.308,76.9a52.86,52.86,0,0,0-90.33,51.523Q47.692,101.877,93.308,76.9" transform="translate(0 -58.061)" fill="#97afd1"/>
            <path id="Path_6243" data-name="Path 6243" d="M93.747,111.623A40.187,40.187,0,1,1,53.562,71.436a40.185,40.185,0,0,1,40.186,40.187" transform="translate(-1.535 -59.596)" fill="#334a74"/>
            <path id="Path_6244" data-name="Path 6244" d="M95.169,113.585A39.647,39.647,0,1,1,55.523,73.937a39.646,39.646,0,0,1,39.647,39.648" transform="translate(-1.822 -59.883)" fill="#4d6282"/>
            <path id="Path_6245" data-name="Path 6245" d="M59.409,132.095l15.359-9.113L59.409,144.637,44.05,122.982Z" transform="translate(-5.056 -65.513)" fill="#294268"/>
            <path id="Path_6246" data-name="Path 6246" d="M59.409,124.975,44.05,115.6l15.359-25.6,15.359,25.6Z" transform="translate(-5.056 -61.728)" fill="#294268"/>
            <path id="Path_6247" data-name="Path 6247" d="M57.936,89.564v18.708l-15.361,6.892Z" transform="translate(-4.887 -61.677)" fill="#8093b2"/>
            <path id="Path_6248" data-name="Path 6248" d="M57.936,110.7v16.266l-15.361-9.373Z" transform="translate(-4.887 -64.103)" fill="#546b8f"/>
            <path id="Path_6249" data-name="Path 6249" d="M57.936,131.655V144.2L42.575,122.542Z" transform="translate(-4.887 -65.462)" fill="#8093b2"/>
            <path id="Path_6250" data-name="Path 6250" d="M59.928,89.564v18.708l15.361,6.892Z" transform="translate(-6.879 -61.677)" fill="#546b8f"/>
            <path id="Path_6251" data-name="Path 6251" d="M59.928,110.7v16.266l15.361-9.373Z" transform="translate(-6.879 -64.103)" fill="#334a74"/>
            <path id="Path_6252" data-name="Path 6252" d="M59.928,131.655V144.2l15.361-21.654Z" transform="translate(-6.879 -65.462)" fill="#546b8f"/>
          </g>
          <g id="Group_2755" data-name="Group 2755" transform="translate(368.054 0.177)">
            <path id="Path_6253" data-name="Path 6253" d="M522.381,110.925a52.863,52.863,0,1,1-52.862-52.863,52.863,52.863,0,0,1,52.862,52.863" transform="translate(-416.655 -58.061)" fill="#ff377f"/>
            <path id="Path_6254" data-name="Path 6254" d="M509.964,76.9a52.86,52.86,0,0,0-90.33,51.523q44.714-26.544,90.33-51.523" transform="translate(-416.655 -58.061)" fill="#ff88b9"/>
            <path id="Path_6255" data-name="Path 6255" d="M483.278,175.134a52.693,52.693,0,0,0,31.212-15.068c-8.254,3.968-16.488,7.98-24.731,11.967-2.156,1.044-4.322,2.065-6.481,3.1" transform="translate(-424.303 -69.77)" fill="#ff88b9"/>
            <path id="Path_6256" data-name="Path 6256" d="M510.4,111.623a40.187,40.187,0,1,1-40.186-40.187A40.185,40.185,0,0,1,510.4,111.623" transform="translate(-418.19 -59.596)" fill="#a31c60"/>
            <path id="Path_6257" data-name="Path 6257" d="M511.825,113.585a39.647,39.647,0,1,1-39.647-39.648,39.646,39.646,0,0,1,39.647,39.648" transform="translate(-418.478 -59.883)" fill="#c1256c"/>
            <path id="Path_6258" data-name="Path 6258" d="M509.1,119.023l.385.7.7.385-.7.385-.385.7-.385-.7-.7-.385.7-.385Z" transform="translate(-427.142 -65.059)" fill="#a31c60"/>
            <path id="Path_6259" data-name="Path 6259" d="M478.411,114.447a2.179,2.179,0,0,0-2.1-.821,2.1,2.1,0,0,0-1.78,1.552,1.6,1.6,0,0,0,.182,1.6s.273.366,1.278.366a3.652,3.652,0,0,0,2.6-.821c.588-.573.313-1.255-.182-1.871m-1.734,1c-.6,0-1.095-.337-1.095-.753s.49-.752,1.095-.752,1.1.337,1.1.752-.49.753-1.1.753" transform="translate(-423.284 -64.436)" fill="#a31c60"/>
            <path id="Path_6260" data-name="Path 6260" d="M472.945,100.118a9.976,9.976,0,0,0,.323,3.479,8.72,8.72,0,0,0,2.461,3.914,3.889,3.889,0,0,0,1.962,1c.547.091,1.339.274.913-.365a7.492,7.492,0,0,1-1.278-2.145c-.847-2-.4-2.79-1.095-3.925-.73-1.187-2.191-2.145-3.286-1.963" transform="translate(-423.113 -62.886)" fill="#a31c60"/>
            <path id="Path_6261" data-name="Path 6261" d="M477.6,128.5a.032.032,0,0,1-.027-.056,7.783,7.783,0,0,1,1.715-.907,17.176,17.176,0,0,1,3.365-.821,11.947,11.947,0,0,0,3.425-.783,4.442,4.442,0,0,0,2.647-3.058,3.59,3.59,0,0,0,.062-.423,5.859,5.859,0,0,0-.126-1.6c-.048-.248-.1-.494-.166-.738-.033-.125-.068-.25-.106-.374-.013-.044-.028-.124-.048-.2a.035.035,0,0,1,.06-.034,4.457,4.457,0,0,1,1.158,3.726,4.946,4.946,0,0,1-2.182,3.459,6.219,6.219,0,0,1-3.263.987,35.072,35.072,0,0,0-4.153.274c-.946.181-1.979.451-2.359.552" transform="translate(-423.646 -65.112)" fill="#a31c60"/>
            <path id="Path_6262" data-name="Path 6262" d="M492.492,120.743a5.012,5.012,0,0,0,.137,4.083,45.374,45.374,0,0,0,2.6,4.27c1.325,2.041,2.021,2.857,2.13,4.515a6.468,6.468,0,0,1-.713,3.606,12.959,12.959,0,0,0,3.335-2.784,8.747,8.747,0,0,0,1.176-5.7,8.838,8.838,0,0,0-2.43-4.18,27.63,27.63,0,0,0-4.368-2.713c-1.051-.6-1.87-1.1-1.87-1.1" transform="translate(-425.317 -65.256)" fill="#a31c60"/>
            <path id="Path_6263" data-name="Path 6263" d="M486.294,111.205a5.62,5.62,0,0,0,2.738,5.75c3.834,2.236,3.788,1.78,6.527,2.966s3.149,1.415,3.833,2.145,1.825,1.825,1.552,3.286a5.91,5.91,0,0,0,1.095-3.058c.137-1.871-.136-3.879-1.232-5.066a8.4,8.4,0,0,0-5.111-3.331c-1.9-.551-2.1-.274-4.472-.73a9.714,9.714,0,0,1-4.929-1.963" transform="translate(-424.641 -64.161)" fill="#a31c60"/>
            <path id="Path_6264" data-name="Path 6264" d="M492.19,102.573a10.168,10.168,0,0,1,2.889,1.677c.652.652.652,1.538.7,2.656a10.31,10.31,0,0,1-.316,2.487.005.005,0,0,0,.009,0,4.855,4.855,0,0,0,.68-1.653,14.219,14.219,0,0,0,.14-2.237c.007-.251.14-.29.328-.287.419.007,1.63,1.126,2.142,1.592a6.9,6.9,0,0,0,.853.646.039.039,0,0,0,.049-.061l-1.229-1.191a19.569,19.569,0,0,1-1.445-1.538,4.537,4.537,0,0,1-.819-1.061,4.929,4.929,0,0,1-.366-1.074,4.141,4.141,0,0,1-.073-.987,6.838,6.838,0,0,1,.419-2.1s-.279.093-.606,1.025a7.872,7.872,0,0,0-.28,2.33s.07.675-.233.513A27.983,27.983,0,0,0,492,102.34l-.67-.085a.015.015,0,0,0-.005.03Z" transform="translate(-425.225 -62.812)" fill="#a31c60"/>
            <path id="Path_6265" data-name="Path 6265" d="M496.2,108.627c-.356-.42-.78-.918-1.263-1.437-.019.1-.04.2-.06.3a6.144,6.144,0,0,1-.382,1.278,2.838,2.838,0,0,1-.693,1.058.972.972,0,0,1-1.1.072c-.365-.232-.382-.628-.132-1.1a3.93,3.93,0,0,0,.39-1.448,5.724,5.724,0,0,0-.2-2.166,9.1,9.1,0,0,0-2.629-1.438,14.532,14.532,0,0,0-5.978-.913,12.175,12.175,0,0,0-2.534.3,15.7,15.7,0,0,0-3.856-3.355c-1.631-.829-3.8-1.313-4.578-.994a.021.021,0,0,0,.007.041,7.234,7.234,0,0,1,2.974.862,11.835,11.835,0,0,1,3.879,3.249c1.186,1.544,3.6,4.464,3.6,4.464a5.8,5.8,0,0,0,1.871,1.506,14.056,14.056,0,0,0,4.884,1.232c2.054.228,3.6.064,4.928.639a4.7,4.7,0,0,1,2.328,1.963c.032.059.136.045.136-.091a7.759,7.759,0,0,0-1.6-4.016" transform="translate(-423.143 -62.724)" fill="#a31c60"/>
            <path id="Path_6266" data-name="Path 6266" d="M486.923,141.97a3.865,3.865,0,0,1-1.7-.875,4.849,4.849,0,0,1-1.055-1.4c-.458-.9-.863-1.824-1.3-2.734A5.057,5.057,0,0,0,481,134.777a3.351,3.351,0,0,0-2.749-.46,2.09,2.09,0,0,0-1.523,2.381,2.254,2.254,0,0,0,2.611,1.631,1.654,1.654,0,0,0,1.1-2.111,1.539,1.539,0,0,0-2.111-.707.915.915,0,0,0-.341,1.141c.029.061.3.455.071.3a.856.856,0,0,1-.317-.554,1.2,1.2,0,0,1,.515-1.149,1.927,1.927,0,0,1,2.88,2.038,2.453,2.453,0,0,1-3.205,1.99,3.986,3.986,0,0,1-1.8-1.073c-.5-.491-.985-1.034-1.515-1.5a6.667,6.667,0,0,0-1.659-1.071,7.545,7.545,0,0,0-1.575-.474c-.312-.065-.627-.116-.943-.161-.083-.012-.668-.028-.5-.2a11.524,11.524,0,0,1,1.523-1.236,14.06,14.06,0,0,1,1.681-1.037,14.576,14.576,0,0,1,3.005-1.162,8.734,8.734,0,0,1,4.345-.079,6.013,6.013,0,0,1,3.235,1.961,7.833,7.833,0,0,1,1.379,3.69,16.631,16.631,0,0,0,.531,2.525,2.5,2.5,0,0,0,2.671,1.863,5.015,5.015,0,0,0,1.23-.157c.32-.08.621-.221.944-.289.1-.019.322-.072.193.074a1.041,1.041,0,0,1-.232.144q-.2.129-.4.246a4.234,4.234,0,0,1-3.126.629" transform="translate(-422.769 -66.439)" fill="#a31c60"/>
            <path id="Path_6267" data-name="Path 6267" d="M454.421,86.516c.181.215.356.436.546.643.953,1.042,10.112,11.084,11.43,12.535.667.734,1.338,1.462,2,2.2,1.242,1.377,2.464,2.773,3.718,4.141a4.393,4.393,0,0,1,.559.682,1.739,1.739,0,0,1-.151,1.407,3.21,3.21,0,0,1-.855,1.159,5.44,5.44,0,0,1-2.407,1.1,5.939,5.939,0,0,0-1.445.337c-.955.472-.875,1.747-.964,2.642-.192,1.937-1.143,3.567-1.8,5.358a3.029,3.029,0,0,0,.322,2.818,6.032,6.032,0,0,0,1.212,1.166,20.185,20.185,0,0,1,2.031,1.72,2.761,2.761,0,0,1,.15,3.067,4.522,4.522,0,0,1-1.406,1.411,10.2,10.2,0,0,1-2.5,1.218c-.437.15-.881.278-1.329.394q-.333.086-.669.163a2.167,2.167,0,0,1-.52.1.328.328,0,0,1-.141-.024c-.147-.07-.186-.323-.236-.463a31.831,31.831,0,0,0-1.663-2.958,6.24,6.24,0,0,1,.673-7.314,27.815,27.815,0,0,0,2.634-3.629,9.527,9.527,0,0,0,1.1-3.262,10.761,10.761,0,0,1,.6-2.655,4.666,4.666,0,0,1,.733-1.072c.265-.331.625-.739.389-1.184-.536-1.013-1.053-2.036-1.6-3.043-1.252-2.3-2.551-4.582-3.821-6.875l-.074-.135a.52.52,0,0,1-.052-.242.019.019,0,0,1,.019-.009,1.133,1.133,0,0,1,.12.144c1.4,2.146,2.805,4.323,4.211,6.479q.883,1.353,1.779,2.7c.434.65.9,1.331,1.751,1.4.73.061,2.919-.545,2.116-1.666-.257-.359-.543-.7-.819-1.041q-1.049-1.308-2.1-2.612c-1.377-1.7-2.767-3.387-4.149-5.08-1.562-1.915-3.117-3.836-4.687-5.743-.934-1.141-1.88-2.272-2.817-3.411-.642-.781-1.98-2.406-2.013-2.433-.021-.107.022-.15.129-.128m7.507,36.616a.86.86,0,0,0-.412.12.269.269,0,0,0,.02.5c.514.289-.119.672,0,1.075a.591.591,0,0,0,.731.335,1.055,1.055,0,0,0-.337-2.029" transform="translate(-420.975 -61.327)" fill="#a31c60"/>
            <path id="Path_6268" data-name="Path 6268" d="M478.137,113.755a2.179,2.179,0,0,0-2.1-.821,2.1,2.1,0,0,0-1.78,1.552,1.6,1.6,0,0,0,.182,1.6s.274.366,1.278.366a3.652,3.652,0,0,0,2.6-.821c.588-.573.312-1.255-.182-1.871m-1.734,1c-.6,0-1.095-.337-1.095-.753s.49-.752,1.095-.752,1.095.337,1.095.752-.49.753-1.095.753" transform="translate(-423.253 -64.356)" fill="#ff377f"/>
            <path id="Path_6269" data-name="Path 6269" d="M472.672,99.427a9.979,9.979,0,0,0,.323,3.479,8.721,8.721,0,0,0,2.461,3.914,3.889,3.889,0,0,0,1.962,1c.547.091,1.339.275.913-.365a7.492,7.492,0,0,1-1.278-2.145c-.847-2-.4-2.79-1.095-3.925-.73-1.187-2.191-2.145-3.286-1.963" transform="translate(-423.081 -62.807)" fill="#ff377f"/>
            <path id="Path_6270" data-name="Path 6270" d="M477.327,127.808a.032.032,0,0,1-.027-.056,7.785,7.785,0,0,1,1.715-.907,17.193,17.193,0,0,1,3.365-.821,11.947,11.947,0,0,0,3.425-.783,4.441,4.441,0,0,0,2.647-3.057,3.566,3.566,0,0,0,.062-.423,5.859,5.859,0,0,0-.126-1.6c-.048-.248-.1-.494-.166-.738-.033-.125-.068-.25-.106-.374-.013-.044-.028-.124-.048-.2a.035.035,0,0,1,.06-.034,4.457,4.457,0,0,1,1.158,3.726,4.946,4.946,0,0,1-2.182,3.459,6.219,6.219,0,0,1-3.263.987,35.067,35.067,0,0,0-4.153.274c-.946.181-1.979.451-2.359.552" transform="translate(-423.615 -65.033)" fill="#ff377f"/>
            <path id="Path_6271" data-name="Path 6271" d="M492.218,120.052a5.012,5.012,0,0,0,.137,4.083,45.2,45.2,0,0,0,2.6,4.27c1.324,2.041,2.02,2.857,2.129,4.515a6.469,6.469,0,0,1-.713,3.606,12.959,12.959,0,0,0,3.335-2.784,8.747,8.747,0,0,0,1.176-5.7,8.844,8.844,0,0,0-2.43-4.181,27.688,27.688,0,0,0-4.368-2.712c-1.051-.6-1.87-1.1-1.87-1.1" transform="translate(-425.285 -65.177)" fill="#ff377f"/>
            <path id="Path_6272" data-name="Path 6272" d="M486.021,110.514a5.62,5.62,0,0,0,2.738,5.75c3.834,2.236,3.788,1.78,6.527,2.966s3.149,1.415,3.833,2.145,1.825,1.825,1.552,3.286a5.914,5.914,0,0,0,1.095-3.058c.137-1.871-.136-3.879-1.232-5.066a8.4,8.4,0,0,0-5.111-3.331c-1.9-.551-2.1-.274-4.472-.73a9.713,9.713,0,0,1-4.929-1.963" transform="translate(-424.61 -64.082)" fill="#ff377f"/>
            <path id="Path_6273" data-name="Path 6273" d="M491.916,101.882a10.167,10.167,0,0,1,2.889,1.677c.652.652.652,1.538.7,2.656a10.308,10.308,0,0,1-.316,2.487.005.005,0,0,0,.009,0,4.852,4.852,0,0,0,.68-1.653,14.226,14.226,0,0,0,.14-2.237c.007-.251.14-.29.328-.287.419.007,1.63,1.126,2.142,1.592a6.9,6.9,0,0,0,.853.646.04.04,0,0,0,.049-.062l-1.229-1.19a19.585,19.585,0,0,1-1.445-1.538,4.537,4.537,0,0,1-.819-1.061,4.927,4.927,0,0,1-.365-1.074,4.14,4.14,0,0,1-.074-.987,6.836,6.836,0,0,1,.419-2.1s-.279.093-.606,1.025a7.872,7.872,0,0,0-.28,2.33s.07.675-.233.513a27.988,27.988,0,0,0-3.029-.978l-.67-.085a.015.015,0,0,0-.005.03Z" transform="translate(-425.194 -62.733)" fill="#ff377f"/>
            <path id="Path_6274" data-name="Path 6274" d="M495.931,107.935c-.356-.42-.78-.918-1.263-1.437-.019.1-.04.2-.06.3a6.144,6.144,0,0,1-.382,1.278,2.837,2.837,0,0,1-.693,1.058.972.972,0,0,1-1.1.072c-.365-.232-.382-.628-.132-1.1a3.93,3.93,0,0,0,.389-1.448,5.72,5.72,0,0,0-.2-2.166,9.1,9.1,0,0,0-2.629-1.438,14.532,14.532,0,0,0-5.978-.913,12.174,12.174,0,0,0-2.533.3,15.7,15.7,0,0,0-3.856-3.355c-1.631-.829-3.8-1.313-4.578-.994a.021.021,0,0,0,.007.04,7.254,7.254,0,0,1,2.974.863,11.834,11.834,0,0,1,3.879,3.249c1.186,1.544,3.606,4.464,3.606,4.464a5.79,5.79,0,0,0,1.87,1.506,14.055,14.055,0,0,0,4.884,1.232c2.054.228,3.6.064,4.928.639a4.7,4.7,0,0,1,2.328,1.963c.032.059.136.045.136-.091a7.759,7.759,0,0,0-1.6-4.016" transform="translate(-423.112 -62.644)" fill="#ff377f"/>
            <path id="Path_6275" data-name="Path 6275" d="M486.649,141.278a3.863,3.863,0,0,1-1.7-.874,4.847,4.847,0,0,1-1.055-1.4c-.458-.9-.863-1.824-1.3-2.734a5.053,5.053,0,0,0-1.872-2.189,3.352,3.352,0,0,0-2.75-.461,2.091,2.091,0,0,0-1.523,2.382,2.254,2.254,0,0,0,2.611,1.631,1.654,1.654,0,0,0,1.1-2.111,1.54,1.54,0,0,0-2.111-.708.917.917,0,0,0-.341,1.142c.029.061.3.455.071.3a.855.855,0,0,1-.317-.554,1.2,1.2,0,0,1,.515-1.149,1.927,1.927,0,0,1,2.88,2.038,2.453,2.453,0,0,1-3.205,1.99,3.994,3.994,0,0,1-1.8-1.073c-.5-.491-.985-1.034-1.515-1.5a6.644,6.644,0,0,0-1.659-1.071,7.55,7.55,0,0,0-1.575-.474c-.312-.065-.627-.117-.943-.161-.083-.013-.668-.028-.5-.2a11.594,11.594,0,0,1,1.523-1.237,14.158,14.158,0,0,1,1.681-1.036,14.522,14.522,0,0,1,3.005-1.162,8.745,8.745,0,0,1,4.345-.08,6.019,6.019,0,0,1,3.235,1.962,7.834,7.834,0,0,1,1.379,3.69,16.669,16.669,0,0,0,.531,2.525,2.5,2.5,0,0,0,2.671,1.863,5.014,5.014,0,0,0,1.23-.157c.32-.081.621-.221.944-.289.1-.019.322-.072.193.074a1.076,1.076,0,0,1-.232.144c-.131.085-.264.168-.4.245a4.226,4.226,0,0,1-3.126.629" transform="translate(-422.737 -66.359)" fill="#ff377f"/>
            <path id="Path_6276" data-name="Path 6276" d="M454.148,85.824c.181.215.356.436.546.643.953,1.042,10.112,11.084,11.43,12.535.667.734,1.338,1.462,2,2.2,1.242,1.377,2.464,2.773,3.718,4.141a4.393,4.393,0,0,1,.559.682,1.739,1.739,0,0,1-.15,1.407,3.211,3.211,0,0,1-.855,1.159,5.441,5.441,0,0,1-2.407,1.1,5.938,5.938,0,0,0-1.445.337c-.955.472-.875,1.747-.964,2.642-.192,1.937-1.143,3.567-1.8,5.358a3.029,3.029,0,0,0,.322,2.818,6.03,6.03,0,0,0,1.212,1.166,20.182,20.182,0,0,1,2.031,1.72,2.761,2.761,0,0,1,.15,3.067,4.522,4.522,0,0,1-1.406,1.411,10.2,10.2,0,0,1-2.5,1.218c-.437.15-.881.278-1.329.394q-.333.086-.669.163a2.168,2.168,0,0,1-.52.1.328.328,0,0,1-.141-.024c-.147-.07-.186-.323-.236-.463a31.83,31.83,0,0,0-1.663-2.958,6.24,6.24,0,0,1,.673-7.314,27.82,27.82,0,0,0,2.634-3.629,9.527,9.527,0,0,0,1.1-3.262,10.758,10.758,0,0,1,.6-2.655,4.668,4.668,0,0,1,.733-1.072c.265-.331.625-.739.389-1.184-.536-1.013-1.052-2.036-1.6-3.043-1.252-2.3-2.551-4.582-3.821-6.875l-.074-.135a.519.519,0,0,1-.052-.242.019.019,0,0,1,.019-.009,1.128,1.128,0,0,1,.12.144c1.4,2.146,2.805,4.323,4.211,6.479q.883,1.353,1.779,2.7c.434.65.9,1.331,1.751,1.4.73.061,2.919-.545,2.116-1.666-.257-.359-.543-.7-.819-1.041q-1.049-1.308-2.1-2.612c-1.377-1.7-2.767-3.387-4.149-5.08-1.562-1.915-3.117-3.836-4.687-5.743-.934-1.141-1.88-2.272-2.817-3.411-.642-.781-1.98-2.406-2.013-2.433-.021-.107.022-.15.129-.128m7.507,36.616a.86.86,0,0,0-.412.12.269.269,0,0,0,.02.5c.514.289-.119.672,0,1.075a.591.591,0,0,0,.731.335,1.055,1.055,0,0,0-.337-2.029" transform="translate(-420.943 -61.247)" fill="#ff377f"/>
          </g>
        </g>
        <g id="Group_2760" data-name="Group 2760" transform="translate(161.585)">
          <path id="Path_6277" data-name="Path 6277" d="M314.546,285.254H204.633a20.386,20.386,0,0,1-20.679-20.679V21.178A20.387,20.387,0,0,1,204.633.5H314.546c10.839,0,20.678,9.305,20.678,20.678v243.4A20.384,20.384,0,0,1,314.546,285.254Z" transform="translate(-183.954 -0.5)" fill="none" stroke="#28d709" stroke-width="1"/>
          <path id="Path_6278" data-name="Path 6278" d="M314.874,9.061H329.2A12.35,12.35,0,0,1,341.51,21.374v13.2" transform="translate(-198.982 -1.483)" fill="none" stroke="#28d709" stroke-width="1"/>
          <path id="Path_6279" data-name="Path 6279" d="M193.834,34.573v-13.2A12.35,12.35,0,0,1,206.147,9.061H220.47" transform="translate(-185.088 -1.483)" fill="none" stroke="#28d709" stroke-width="1"/>
          <path id="Path_6280" data-name="Path 6280" d="M341.51,284.8V298A12.35,12.35,0,0,1,329.2,310.313H314.874" transform="translate(-198.982 -33.135)" fill="none" stroke="#28d709" stroke-width="1"/>
          <path id="Path_6290" data-name="Path 6290" d="M314.874,284.8V298a12.35,12.35,0,0,0,12.313,12.313H341.51" transform="translate(-306.527 -33.135)" fill="none" stroke="#28d709" stroke-width="1"/>
          <path id="Path_6288" data-name="Path 6288" d="M280.017,293.91a11.745,11.745,0,1,1-11.745-11.745A11.745,11.745,0,0,1,280.017,293.91Z" transform="translate(-192.285 -32.833)" fill="none" stroke="#28d709" stroke-width="1"/>
          <path id="Path_6289" data-name="Path 6289" d="M193.834,34.573v-13.2A12.35,12.35,0,0,1,206.147,9.061H220.47" transform="translate(-185.487 -1.483)" fill="none" stroke="#28d709" stroke-width="1"/>
        </g>
      </g>
    </g>
  </g>
</svg>
