<svg xmlns="http://www.w3.org/2000/svg" xmlns:xlink="http://www.w3.org/1999/xlink" width="118.885" height="91.872" viewBox="0 0 118.885 91.872">
  <defs>
    <clipPath id="clip-path">
      <rect id="Rectangle_930" data-name="Rectangle 930" width="11.71" height="20.556" fill="none"/>
    </clipPath>
  </defs>
  <g id="bank" transform="translate(-113.184 -142.08)">
    <rect id="Rectangle_929" data-name="Rectangle 929" width="70.806" height="54.508" transform="translate(139.411 168.096)" fill="#28e808"/>
    <path id="Path_2655" data-name="Path 2655" d="M171.047,378.64h-.181V345.549h.181a2.093,2.093,0,1,0,0-4.185h-.181v-.037h-9.688v.037H161a2.093,2.093,0,1,0,0,4.185h.181V378.64H161a2.093,2.093,0,1,0,0,4.185h.181v1.034h9.688v-1.034h.181a2.093,2.093,0,1,0,0-4.185" transform="translate(-28.708 -162.704)" fill="#a2ff92"/>
    <path id="Path_2656" data-name="Path 2656" d="M166.022,383.859v-42.5l-4.844-.037v.037H161a2.093,2.093,0,1,0,0,4.185h.181V378.64H161a2.093,2.093,0,1,0,0,4.185h.181v1.034Z" transform="translate(-28.708 -162.704)" fill="#dcffd5"/>
    <path id="Path_2657" data-name="Path 2657" d="M341.32,378.64h-.181V345.549h.181a2.093,2.093,0,0,0,0-4.185h-.181v-.037h-9.688v.037h-.181a2.093,2.093,0,0,0,0,4.185h.181V378.64h-.181a2.093,2.093,0,0,0,0,4.185h.181v1.034h9.688v-1.034h.181a2.093,2.093,0,0,0,0-4.185" transform="translate(-180.751 -162.704)" fill="#a2ff92"/>
    <path id="Path_2658" data-name="Path 2658" d="M336.295,383.859v-42.5l-4.844-.037v.037h-.181a2.093,2.093,0,0,0,0,4.185h.181V378.64h-.181a2.093,2.093,0,0,0,0,4.185h.181v1.034Z" transform="translate(-180.751 -162.704)" fill="#dcffd5"/>
    <path id="Path_2659" data-name="Path 2659" d="M659.314,378.64h-.181V345.549h.181a2.093,2.093,0,0,0,0-4.185h-.181v-.037h-9.689v.037h-.181a2.093,2.093,0,0,0,0,4.185h.181V378.64h-.181a2.093,2.093,0,0,0,0,4.185h.181v1.034h9.689v-1.034h.181a2.093,2.093,0,0,0,0-4.185" transform="translate(-464.701 -162.704)" fill="#a2ff92"/>
    <path id="Path_2660" data-name="Path 2660" d="M654.289,383.859v-42.5l-4.844-.037v.037h-.181a2.093,2.093,0,0,0,0,4.185h.181V378.64h-.181a2.093,2.093,0,0,0,0,4.185h.181v1.034Z" transform="translate(-464.701 -162.704)" fill="#dcffd5"/>
    <path id="Path_2661" data-name="Path 2661" d="M829.587,378.64h-.181V345.549h.181a2.093,2.093,0,0,0,0-4.185h-.181v-.037h-9.688v.037h-.181a2.093,2.093,0,0,0,0,4.185h.181V378.64h-.181a2.093,2.093,0,0,0,0,4.185h.181v1.034h9.688v-1.034h.181a2.093,2.093,0,0,0,0-4.185" transform="translate(-616.744 -162.704)" fill="#a2ff92"/>
    <path id="Path_2662" data-name="Path 2662" d="M824.563,383.859v-42.5l-4.844-.037v.037h-.181a2.093,2.093,0,0,0,0,4.185h.181V378.64h-.181a2.093,2.093,0,0,0,0,4.185h.181v1.034Z" transform="translate(-616.745 -162.704)" fill="#dcffd5"/>
    <path id="Path_2663" data-name="Path 2663" d="M165.3,731.2H59.06V724.36a1.615,1.615,0,0,1,1.615-1.615H163.684a1.615,1.615,0,0,1,1.615,1.615Z" transform="translate(60.447 -503.288)" fill="#a2ff92"/>
    <path id="Path_2664" data-name="Path 2664" d="M142.256,768.257H33.016a1.442,1.442,0,0,1-1.442-1.442v-3.159a1.442,1.442,0,0,1,1.442-1.442H142.256a1.442,1.442,0,0,1,1.442,1.442v3.159a1.442,1.442,0,0,1-1.442,1.442" transform="translate(84.99 -538.53)" fill="#28e808"/>
    <path id="Path_2665" data-name="Path 2665" d="M117.49,807.724H1.395A1.4,1.4,0,0,1,0,806.329v-3.254a1.4,1.4,0,0,1,1.395-1.395h116.1a1.4,1.4,0,0,1,1.395,1.395v3.255a1.4,1.4,0,0,1-1.395,1.395" transform="translate(113.184 -573.772)" fill="#dcffd5"/>
    <path id="Path_2666" data-name="Path 2666" d="M181.232,305.914H88.984a4.128,4.128,0,0,1-4.128-4.128v-1.109h100.5v1.109a4.128,4.128,0,0,1-4.128,4.128" transform="translate(37.413 -126.407)" fill="#dcffd5"/>
    <path id="Path_2667" data-name="Path 2667" d="M173,23.823,121.011,0,69.068,23.823Z" transform="translate(51.509 142.08)" fill="#dcffd5"/>
    <path id="Path_2668" data-name="Path 2668" d="M233.679,57.253l-43.65-20.04-43.718,20.04,43.684-.2Z" transform="translate(-17.464 108.851)" fill="#28e808"/>
    <path id="Path_2669" data-name="Path 2669" d="M283.724,85.4,245.415,67.76,208.854,85.4l-.472-.979L245.4,66.559l38.774,17.854Z" transform="translate(-72.889 82.646)" fill="#d9f9f3"/>
    <path id="Path_2670" data-name="Path 2670" d="M124.146,230.971H17.526a4.7,4.7,0,0,1-4.7-4.7v-2.037a1.715,1.715,0,0,1,1.715-1.715H127.13a1.715,1.715,0,0,1,1.715,1.715v2.037a4.7,4.7,0,0,1-4.7,4.7" transform="translate(101.73 -56.617)" fill="#a2ff92"/>
    <g id="Group_2306" data-name="Group 2306" transform="translate(166.771 198.901)" opacity="0.5" style="mix-blend-mode: multiply;isolation: isolate">
      <g id="Group_2305" data-name="Group 2305">
        <g id="Group_2304" data-name="Group 2304" clip-path="url(#clip-path)">
          <path id="Path_2671" data-name="Path 2671" d="M507.626,530.742h-2.479a4.615,4.615,0,0,0-4.615,4.615V551.3h11.71v-15.94a4.615,4.615,0,0,0-4.616-4.615" transform="translate(-500.531 -530.742)" fill="#74aaa6"/>
        </g>
      </g>
    </g>
  </g>
</svg>
