<svg xmlns="http://www.w3.org/2000/svg" width="30" height="30" viewBox="0 0 30 30">
  <g id="bitcoin" transform="translate(-204.755 -327.755)">
    <circle id="Ellipse_102" data-name="Ellipse 102" cx="15" cy="15" r="15" transform="translate(204.755 327.755)" fill="#262626"/>
    <path id="Path_2472" data-name="Path 2472" d="M137.021-504.792c-.175-.067-.229-.174-.172-.4.128-.518.225-1.046.335-1.57.022-.077.038-.158.068-.232.127-.318.032-.466-.259-.508a5.123,5.123,0,0,1-.585-.153c-.131-.063-.164,0-.194.151-.133.656-.288,1.306-.423,1.961-.049.235-.122.325-.344.238-.295-.115-.6-.184-.905-.273-.188-.242.058-.461.027-.7.125-.553.246-1.106.376-1.657.044-.185-.033-.255-.165-.293l-2.309-.667c-.116-.06-.113-.149-.066-.272q.254-.657.494-1.322c.052-.146.121-.193.255-.148.231.08.466.146.7.216.389.116.619-.04.717-.5q.464-2.181.921-4.364.226-1.074.449-2.149a.809.809,0,0,0-.542-1.064c-.252-.08-.506-.154-.759-.231-.129-.039-.213-.1-.165-.29q.141-.573.252-1.156c.037-.2.113-.214.265-.168.711.217,1.425.418,2.136.633.219.066.329.032.383-.269.113-.629.281-1.245.4-1.872.045-.227.112-.307.306-.221a4.64,4.64,0,0,1,1.048.394c-.109.461-.221.922-.328,1.384-.259,1.113-.254,1.115.737,1.263.111.017.159-.02.175-.121.09-.563.264-1.105.3-1.68.118-.617.118-.617.634-.454.192.061.384.12.578.173a.2.2,0,0,1,.158.285l-.017.132a.135.135,0,0,0-.044.151l-.019.131a.135.135,0,0,0-.042.152l-.02.13a.137.137,0,0,0-.041.152l-.022.13a.139.139,0,0,0-.039.153l-.024.129a.143.143,0,0,0-.037.154l-.026.128a.146.146,0,0,0-.036.155l-.027.127c0,.165-.252.342.017.494a7.92,7.92,0,0,1,1.476.785,2.809,2.809,0,0,1,1.034,3.228c-.032.122-.059.246-.088.37l0,0c-.06.025-.06.085-.061.143v0a.285.285,0,0,0-.116.216l0,0a.264.264,0,0,0-.127.2h0c-.04,0-.057.031-.061.075h0c-.038,0-.059.028-.062.072h0a.065.065,0,0,0-.063.071l0,0a.064.064,0,0,0-.067.069l0,0a.1.1,0,0,0-.109.085l-.007.005a.057.057,0,0,0-.065.06h0c-.05,0-.1.01-.115.077l0,0c-.048,0-.1,0-.116.068l-.006,0c-.049,0-.1-.005-.122.063h0a2.436,2.436,0,0,0-.309.09c-.07.03-.045.079.011.108a2.9,2.9,0,0,1,1.227,1.5.145.145,0,0,0,.044.139l.013.072c-.005.279.055.551.027.836a7.279,7.279,0,0,1-.521,1.918l-.006.009c-.057.019-.063.073-.065.13h0c-.039,0-.05.033-.05.073l-.007.012a.261.261,0,0,0-.124.2h0c-.038,0-.054.03-.056.071l0,0-.055.067-.005.006c-.036,0-.055.023-.056.065l-.005.006c-.036,0-.056.021-.057.064l0,0-.061.065h0a.228.228,0,0,0-.171.144l-.01.008c-.034,0-.061.011-.063.058v0c-.05,0-.1.009-.116.075l-.005,0c-.047,0-.094,0-.113.068l-.008.006c-.047,0-.1,0-.119.062l0,0c-.163.051-.326.1-.49.152a5.7,5.7,0,0,1-2,.066l-.024-.018-.028.007c-.184-.05-.368-.1-.553-.149s-.144.165-.164.25c-.158.661-.309,1.324-.434,1.994-.043.232-.1.252-.28.187C137.57-504.656,137.293-504.716,137.021-504.792Zm4.127-10.239a.786.786,0,0,0,.053-.158,1.522,1.522,0,0,0-.745-1.545,6.762,6.762,0,0,0-1.9-.751c-.107-.033-.152.019-.173.124-.188.967-.436,1.918-.587,2.9a3.692,3.692,0,0,0,2.613.355A1.056,1.056,0,0,0,141.148-515.031Zm-4.262,5.52c.26.082.518.18.782.243a4.434,4.434,0,0,0,2.033.171,1.221,1.221,0,0,0,1.031-.982,1.1,1.1,0,0,0,.064-.709,1.863,1.863,0,0,0-1.01-1.27,8.584,8.584,0,0,0-2.214-.8c-.135-.037-.171.01-.2.156-.2,1-.409,2-.628,2.995C136.7-509.518,136.77-509.51,136.886-509.511Z" transform="translate(81.167 855.839)" fill="#fff"/>
  </g>
</svg>
