<svg xmlns="http://www.w3.org/2000/svg" xmlns:xlink="http://www.w3.org/1999/xlink" width="340" height="187" viewBox="0 0 340 187">
  <defs>
    <filter id="Rectangle_843" x="0" y="0" width="340" height="187" filterUnits="userSpaceOnUse">
      <feOffset dy="3" input="SourceAlpha"/>
      <feGaussianBlur stdDeviation="3" result="blur"/>
      <feFlood flood-opacity="0.102"/>
      <feComposite operator="in" in2="blur"/>
      <feComposite in="SourceGraphic"/>
    </filter>
    <linearGradient id="linear-gradient" x1="0.5" x2="0.5" y2="1" gradientUnits="objectBoundingBox">
      <stop offset="0" stop-color="#28e808" stop-opacity="0.412"/>
      <stop offset="1" stop-color="#28e808" stop-opacity="0"/>
    </linearGradient>
  </defs>
  <g id="Group_2443" data-name="Group 2443" transform="translate(-18 -325)">
    <g transform="matrix(1, 0, 0, 1, 18, 325)" filter="url(#Rectangle_843)">
      <rect id="Rectangle_843-2" data-name="Rectangle 843" width="322" height="169" rx="5" transform="translate(9 6)" fill="#262626"/>
    </g>
    <text id="Trading_Account_A" data-name="Trading Account A" transform="translate(43 367)" fill="#28e808" font-size="15" font-family="Poppins-Medium, Poppins" font-weight="500" letter-spacing="0.01em"><tspan x="0" y="0">Trading Account A</tspan></text>
    <g id="trading-account-a">
      <path id="Path_2455" data-name="Path 2455" d="M3311.563,3711.878l9.5,5.749,3.041-5.749,3.421,6.844,6.461,1.916,2.28,3.011,3.421-1.368,3.04,1.368,9.122,3.011,1.9,2.464,15.2-15.878,7.6-6.022,11.021-2.464,22.043-10.677,8.361,9.581,10.261-7.939,4.561,2.19,2.66-2.19h3.041l2.28-1.642h2.28l9.5-7.665V3745.7h-141Z" transform="translate(-3268.563 -3265.697)" opacity="0.3" fill="url(#linear-gradient)"/>
      <path id="Path_2456" data-name="Path 2456" d="M3311.563,3711.878l9.5,5.749,3.041-5.749,3.421,6.844,6.461,1.916,2.28,3.011,3.421-1.368,3.04,1.368,9.122,3.011,1.9,2.464,15.2-15.878,7.6-6.022,11.021-2.464,22.043-10.677,8.361,9.581,10.261-7.939,4.561,2.19,2.66-2.19h3.041l2.28-1.642h2.28l9.5-7.665" transform="translate(-3268.563 -3265.697)" fill="none" stroke="#28e808" stroke-width="1"/>
    </g>
    <g id="Group_2084" data-name="Group 2084" transform="translate(-4 -809)">
      <text id="Profit" transform="translate(208 1172)" fill="#e3e5e8" font-size="10" font-family="Poppins-Regular, Poppins"><tspan x="0" y="0">Profit</tspan></text>
      <text id="_6_829.01" data-name="$6,829.01" transform="translate(337 1173)" fill="#e3e5e8" font-size="12" font-family="Poppins-Medium, Poppins" font-weight="500"><tspan x="-55" y="0">$6,829.01</tspan></text>
    </g>
    <g id="Group_2083" data-name="Group 2083" transform="translate(-4 -808)">
      <text id="Margin_level" data-name="Margin level" transform="translate(208 1209)" fill="#e3e5e8" font-size="10" font-family="Poppins-Regular, Poppins"><tspan x="0" y="0">Margin level</tspan></text>
      <text id="_2711.17_" data-name="2711.17%" transform="translate(337 1209)" fill="#e3e5e8" font-size="12" font-family="Poppins-Medium, Poppins" font-weight="500"><tspan x="-45" y="0">2711.17%</tspan></text>
    </g>
    <g id="Group_2082" data-name="Group 2082" transform="translate(-4 -805)">
      <text id="Equity" transform="translate(208 1244)" fill="#e3e5e8" font-size="10" font-family="Poppins-Regular, Poppins"><tspan x="0" y="0">Equity</tspan></text>
      <text id="_4789.11" data-name="4789.11" transform="translate(337 1244)" fill="#e3e5e8" font-size="12" font-family="Poppins-Medium, Poppins" font-weight="500"><tspan x="-41" y="0">4789.11</tspan></text>
    </g>
    <g id="Group_2081" data-name="Group 2081" transform="translate(-4 -809)">
      <text id="Margin" transform="translate(208 1285)" fill="#e3e5e8" font-size="10" font-family="Poppins-Regular, Poppins"><tspan x="0" y="0">Margin</tspan></text>
      <text id="_176.48" data-name="176.48" transform="translate(337 1285)" fill="#e3e5e8" font-size="12" font-family="Poppins-Medium, Poppins" font-weight="500"><tspan x="-36" y="0">176.48</tspan></text>
    </g>
    <text id="_27_738.92" data-name="$27,738.92" transform="translate(43 407)" fill="#fff" font-size="15" font-family="Poppins-SemiBold, Poppins" font-weight="600" letter-spacing="0.01em"><tspan x="0" y="0">$27,738.92</tspan></text>
    <text id="Trading_balance" data-name="Trading balance" transform="translate(43 386)" fill="#fff" font-size="9" font-family="Poppins-Regular, Poppins" letter-spacing="0.01em"><tspan x="0" y="0">Trading balance</tspan></text>
  </g>
</svg>
