<svg xmlns="http://www.w3.org/2000/svg" width="366.066" height="247" viewBox="0 0 366.066 247">
  <g id="chart" transform="translate(0.066 -314)">
    <g id="Group_1870" data-name="Group 1870" transform="translate(0 320.632)">
      <line id="Line_3" data-name="Line 3" y2="223.007" transform="translate(104.995 1.289)" fill="none" stroke="#dedede" stroke-width="0.5" stroke-dasharray="4 4"/>
      <line id="Line_6" data-name="Line 6" y2="223.007" transform="translate(45 1.289)" fill="none" stroke="#dedede" stroke-width="0.5" stroke-dasharray="4 4"/>
      <line id="Line_4" data-name="Line 4" y2="223.007" transform="translate(168.545 1.289)" fill="none" stroke="#dedede" stroke-width="0.5" stroke-dasharray="4 4"/>
      <line id="Line_5" data-name="Line 5" y2="223.007" transform="translate(232.095 1.289)" fill="none" stroke="#dedede" stroke-width="0.5" stroke-dasharray="4 4"/>
      <line id="Line_7" data-name="Line 7" x2="333.406" transform="translate(0 45.117)" fill="none" stroke="#dedede" stroke-width="0.5" stroke-dasharray="4 4"/>
      <line id="Line_12" data-name="Line 12" x2="333.406" transform="translate(0 0)" fill="none" stroke="#dedede" stroke-width="0.5"/>
      <line id="Line_8" data-name="Line 8" x2="333.406" transform="translate(0 90.234)" fill="none" stroke="#dedede" stroke-width="0.5" stroke-dasharray="4 4"/>
      <line id="Line_9" data-name="Line 9" x2="333.406" transform="translate(0 135.351)" fill="none" stroke="#dedede" stroke-width="0.5" stroke-dasharray="4 4"/>
      <line id="Line_10" data-name="Line 10" x2="333.406" transform="translate(0 180.468)" fill="none" stroke="#dedede" stroke-width="0.5" stroke-dasharray="4 4"/>
      <line id="Line_13" data-name="Line 13" x2="333.406" transform="translate(0 225.585)" fill="none" stroke="#dedede" stroke-width="0.5"/>
    </g>
    <g id="Group_1869" data-name="Group 1869" transform="translate(3.659 339.323)">
      <g id="Group_1823" data-name="Group 1823" transform="translate(310 110.859)">
        <rect id="Rectangle_815" data-name="Rectangle 815" width="5" height="23.203" transform="translate(0 5.156)" fill="#d62d2d"/>
        <rect id="Rectangle_816" data-name="Rectangle 816" width="1" height="45.117" transform="translate(2)" fill="#d62d2d"/>
      </g>
      <g id="Group_1824" data-name="Group 1824" transform="translate(303 114.726)">
        <rect id="Rectangle_815-2" data-name="Rectangle 815" width="5" height="47.695" transform="translate(0 2.578)" fill="#28e808"/>
        <rect id="Rectangle_816-2" data-name="Rectangle 816" width="1" height="59.297" transform="translate(2)" fill="#28e808"/>
      </g>
      <g id="Group_1825" data-name="Group 1825" transform="translate(296 148.241)">
        <rect id="Rectangle_815-3" data-name="Rectangle 815" width="5" height="15.469" transform="translate(0 1.289)" fill="#d62d2d"/>
        <rect id="Rectangle_816-3" data-name="Rectangle 816" width="1" height="38.672" transform="translate(2)" fill="#d62d2d"/>
      </g>
      <g id="Group_1827" data-name="Group 1827" transform="translate(282 119.882)">
        <rect id="Rectangle_815-4" data-name="Rectangle 815" width="5" height="27.07" transform="translate(0 3.867)" fill="#d62d2d"/>
        <rect id="Rectangle_816-4" data-name="Rectangle 816" width="1" height="32.226" transform="translate(2)" fill="#d62d2d"/>
      </g>
      <g id="Group_1828" data-name="Group 1828" transform="translate(275 101.835)">
        <rect id="Rectangle_815-5" data-name="Rectangle 815" width="5" height="19.336" transform="translate(0 2.578)" fill="#d62d2d"/>
        <rect id="Rectangle_816-5" data-name="Rectangle 816" width="1" height="23.203" transform="translate(2)" fill="#d62d2d"/>
      </g>
      <g id="Group_1830" data-name="Group 1830" transform="translate(261 81.21)">
        <rect id="Rectangle_815-6" data-name="Rectangle 815" width="5" height="28.359" transform="translate(0 1.289)" fill="#d62d2d"/>
        <rect id="Rectangle_816-6" data-name="Rectangle 816" width="1" height="32.226" transform="translate(2 0)" fill="#d62d2d"/>
      </g>
      <g id="Group_1833" data-name="Group 1833" transform="translate(241 76.054)">
        <rect id="Rectangle_815-7" data-name="Rectangle 815" width="5" height="16.758" transform="translate(0 1.289)" fill="#d62d2d"/>
        <rect id="Rectangle_816-7" data-name="Rectangle 816" width="1" height="19.336" transform="translate(2)" fill="#d62d2d"/>
      </g>
      <g id="Group_1835" data-name="Group 1835" transform="translate(227 70.898)">
        <rect id="Rectangle_815-8" data-name="Rectangle 815" width="5" height="14.18" transform="translate(0 6.445)" fill="#d62d2d"/>
        <rect id="Rectangle_816-8" data-name="Rectangle 816" width="1" height="21.914" transform="translate(2)" fill="#d62d2d"/>
      </g>
      <g id="Group_1839" data-name="Group 1839" transform="translate(200 96.679)">
        <rect id="Rectangle_815-9" data-name="Rectangle 815" width="5" height="12.891" transform="translate(0 2.578)" fill="#d62d2d"/>
        <rect id="Rectangle_816-9" data-name="Rectangle 816" width="1" height="16.758" transform="translate(2 0)" fill="#d62d2d"/>
      </g>
      <g id="Group_1842" data-name="Group 1842" transform="translate(179 96.679)">
        <rect id="Rectangle_815-10" data-name="Rectangle 815" width="5" height="38.672" transform="translate(0 2.578)" fill="#d62d2d"/>
        <rect id="Rectangle_816-10" data-name="Rectangle 816" width="1" height="42.539" transform="translate(2)" fill="#d62d2d"/>
      </g>
      <g id="Group_1844" data-name="Group 1844" transform="translate(165 101.835)">
        <rect id="Rectangle_815-11" data-name="Rectangle 815" width="5" height="12.891" transform="translate(0 3.867)" fill="#d62d2d"/>
        <rect id="Rectangle_816-11" data-name="Rectangle 816" width="1" height="33.515" transform="translate(2)" fill="#d62d2d"/>
      </g>
      <g id="Group_1845" data-name="Group 1845" transform="translate(158 83.789)">
        <rect id="Rectangle_815-12" data-name="Rectangle 815" width="5" height="18.047" transform="translate(0 3.867)" fill="#d62d2d"/>
        <rect id="Rectangle_816-12" data-name="Rectangle 816" width="1" height="38.672" transform="translate(2 0)" fill="#d62d2d"/>
      </g>
      <g id="Group_1847" data-name="Group 1847" transform="translate(145 47.695)">
        <rect id="Rectangle_815-13" data-name="Rectangle 815" width="5" height="45.117" transform="translate(0 6.445)" fill="#d62d2d"/>
        <rect id="Rectangle_816-13" data-name="Rectangle 816" width="1" height="59.297" transform="translate(2)" fill="#d62d2d"/>
      </g>
      <g id="Group_1850" data-name="Group 1850" transform="translate(123 30.937)">
        <rect id="Rectangle_815-14" data-name="Rectangle 815" width="5" height="27.07" transform="translate(0 18.047)" fill="#d62d2d"/>
        <rect id="Rectangle_816-14" data-name="Rectangle 816" width="1" height="50.273" transform="translate(2)" fill="#d62d2d"/>
      </g>
      <g id="Group_1851" data-name="Group 1851" transform="translate(117 1.289)">
        <rect id="Rectangle_815-15" data-name="Rectangle 815" width="5" height="38.672" transform="translate(0 10.312)" fill="#d62d2d"/>
        <rect id="Rectangle_816-15" data-name="Rectangle 816" width="1" height="52.851" transform="translate(2)" fill="#d62d2d"/>
      </g>
      <g id="Group_1852" data-name="Group 1852" transform="translate(110 0)">
        <rect id="Rectangle_815-16" data-name="Rectangle 815" width="5" height="7.734" transform="translate(0 2.578)" fill="#d62d2d"/>
        <rect id="Rectangle_816-16" data-name="Rectangle 816" width="1" height="16.758" transform="translate(2 0)" fill="#d62d2d"/>
      </g>
      <g id="Group_1855" data-name="Group 1855" transform="translate(89 15.469)">
        <rect id="Rectangle_815-17" data-name="Rectangle 815" width="5" height="7.734" transform="translate(0 2.578)" fill="#d62d2d"/>
        <rect id="Rectangle_816-17" data-name="Rectangle 816" width="1" height="11.602" transform="translate(2)" fill="#d62d2d"/>
      </g>
      <g id="Group_1858" data-name="Group 1858" transform="translate(68 16.758)">
        <rect id="Rectangle_815-18" data-name="Rectangle 815" width="5" height="6.445" transform="translate(0 1.289)" fill="#d62d2d"/>
        <rect id="Rectangle_816-18" data-name="Rectangle 816" width="1" height="10.312" transform="translate(2 0)" fill="#d62d2d"/>
      </g>
      <g id="Group_1853" data-name="Group 1853" transform="translate(103 1.289)">
        <rect id="Rectangle_815-19" data-name="Rectangle 815" width="5" height="14.18" transform="translate(0 2.578)" fill="#28e808"/>
        <rect id="Rectangle_816-19" data-name="Rectangle 816" width="1" height="27.07" transform="translate(2 0)" fill="#28e808"/>
      </g>
      <g id="Group_1854" data-name="Group 1854" transform="translate(97 14.18)">
        <rect id="Rectangle_815-20" data-name="Rectangle 815" width="5" height="10.312" transform="translate(0 2.578)" fill="#28e808"/>
        <rect id="Rectangle_816-20" data-name="Rectangle 816" width="1" height="19.336" transform="translate(2)" fill="#28e808"/>
      </g>
      <g id="Group_1856" data-name="Group 1856" transform="translate(82 9.023)">
        <rect id="Rectangle_815-21" data-name="Rectangle 815" width="5" height="1.289" transform="translate(0 6.445)" fill="#28e808"/>
        <rect id="Rectangle_816-21" data-name="Rectangle 816" width="1" height="11.602" transform="translate(2)" fill="#28e808"/>
      </g>
      <g id="Group_1865" data-name="Group 1865" transform="translate(20 70.898)">
        <rect id="Rectangle_815-22" data-name="Rectangle 815" width="5" height="3.867" transform="translate(0 10.312)" fill="#28e808"/>
        <rect id="Rectangle_816-22" data-name="Rectangle 816" width="1" height="19.336" transform="translate(2)" fill="#28e808"/>
      </g>
      <g id="Group_1857" data-name="Group 1857" transform="translate(75 14.18)">
        <rect id="Rectangle_815-23" data-name="Rectangle 815" width="5" height="6.445" transform="translate(0 3.867)" fill="#28e808"/>
        <rect id="Rectangle_816-23" data-name="Rectangle 816" width="1" height="11.602" transform="translate(2)" fill="#28e808"/>
      </g>
      <g id="Group_1859" data-name="Group 1859" transform="translate(62 16.758)">
        <rect id="Rectangle_815-24" data-name="Rectangle 815" width="5" height="32.226" transform="translate(0 2.578)" fill="#28e808"/>
        <rect id="Rectangle_816-24" data-name="Rectangle 816" width="1" height="38.672" transform="translate(2)" fill="#28e808"/>
      </g>
      <g id="Group_1860" data-name="Group 1860" transform="translate(55 50.273)">
        <rect id="Rectangle_815-25" data-name="Rectangle 815" width="5" height="32.226" transform="translate(0 2.578)" fill="#28e808"/>
        <rect id="Rectangle_816-25" data-name="Rectangle 816" width="1" height="38.672" transform="translate(2)" fill="#28e808"/>
      </g>
      <g id="Group_1867" data-name="Group 1867" transform="translate(6 74.765)">
        <rect id="Rectangle_815-26" data-name="Rectangle 815" width="5" height="18.047" transform="translate(0 7.734)" fill="#28e808"/>
        <rect id="Rectangle_816-26" data-name="Rectangle 816" width="1" height="38.672" transform="translate(2)" fill="#28e808"/>
      </g>
      <g id="Group_1861" data-name="Group 1861" transform="translate(48 82.5)">
        <rect id="Rectangle_815-27" data-name="Rectangle 815" width="5" height="5.156" transform="translate(0 1.289)" fill="#28e808"/>
        <rect id="Rectangle_816-27" data-name="Rectangle 816" width="1" height="15.469" transform="translate(2)" fill="#28e808"/>
      </g>
      <g id="Group_1863" data-name="Group 1863" transform="translate(34 82.5)">
        <rect id="Rectangle_815-28" data-name="Rectangle 815" width="5" height="5.156" transform="translate(0 1.289)" fill="#28e808"/>
        <rect id="Rectangle_816-28" data-name="Rectangle 816" width="1" height="9.023" transform="translate(2)" fill="#28e808"/>
      </g>
      <g id="Group_1862" data-name="Group 1862" transform="translate(41 81.21)">
        <rect id="Rectangle_815-29" data-name="Rectangle 815" width="5" height="5.156" transform="translate(0 2.578)" fill="#d62d2d"/>
        <rect id="Rectangle_816-29" data-name="Rectangle 816" width="1" height="10.312" transform="translate(2)" fill="#d62d2d"/>
      </g>
      <g id="Group_1864" data-name="Group 1864" transform="translate(27 78.632)">
        <rect id="Rectangle_815-30" data-name="Rectangle 815" width="5" height="5.156" transform="translate(0 3.867)" fill="#d62d2d"/>
        <rect id="Rectangle_816-30" data-name="Rectangle 816" width="1" height="11.602" transform="translate(2)" fill="#d62d2d"/>
      </g>
      <g id="Group_1866" data-name="Group 1866" transform="translate(13 67.031)">
        <rect id="Rectangle_815-31" data-name="Rectangle 815" width="5" height="3.867" transform="translate(0 16.758)" fill="#d62d2d"/>
        <rect id="Rectangle_816-31" data-name="Rectangle 816" width="1" height="32.226" transform="translate(2)" fill="#d62d2d"/>
      </g>
      <g id="Group_1868" data-name="Group 1868" transform="translate(0 83.789)">
        <rect id="Rectangle_815-32" data-name="Rectangle 815" width="5" height="14.18" transform="translate(0 2.578)" fill="#d62d2d"/>
        <rect id="Rectangle_816-32" data-name="Rectangle 816" width="1" height="19.336" transform="translate(2)" fill="#d62d2d"/>
      </g>
      <g id="Group_1826" data-name="Group 1826" transform="translate(290 146.952)">
        <rect id="Rectangle_815-33" data-name="Rectangle 815" width="5" height="2.578" transform="translate(0 1.289)" fill="#28e808"/>
        <rect id="Rectangle_816-33" data-name="Rectangle 816" width="1" height="12.891" transform="translate(2)" fill="#28e808"/>
      </g>
      <g id="Group_1831" data-name="Group 1831" transform="translate(255 78.632)">
        <rect id="Rectangle_815-34" data-name="Rectangle 815" width="5" height="1.289" transform="translate(0 2.578)" fill="#28e808"/>
        <rect id="Rectangle_816-34" data-name="Rectangle 816" width="1" height="16.758" transform="translate(2)" fill="#28e808"/>
      </g>
      <g id="Group_1836" data-name="Group 1836" transform="translate(220 73.476)">
        <rect id="Rectangle_815-35" data-name="Rectangle 815" width="5" height="1.289" transform="translate(0 5.156)" fill="#28e808"/>
        <rect id="Rectangle_816-35" data-name="Rectangle 816" width="1" height="16.758" transform="translate(2)" fill="#28e808"/>
      </g>
      <g id="Group_1832" data-name="Group 1832" transform="translate(248 81.21)">
        <rect id="Rectangle_815-36" data-name="Rectangle 815" width="5" height="9.023" transform="translate(0 1.289)" fill="#28e808"/>
        <rect id="Rectangle_816-36" data-name="Rectangle 816" width="1" height="11.602" transform="translate(2 0)" fill="#28e808"/>
      </g>
      <g id="Group_1834" data-name="Group 1834" transform="translate(234 74.765)">
        <rect id="Rectangle_815-37" data-name="Rectangle 815" width="5" height="15.469" transform="translate(0 1.289)" fill="#28e808"/>
        <rect id="Rectangle_816-37" data-name="Rectangle 816" width="1" height="19.336" transform="translate(2 0)" fill="#28e808"/>
      </g>
      <g id="Group_1837" data-name="Group 1837" transform="translate(213 77.343)">
        <rect id="Rectangle_815-38" data-name="Rectangle 815" width="5" height="21.914" transform="translate(0 1.289)" fill="#28e808"/>
        <rect id="Rectangle_816-38" data-name="Rectangle 816" width="1" height="25.781" transform="translate(2)" fill="#28e808"/>
      </g>
      <g id="Group_1838" data-name="Group 1838" transform="translate(207 99.257)">
        <rect id="Rectangle_815-39" data-name="Rectangle 815" width="5" height="10.312" transform="translate(0 1.289)" fill="#28e808"/>
        <rect id="Rectangle_816-39" data-name="Rectangle 816" width="1" height="15.469" transform="translate(2)" fill="#28e808"/>
      </g>
      <g id="Group_1848" data-name="Group 1848" transform="translate(138 32.226)">
        <rect id="Rectangle_815-40" data-name="Rectangle 815" width="5" height="7.734" transform="translate(0 21.914)" fill="#28e808"/>
        <rect id="Rectangle_816-40" data-name="Rectangle 816" width="1" height="42.539" transform="translate(2)" fill="#28e808"/>
      </g>
      <g id="Group_1849" data-name="Group 1849" transform="translate(131 29.648)">
        <rect id="Rectangle_815-41" data-name="Rectangle 815" width="5" height="12.891" transform="translate(0 32.226)" fill="#28e808"/>
        <rect id="Rectangle_816-41" data-name="Rectangle 816" width="1" height="48.984" transform="translate(2)" fill="#28e808"/>
      </g>
      <g id="Group_1840" data-name="Group 1840" transform="translate(193 99.257)">
        <rect id="Rectangle_815-42" data-name="Rectangle 815" width="5" height="15.469" transform="translate(0 1.289)" fill="#28e808"/>
        <rect id="Rectangle_816-42" data-name="Rectangle 816" width="1" height="23.203" transform="translate(2 0)" fill="#28e808"/>
      </g>
      <g id="Group_1843" data-name="Group 1843" transform="translate(172 97.968)">
        <rect id="Rectangle_815-43" data-name="Rectangle 815" width="5" height="19.336" transform="translate(0 1.289)" fill="#28e808"/>
        <rect id="Rectangle_816-43" data-name="Rectangle 816" width="1" height="28.359" transform="translate(2)" fill="#28e808"/>
      </g>
      <g id="Group_1846" data-name="Group 1846" transform="translate(151 79.921)">
        <rect id="Rectangle_815-44" data-name="Rectangle 815" width="5" height="14.18" transform="translate(0 6.445)" fill="#28e808"/>
        <rect id="Rectangle_816-44" data-name="Rectangle 816" width="1" height="28.359" transform="translate(2)" fill="#28e808"/>
      </g>
      <g id="Group_1841" data-name="Group 1841" transform="translate(186 112.148)">
        <rect id="Rectangle_815-45" data-name="Rectangle 815" width="5" height="23.203" transform="translate(0 3.867)" fill="#28e808"/>
        <rect id="Rectangle_816-45" data-name="Rectangle 816" width="1" height="32.226" transform="translate(2)" fill="#28e808"/>
      </g>
      <g id="Group_1829" data-name="Group 1829" transform="translate(268 99.257)">
        <rect id="Rectangle_815-46" data-name="Rectangle 815" width="5" height="6.445" transform="translate(0 5.156)" fill="#28e808"/>
        <rect id="Rectangle_816-46" data-name="Rectangle 816" width="1" height="12.891" transform="translate(2)" fill="#28e808"/>
      </g>
    </g>
    <path id="Path_2157" data-name="Path 2157" d="M4105.341,2765.345s31.657-4.2,49.408,3.814,44.675,25.171,52.367,28.222,41.125,1.526,52.663,8.01,19.822,8.008,27.811,8.771,28.106,12.585,39.349,17.543,29.882,18.688,53.255,23.646a99.325,99.325,0,0,0,42.012,0" transform="translate(-4105.341 -2383.356)" fill="none" stroke="#e88a8a" stroke-width="1"/>
    <path id="Path_2158" data-name="Path 2158" d="M4105.932,2825.595s26.923,23.264,31.361,30.51,28.106,32.8,32.544,32.036,12.722-12.585,20.119-13.348,15.681-18.688,21.894-24.408,15.385-25.171,18.639-29.366,13.609-9.535,23.373-14.111,19.823-.763,28.7,2.288,13.314,8.009,22.189,9.153,18.639,3.432,24.556-1.907,6.509-6.865,15.089-16.018,25.444-12.585,31.953-17.543,8.58-5.721,15.385-11.06,12.425-12.2,19.526-11.441a19.3,19.3,0,0,1,10.947,4.577" transform="translate(-4105.341 -2384.491)" fill="none" stroke="#e2c717" stroke-width="1"/>
    <path id="Path_2159" data-name="Path 2159" d="M4105.932,2778.35s5.872,6.865,9.271,4.577,5.253-8.772,10.508-11.823,16.07-11.06,23.488,0,19.161,43.477,27.2,46.909,33.686,10.679,42.03,4.2,14.217-7.246,21.325-17.543,10.817-18.688,18.852-12.967,27.505,23.646,34,32.036,9.271,19.069,16.07,25.552,15.761,28.6,21.324,33.562,10.2,8.772,15.762,8.39,18.852.763,24.106-8.39,10.507-20.976,16.379-30.51,14.525-28.222,19.161-28.6,16.38-1.526,16.38-1.526" transform="translate(-4105.341 -2383.012)" fill="none" stroke="#63a6f2" stroke-width="1"/>
    <line id="Line_11" data-name="Line 11" x2="338" transform="translate(0 433)" fill="none" stroke="#28e808" stroke-width="0.5"/>
    <text id="_1.15892" data-name="1.15892" transform="translate(338 322)" fill="#101019" font-size="8" font-family="Poppins-Regular, Poppins" letter-spacing="0.01em"><tspan x="0" y="0">1.15892</tspan></text>
    <text id="_1.15750" data-name="1.15750" transform="translate(338 367)" fill="#101019" font-size="8" font-family="Poppins-Regular, Poppins" letter-spacing="0.01em"><tspan x="0" y="0">1.15750</tspan></text>
    <text id="_1.15607" data-name="1.15607" transform="translate(338 412)" fill="#101019" font-size="8" font-family="Poppins-Regular, Poppins" letter-spacing="0.01em"><tspan x="0" y="0">1.15607</tspan></text>
    <text id="_1.15465" data-name="1.15465" transform="translate(338 457)" fill="#101019" font-size="8" font-family="Poppins-Regular, Poppins" letter-spacing="0.01em"><tspan x="0" y="0">1.15465</tspan></text>
    <text id="_1.15322" data-name="1.15322" transform="translate(338 502)" fill="#101019" font-size="8" font-family="Poppins-Regular, Poppins" letter-spacing="0.01em"><tspan x="0" y="0">1.15322</tspan></text>
    <text id="_1.15180" data-name="1.15180" transform="translate(338 547)" fill="#101019" font-size="8" font-family="Poppins-Regular, Poppins" letter-spacing="0.01em"><tspan x="0" y="0">1.15180</tspan></text>
    <text id="_7:00_PM" data-name="7:00 PM" transform="translate(29 558)" fill="#101019" font-size="8" font-family="Poppins-Regular, Poppins" letter-spacing="0.01em"><tspan x="0" y="0">7:00 PM</tspan></text>
    <text id="_5:00_AM" data-name="5:00 AM" transform="translate(92 558)" fill="#101019" font-size="8" font-family="Poppins-Regular, Poppins" letter-spacing="0.01em"><tspan x="0" y="0">5:00 AM</tspan></text>
    <text id="_3:00_AM" data-name="3:00 AM" transform="translate(156 558)" fill="#101019" font-size="8" font-family="Poppins-Regular, Poppins" letter-spacing="0.01em"><tspan x="0" y="0">3:00 AM</tspan></text>
    <text id="_1:00_AM" data-name="1:00 AM" transform="translate(220 558)" fill="#101019" font-size="8" font-family="Poppins-Regular, Poppins" letter-spacing="0.01em"><tspan x="0" y="0">1:00 AM</tspan></text>
    <rect id="Rectangle_826" data-name="Rectangle 826" width="32" height="14" transform="translate(333 426)" fill="#28e808"/>
    <text id="_1.15632" data-name="1.15632" transform="translate(336 436)" fill="#fff" font-size="8" font-family="Poppins-Regular, Poppins" letter-spacing="0.01em"><tspan x="0" y="0">1.15632</tspan></text>
  </g>
</svg>
