<svg xmlns="http://www.w3.org/2000/svg" xmlns:xlink="http://www.w3.org/1999/xlink" width="74.213" height="36.717" viewBox="0 0 74.213 36.717">
  <defs>
    <linearGradient id="linear-gradient" x1="0.5" x2="0.5" y2="1" gradientUnits="objectBoundingBox">
      <stop offset="0" stop-color="#28e808" stop-opacity="0.412"/>
      <stop offset="1" stop-color="#28e808" stop-opacity="0"/>
    </linearGradient>
  </defs>
  <g id="chart" transform="translate(-174.394 -170.362)">
    <path id="Path_2479" data-name="Path 2479" d="M7980.522,5143.963l3.333-1.036a11.014,11.014,0,0,0,3.076,3.328c4.809-1.939,10.371-2.732,18.1-21.339,2.356,3.174,2.356,4.85,3.771,4.409s2.733-2.116,4.054-.529,3.959,3.7,6.881,2.293,4.62.792,5.468,2.469,4.526,6.084,7.071,5.291,4.431-1.675,6.033,1.676,3.677,8.113,3.677,8.113a21.428,21.428,0,0,1,12.538-10.582c-.04,17.13,0,22.861,0,22.861h-74Z" transform="translate(-7806.022 -4953.836)" fill="url(#linear-gradient)"/>
    <path id="Path_2476" data-name="Path 2476" d="M7980.522,5144.45l3.333-1.063a11.214,11.214,0,0,0,3.076,3.414c4.809-1.989,10.371-2.8,18.1-21.885,2.356,3.255,2.356,4.974,3.771,4.521s2.733-2.17,4.054-.542,3.959,3.8,6.881,2.352,4.62.813,5.468,2.532,4.526,6.24,7.071,5.426,4.431-1.718,6.033,1.718,3.677,8.32,3.677,8.32a21.656,21.656,0,0,1,12.538-10.853" transform="translate(-7806.022 -4953.836)" fill="none" stroke="#28e808" stroke-width="0.7"/>
  </g>
</svg>
