<svg xmlns="http://www.w3.org/2000/svg" width="16.999" height="16.999" viewBox="0 0 16.999 16.999">
  <g id="chat-bubble" transform="translate(-3 -3)" fill="#f0e8fb">
    <path d="M 3.500001668930054 18.79192161560059 L 3.500001668930054 4.699901580810547 C 3.500001668930054 4.038271903991699 4.038271903991699 3.500001668930054 4.699901580810547 3.500001668930054 L 18.29912185668945 3.500001668930054 C 18.96075248718262 3.500001668930054 19.49902153015137 4.038271903991699 19.49902153015137 4.699901580810547 L 19.49902153015137 14.89931201934814 C 19.49902153015137 15.56094169616699 18.96075248718262 16.09922218322754 18.29912185668945 16.09922218322754 L 6.399801731109619 16.09922218322754 L 6.192691802978516 16.09922218322754 L 6.046251773834229 16.24567222595215 L 3.500001668930054 18.79192161560059 Z" stroke="none"/>
    <path d="M 4.699901580810547 4.000001907348633 C 4.313972473144531 4.000001907348633 4.000001907348633 4.313972473144531 4.000001907348633 4.699901580810547 L 4.000001907348633 17.58480072021484 L 5.985591888427734 15.59922218322754 L 18.29912185668945 15.59922218322754 C 18.68505096435547 15.59922218322754 18.99902153015137 15.28524208068848 18.99902153015137 14.89931201934814 L 18.99902153015137 4.699901580810547 C 18.99902153015137 4.313972473144531 18.68505096435547 4.000001907348633 18.29912185668945 4.000001907348633 L 4.699901580810547 4.000001907348633 M 4.699901580810547 3.000001907348633 L 18.29912185668945 3.000001907348633 C 19.23407173156738 3.000001907348633 19.99902153015137 3.764951705932617 19.99902153015137 4.699901580810547 L 19.99902153015137 14.89931201934814 C 19.99902153015137 15.83426189422607 19.23407173156738 16.59922218322754 18.29912185668945 16.59922218322754 L 6.399801254272461 16.59922218322754 L 3.000001907348633 19.99902153015137 L 3.000001907348633 4.699901580810547 C 3.000001907348633 3.764951705932617 3.764951705932617 3.000001907348633 4.699901580810547 3.000001907348633 Z" stroke="none" fill="#6f21d9"/>
  </g>
</svg>
