<svg xmlns="http://www.w3.org/2000/svg" width="288.967" height="298.793" viewBox="0 0 288.967 298.793">
  <g id="copy" transform="translate(0 -0.001)">
    <g id="Group_2768" data-name="Group 2768">
      <path id="Path_6347" data-name="Path 6347" d="M177.237,58.617c-.021-3.195-.222-6.383.7-9.533a28.308,28.308,0,0,1,5.725-10.752c5.582-6.474,12.776-9.163,21.147-8.764a24.566,24.566,0,0,1,13.709,4.956,8.054,8.054,0,0,0,.772.455A27.02,27.02,0,0,1,228,47.6a29.153,29.153,0,0,1,1.177,10.506,3.211,3.211,0,0,0-.2.6,25.906,25.906,0,0,1-30.657,22.273,25.387,25.387,0,0,1-18.184-13.54,35.716,35.716,0,0,1-2.9-8.824m4.889-2.655c-.422,10.725,9.557,21.054,21.313,20.926a21.271,21.271,0,0,0-.321-42.541c-11.055.033-21.544,9.655-20.992,21.615" transform="translate(15.034 2.505)" fill="#fcb547"/>
      <path id="Path_6348" data-name="Path 6348" d="M161.936,9.394A26.345,26.345,0,0,1,165,17.1a46.85,46.85,0,0,1,.456,5.79c-.02.2-.04.395-.06.591-.079.1-.216.192-.228.3a19.286,19.286,0,0,1-4.633,10.65c-5.335,6.229-12.121,8.806-20.155,7.261-8.2-1.576-13.581-6.6-16.23-14.54a14.16,14.16,0,0,0-.853-2.969c-.041-.08-.082-.162-.123-.242.016-.1.031-.207.048-.31.261-.144.29-.279-.014-.4l-.062-1.9a22.227,22.227,0,0,1,1.4-7.843c.181-.417.355-.837.532-1.256a23.609,23.609,0,0,1,5.9-7.491,21.087,21.087,0,0,1,30.233,3.744c.232.309.482.6.723.906M144.466,3.909a17.312,17.312,0,0,0-17.322,17.06A17.079,17.079,0,0,0,144.351,38.4c10.092-.086,17.2-7.4,17.3-17.316A17.105,17.105,0,0,0,144.466,3.909" transform="translate(10.448 0)" fill="#fcb547"/>
      <path id="Path_6349" data-name="Path 6349" d="M97.326,18.966A16.235,16.235,0,0,1,103.8,33.759a2.305,2.305,0,0,0-.2.468,15.589,15.589,0,0,1-29.166,4.758,45.716,45.716,0,0,1-1.75-4.715,21.769,21.769,0,0,1,.3-6.2c1.722-6.01,5.508-9.99,11.616-11.543a15.243,15.243,0,0,1,12.725,2.439M88.12,44.426c6.863.41,12.861-5.8,12.928-12.432a12.777,12.777,0,1,0-25.55-.345c.037,7.163,5.84,12.926,12.622,12.777" transform="translate(6.16 1.361)" fill="#fcb547"/>
      <path id="Path_6350" data-name="Path 6350" d="M177.24,56.382a35.641,35.641,0,0,0,2.9,8.824,25.389,25.389,0,0,0,18.183,13.541,25.908,25.908,0,0,0,30.658-22.273,3.222,3.222,0,0,1,.2-.6,25.391,25.391,0,0,1-6.339,17.6c-.333.395-.679.779-1.02,1.168-1.529,1.569-3.443,2.664-5.05,4.138l-2.4,1.246c-1.538.525-3.064,1.09-4.617,1.568a24.507,24.507,0,0,1-8.421.773,24.837,24.837,0,0,1-14.664-5.734,26.361,26.361,0,0,1-9.159-15.257,15.906,15.906,0,0,1-.271-4.986" transform="translate(15.031 4.74)" fill="#d38d24"/>
      <path id="Path_6351" data-name="Path 6351" d="M123.292,22.349a14.1,14.1,0,0,1,.853,2.969c2.649,7.943,8.031,12.964,16.23,14.54,8.034,1.544,14.82-1.032,20.156-7.261a19.3,19.3,0,0,0,4.632-10.65c.012-.106.15-.2.228-.3q.023,1.02.047,2.041a29.268,29.268,0,0,1-2,6.932c-3.213,6.557-8.371,10.675-15.547,11.958a20.221,20.221,0,0,1-17.248-4.6A21.837,21.837,0,0,1,123.6,26.416a10.591,10.591,0,0,1-.307-4.067" transform="translate(10.454 1.837)" fill="#d38d24"/>
      <path id="Path_6352" data-name="Path 6352" d="M72.677,32.884A45.616,45.616,0,0,0,74.426,37.6a15.589,15.589,0,0,0,29.167-4.758,2.332,2.332,0,0,1,.2-.468,14.988,14.988,0,0,1-7.731,13.435c-5.547,3.238-11.193,3.046-16.671-.432-1.161-.737-2.07-1.76-3.141-2.6a9.886,9.886,0,0,0-1.582-2.339A23.311,23.311,0,0,1,72.8,35.393a20.061,20.061,0,0,1-.126-2.509" transform="translate(6.166 2.747)" fill="#d38d24"/>
      <path id="Path_6353" data-name="Path 6353" d="M75.179,39.808a9.875,9.875,0,0,1,1.582,2.339,75.123,75.123,0,0,0-7.5,4.767,1.617,1.617,0,0,1-2.593-1.108c-.074-.415.182-.618.491-.817q4.013-2.584,8.018-5.181" transform="translate(5.655 3.377)" fill="#ababab"/>
      <path id="Path_6354" data-name="Path 6354" d="M115.121,23.807c.035.6-.381.706-.74.827-2.7.9-5.416,1.78-8.114,2.7-1.436.488-1.06-.884-1.456-1.416-.433-.58-.119-.961.566-1.178,2.51-.8,5.005-1.644,7.506-2.47,1.444-.477,2.255.107,2.237,1.538" transform="translate(8.876 1.875)" fill="#ababab"/>
      <path id="Path_6355" data-name="Path 6355" d="M63.082,48.015c.832.175,1,1.011,1.468,1.534.348.391-.128.72-.411.938-2.285,1.752-4.65,3.4-6.841,5.275-.7.6-1.153-.018-1.46-.493-.3-.458-1.143-.956-.3-1.618,2.3-1.8,4.624-3.568,6.946-5.341a3.413,3.413,0,0,1,.594-.3" transform="translate(4.681 4.074)" fill="#ababab"/>
      <path id="Path_6356" data-name="Path 6356" d="M174.488,26.434c.2.1.4.172.587.282a70.2,70.2,0,0,1,7,4.659c.54.419.913.817.315,1.476-.516.57-.766,1.483-1.893.652a54.047,54.047,0,0,0-7.046-4.6c-.381-.2-.537-.421-.293-.807.375-.6.462-1.428,1.326-1.661" transform="translate(14.682 2.243)" fill="#ababab"/>
      <path id="Path_6357" data-name="Path 6357" d="M217.358,92.78c-.53.107-.686-.285-.814-.651-.883-2.533-1.739-5.074-2.631-7.6-.379-1.074.527-1,1.054-1.177s1.2-.744,1.557.33c.844,2.544,1.868,5.027,2.542,7.629.206.8-.491,1.393-1.709,1.473" transform="translate(18.141 7.045)" fill="#ababab"/>
      <path id="Path_6358" data-name="Path 6358" d="M162.14,23.735l-.046-2.04c.02-.2.04-.394.06-.591a44.693,44.693,0,0,1,7.609,2.823c1.224.5.29,1.288.131,1.945-.187.773-.679.77-1.286.46a59.564,59.564,0,0,0-6.469-2.6" transform="translate(13.752 1.791)" fill="#ababab"/>
      <path id="Path_6359" data-name="Path 6359" d="M123.55,19.665q.031.949.061,1.9c.005.135.01.269.015.4-.016.1-.033.207-.048.31-1.262.271-2.534.5-3.779.83-.715.192-1.05.061-1.146-.7-.09-.72-.7-1.608.468-1.922a15.283,15.283,0,0,1,4.428-.815" transform="translate(10.047 1.668)" fill="#ababab"/>
      <path id="Path_6360" data-name="Path 6360" d="M211.463,78.227l2.4-1.246c.838,1.74.811,1.676-.8,2.322-1.193.477-1.245-.458-1.6-1.075" transform="translate(17.941 6.531)" fill="#ababab"/>
      <path id="Path_6361" data-name="Path 6361" d="M144.154,3.6a17.106,17.106,0,0,1,17.188,17.173c-.1,9.918-7.211,17.232-17.3,17.317a17.08,17.08,0,0,1-17.207-17.429A17.312,17.312,0,0,1,144.154,3.6m-.325,29.062c1.116.192,1.62-.263,1.507-1.423a1.548,1.548,0,0,1,1.1-1.916,5.021,5.021,0,0,0,3.688-4.841,5.159,5.159,0,0,0-3.274-5.022c-1.175-.554-2.377-1.054-3.525-1.658-.664-.349-1.281-.917-1.057-1.755a1.793,1.793,0,0,1,1.808-1.238,7.662,7.662,0,0,1,3.3.574c.437.172.878.42,1.28-.1,1.19-1.53.745-2.966-1.094-3.477a5.88,5.88,0,0,0-.888-.177c-.824-.1-1.251-.488-1.135-1.37.163-1.229-.572-1.427-1.585-1.441-1.04-.014-1.613.37-1.466,1.44s-.384,1.55-1.313,1.885a4.564,4.564,0,0,0-2.85,2.838c-.907,2.493-.031,4.74,2.481,6.116,1.249.685,2.595,1.192,3.871,1.832a1.806,1.806,0,0,1,1.154,1.982c-.154.987-.922,1.316-1.747,1.5a6.572,6.572,0,0,1-3.559-.477c-1.938-.649-1.888-.65-2.482,1.3-.312,1.019-.01,1.581.954,1.869a13.317,13.317,0,0,0,2,.55c1,.136,1.463.648,1.381,1.631-.092,1.079.361,1.551,1.454,1.378" transform="translate(10.761 0.306)" fill="#fecf73"/>
      <path id="Path_6362" data-name="Path 6362" d="M123.218,21.817c0-.135-.01-.27-.014-.4.3.125.277.259.014.4" transform="translate(10.453 1.817)" fill="#d38d24"/>
      <path id="Path_6363" data-name="Path 6363" d="M224.165,55.072a21.29,21.29,0,0,1-21.111,21.436c-11.749.13-21.729-10.2-21.306-20.927-.553-11.955,9.937-21.578,20.992-21.61a21.349,21.349,0,0,1,21.426,21.1" transform="translate(15.418 2.882)" fill="#fecf73"/>
      <path id="Path_6364" data-name="Path 6364" d="M142.961,32.256c-1.092.174-1.546-.3-1.454-1.378.082-.983-.378-1.495-1.381-1.631a13.317,13.317,0,0,1-2-.55c-.963-.289-1.266-.851-.954-1.869.594-1.945.545-1.944,2.482-1.3a6.572,6.572,0,0,0,3.559.477c.824-.186,1.593-.514,1.747-1.5a1.806,1.806,0,0,0-1.154-1.982c-1.276-.64-2.622-1.148-3.871-1.832-2.512-1.377-3.388-3.623-2.481-6.116a4.564,4.564,0,0,1,2.85-2.838c.929-.335,1.462-.8,1.313-1.885s.425-1.454,1.466-1.44c1.013.014,1.748.212,1.585,1.441-.116.882.31,1.275,1.135,1.37a5.88,5.88,0,0,1,.888.177c1.839.511,2.284,1.947,1.094,3.477-.4.517-.843.27-1.28.1a7.662,7.662,0,0,0-3.3-.574,1.793,1.793,0,0,0-1.808,1.238c-.225.839.393,1.406,1.057,1.755,1.148.6,2.35,1.1,3.525,1.658a5.159,5.159,0,0,1,3.274,5.022,5.021,5.021,0,0,1-3.688,4.841,1.548,1.548,0,0,0-1.1,1.916c.113,1.161-.391,1.615-1.507,1.423" transform="translate(11.628 0.714)" fill="#fefdfc"/>
      <path id="Path_6365" data-name="Path 6365" d="M100.824,31.763c-.065,6.639-6.064,12.845-12.931,12.432-6.78.152-12.584-5.609-12.617-12.769a12.776,12.776,0,1,1,25.548.336" transform="translate(6.387 1.588)" fill="#fecf73"/>
      <path id="Path_6366" data-name="Path 6366" d="M276.94,252.024a70.579,70.579,0,0,1-11.413,23.107,53.728,53.728,0,0,1-15.969,13.908c-.629.369-.77-.206-1.02-.423q-7.323-6.428-14.613-12.877c-4.47-3.938-8.907-7.909-13.419-11.792a13.994,13.994,0,0,0-6.52-2.864c-7.767-1.584-14.385-5.544-20.807-9.948-7.626-5.218-14.873-10.946-22.011-16.815-5.229-4.285-10.306-8.744-15.426-13.159a.9.9,0,0,1-.25-1.237c.727-1.627.282-2.8-1.085-4.036-4.361-4-8.549-8.2-12.866-12.248-1.215-1.139-2.517-2.159-2.56-3.96-.065-2.311,1.248-3.895,3.1-5.034a11.143,11.143,0,0,1,6.487-1.389c.108.108.206.293.347.336a19.748,19.748,0,0,1,4.632,1.681,1.182,1.182,0,0,0,1.53-.141c1.779.8,3.569,1.595,5.337,2.441.542.271.857.26,1.009-.369,2.332-9.08,4.491-18.214,7.084-27.219a12.426,12.426,0,0,0-.966-9.785c-5.739-11.38-11.217-22.9-16.273-34.606a21.4,21.4,0,0,1-2.2-9.124,3.087,3.087,0,0,1,1.584-2.918H152.2a67.312,67.312,0,0,1,11.434,9.286,175.76,175.76,0,0,0,26.058,20.71q19.169,12.416,37.709,25.787c.835.607,1.649,1.258,2.5,1.866a3.394,3.394,0,0,0,4.893-.358,14.522,14.522,0,0,0,2.9-4.437,102.749,102.749,0,0,0,5.186-15.329,58.631,58.631,0,0,1,4.99-13.04,24.636,24.636,0,0,1,2.68-4.122,5.314,5.314,0,0,1,2.734-1.888c2.842-.705,4.979.944,5.164,4.025a27.064,27.064,0,0,1-1.454,9.568,100.782,100.782,0,0,0-3.168,17.195,89.455,89.455,0,0,0-.6,16.077,40.009,40.009,0,0,0,2.191,11.282,54.8,54.8,0,0,1,2.875,25.429c-.293,2.539-.456,5.088-.673,7.626a35.08,35.08,0,0,0,.38,6.845,12.941,12.941,0,0,0,4.925,8.1c1.649,1.313,3.211,2.745,4.838,4.09,1.747,1.465,3.526,2.886,5.283,4.329,1.117.9,2.181,1.855,3.33,2.7,1.063.77.857,1.725.564,2.723" transform="translate(11.791 9.634)" fill="#643f38"/>
      <path id="Path_6367" data-name="Path 6367" d="M163.339,172.6c-1.921-1.7-3.719-3.245-5.469-4.844-2.364-2.16-4.889-4.139-7.1-6.469a9.09,9.09,0,0,1-1.981-3.585c.371-.266.677-.021.979.084,4.856,1.684,9.705,3.388,14.569,5.047.745.254,1.006.544.814,1.368-.635,2.728-1.187,5.475-1.808,8.4" transform="translate(12.623 13.37)" fill="#68423b"/>
      <path id="Path_6368" data-name="Path 6368" d="M146.968,178.947l9.165-.675c1.035-.077,2.072-.14,3.1-.239.524-.05.721.117.6.647-.6,2.518-1.2,5.037-1.826,7.675L146.9,179.247c.023-.1.047-.2.069-.3" transform="translate(12.463 15.104)" fill="#68423b"/>
      <path id="Path_6369" data-name="Path 6369" d="M154.328,188.9a1.188,1.188,0,0,1-1.529.15,19.9,19.9,0,0,0-4.632-1.69c-.137-.04-.234-.218-.349-.331,2.431-.284,4.508.663,6.51,1.871" transform="translate(12.541 15.864)" fill="#68423b"/>
      <path id="Path_6370" data-name="Path 6370" d="M143.761,237.328v-3.119c.085-.082.219-.153.245-.252,1.829-6.887,3.632-13.781,5.474-20.664q14.774-55.2,29.568-110.39a11.875,11.875,0,0,1,14.888-8.577q25.706,6.859,51.393,13.783c7.217,1.944,10.8,8.194,8.877,15.369q-6.934,25.909-13.864,51.82-10.371,38.739-20.756,77.472a11.844,11.844,0,0,1-14.684,8.554q-26.025-6.921-52.024-13.938a11.706,11.706,0,0,1-8.719-9.045c-.085-.336.069-.814-.4-1.012" transform="translate(12.197 7.965)" fill="#ababab"/>
      <path id="Path_6371" data-name="Path 6371" d="M254.666,121.756c-3.884,14.407-7.659,28.835-11.684,43.2-2.69,9.612-5.066,19.31-7.616,28.965-1.345,5.088-2.766,10.165-4.155,15.242a3.86,3.86,0,0,1-.054.51q-5.5,20.536-11.011,41.05c-1.909,7.03-8.212,10.588-15.253,8.7q-5.061-1.351-10.132-2.712-20.682-5.549-41.376-11.12a11.725,11.725,0,0,1-8.733-9.015c-.108-.391.043-.89-.412-1.172v-2.853c.087-.087.206-.174.239-.271q3.6-13.571,7.2-27.143c1.4-5.251,2.842-10.48,4.263-15.73.043-.25.076-.51.141-.749q7.03-26.248,14.049-52.474c3.146-11.716,6.249-23.454,9.427-35.16a11.726,11.726,0,0,1,8.939-8.668c.477-.13,1.052.054,1.432-.4h2.343c.857.228,1.714.456,2.571.694q25.45,6.818,50.912,13.626c7.236,1.942,10.859,8.223,8.907,15.481" transform="translate(12.238 7.802)" fill="#f6f6f6"/>
      <path id="Path_6372" data-name="Path 6372" d="M250.347,118.882c-1.193,4.6-2.5,9.178-3.754,13.767-1.595,5.869-3.309,11.716-4.741,17.629-.9,3.678-1.844,7.344-2.907,10.979-1.15,4.426-2.267,8.863-3.45,13.289q-10.089,37.655-20.189,75.331c-1.128,4.177-4.329,6.064-8.494,4.958q-26.573-7.111-53.125-14.255c-4.253-1.139-6.14-4.372-5.023-8.581q5.3-19.9,10.653-39.8,5.256-19.641,10.534-39.282a5.638,5.638,0,0,1,.228-.6c1.063-4.166,2.094-8.353,3.211-12.519,3.4-12.671,6.856-25.331,10.219-38.013.738-2.8,2.224-4.719,5.055-5.5.1-.022.163-.163.249-.25h2.072c2.6.987,5.348,1.508,8.028,2.256.89.239,1.128.542,1.063,1.465a4.441,4.441,0,0,0,3.374,4.773q14.06,3.824,28.13,7.551a4.529,4.529,0,0,0,5.576-2.625c.3-.662.586-.792,1.258-.6,2.452.694,4.914,1.313,7.366,2a6.386,6.386,0,0,1,4.665,8.028" transform="translate(12.586 8.148)" fill="#ededed"/>
      <path id="Path_6373" data-name="Path 6373" d="M218.4,104.151l-9.055-2.427a.606.606,0,0,0-.741.429h0a.6.6,0,0,0,.427.741l9.055,2.427a.606.606,0,0,0,.314-1.171" transform="translate(17.697 8.629)" fill="#ababab"/>
      <path id="Path_6374" data-name="Path 6374" d="M222.616,104.725l-.011,0a1.22,1.22,0,0,0-.631,2.357l.011,0a1.22,1.22,0,1,0,.631-2.356" transform="translate(18.756 8.881)" fill="#ababab"/>
      <path id="Path_6375" data-name="Path 6375" d="M194.731,151.229h3.878c.127.318.42.232.66.26a21.053,21.053,0,0,1,7,2.1c9.061,4.549,13.716,15.808,10.256,24.807-2.1-.746-4.288-1.19-6.416-1.831-1.957-.59-4.058-.733-5.856-1.831q2.319-1.385,4.637-2.772c1.836-1.094,2.379-2.754,1.407-4.309-.915-1.466-2.778-1.76-4.508-.743-3.94,2.316-7.9,4.6-11.823,6.943-.79.473-1.146.365-1.558-.427-.733-1.41-1.564-2.77-2.365-4.145-.895-1.537-1.966-2.128-3.334-1.857-1.41.279-2.132,1.151-2.426,2.937-2.617-.335-5.06-1.4-7.658-1.812a4.6,4.6,0,0,1,.054-.767,20.47,20.47,0,0,1,14.152-15.507c1.282-.434,2.682-.4,3.9-1.047" transform="translate(14.985 12.831)" fill="#26888e"/>
      <path id="Path_6377" data-name="Path 6377" d="M203.653,173.556c-3.435,1.742-6.689,3.8-10.03,5.7-2.557,1.46-3.862,1.1-5.355-1.479-1.288-2.229-2.569-4.463-3.866-6.688a5.1,5.1,0,0,1-.717-1.913c.3-1.785,1.015-2.657,2.426-2.936,1.368-.271,2.439.32,3.334,1.857.8,1.374,1.632,2.735,2.365,4.145.412.792.768.9,1.558.427,3.921-2.349,7.882-4.628,11.823-6.943,1.729-1.016,3.593-.723,4.509.742.971,1.556.427,3.217-1.408,4.31q-2.319,1.383-4.637,2.772" transform="translate(15.584 14.01)" fill="#fcfdfd"/>
      <rect id="Rectangle_1232" data-name="Rectangle 1232" width="23.165" height="29.154" transform="translate(195.509 191.341) rotate(-74.999)" fill="#fff"/>
      <g id="Group_2770" data-name="Group 2770">
        <path id="Path_6376" data-name="Path 6376" d="M176.665,167.195c2.6.411,5.042,1.476,7.659,1.812a5.058,5.058,0,0,0,.717,1.911c1.3,2.225,2.578,4.459,3.866,6.688,1.492,2.583,2.8,2.939,5.355,1.48,3.34-1.906,6.6-3.963,10.029-5.705,1.8,1.1,3.9,1.241,5.856,1.831,2.128.641,4.316,1.086,6.417,1.831a19.323,19.323,0,0,1-7.017,10,20.642,20.642,0,0,1-32.678-11.49,10.5,10.5,0,0,0-.713-2.931v-4.137c.535-.287.146-.937.508-1.293" transform="translate(14.946 14.186)" fill="#2dbc0f"/>
        <path id="Path_6378" data-name="Path 6378" d="M217.659,174.441a20.65,20.65,0,0,1-40.313.553,9.886,9.886,0,0,0-.716-2.94v-3.873c.575-.77.358-1.714.6-2.56,2.267-8.191,7.42-13.485,15.719-15.611a15.929,15.929,0,0,0,3.341-.705h2.061c.271.423.705.239,1.063.271a20.7,20.7,0,0,1,18.247,24.865" transform="translate(14.986 12.667)" fill="#28e808"/>
        <path id="Path_6379" data-name="Path 6379" d="M207,170.052q-6.433,3.66-12.866,7.319c-.261.149-.508.324-.775.462-1.829.954-3.036.657-4.109-1.087-1.146-1.865-2.234-3.765-3.347-5.65-.346-.643-.685-1.29-1.04-1.927-1.057-1.892-.749-3.563.831-4.459,1.531-.869,3.159-.3,4.214,1.5.785,1.335,1.622,2.648,2.3,4.037.5,1.02.967.986,1.859.456,3.773-2.245,7.594-4.41,11.4-6.6.3-.172.592-.354.9-.5a2.918,2.918,0,0,1,3.911,1.166,2.88,2.88,0,0,1-.994,3.854c-.744.506-1.523.959-2.286,1.435" transform="translate(15.631 13.853)" fill="#fcfdfd"/>
      </g>
      <path id="Path_6380" data-name="Path 6380" d="M161.586,191.281c-.694,2.408-2.647,3.482-4.762,4.329a35.082,35.082,0,0,1-11.684,2.05c-2.864.1-5.131-.662-6.184-3.569v-3.07c.4-.271.347-.749.488-1.128a9.218,9.218,0,0,1,2.473-3.949,6.125,6.125,0,0,1,2.647-1.649c.77-.3,1.66-.152,2.365-.673h1.8c.119.325.4.239.64.26a42.417,42.417,0,0,1,6.173,1.052,8.912,8.912,0,0,1,5.381,3.179c.683.933,1.248,1.942.662,3.168" transform="translate(11.789 15.579)" fill="#895f57"/>
      <path id="Path_6381" data-name="Path 6381" d="M163.327,180.412a21.052,21.052,0,0,1-10.621,1.692c-3.428-.239-6.357-1.54-8.1-4.773-.445-.824-.282-1.823-.846-2.582v-1.28c.64-1.117.477-2.528,1.3-3.58a4.855,4.855,0,0,1,4.773-3.027c5.4-.087,10.165,1.877,14.483,4.969a4.664,4.664,0,0,1,2,3.428c.239,2.658-.651,4.057-2.983,5.153" transform="translate(12.197 14.157)" fill="#895f56"/>
      <path id="Path_6382" data-name="Path 6382" d="M163.894,168.2c-6.3-1.313-12.249-3.439-15.578-9.644v-2.3c.608-.966.608-2.181,1.356-3.081a7.259,7.259,0,0,1,4.544-4.1h2.05c4.406,1.128,7.073,4.263,9.32,7.919a16.371,16.371,0,0,1,2.918,6.151c.705,3.515-1.139,5.771-4.611,5.055" transform="translate(12.583 12.648)" fill="#845b53"/>
      <path id="Path_6383" data-name="Path 6383" d="M127.274,163.361c-1.844,1.562-3.526,3.32-5.283,4.99-.564.532-1.139,1.052-1.714,1.573a55.265,55.265,0,0,1-5.967,5.522c-.824.716-1.367,1.475-.749,2.56.835,1.454-.228,2.246-1.107,2.962-2.853,2.322-5.5,4.893-8.321,7.258-9.97,8.364-20.037,16.62-31.168,23.454a36.255,36.255,0,0,1-12.118,5.131c-4.329.824-7.757,3.038-10.979,5.956-7.5,6.8-15.144,13.43-22.717,20.146a1.081,1.081,0,0,1-1.53.163c-11.5-6.466-18.648-16.479-23.346-28.51-.89-2.289-1.454-4.687-2.278-7v-.781a12.469,12.469,0,0,0,3.081-2.278c3.992-3.32,7.974-6.639,11.879-10.046,2.018-1.757,2.766-4.242,3.211-6.78.651-3.786.152-7.551-.206-11.337-.759-8.212-.64-16.37,2.278-24.246a41.524,41.524,0,0,0,2.322-9.5c-.1-2.723.25-5.424.13-8.158a112.246,112.246,0,0,0-3.873-25.949,21.125,21.125,0,0,1-.976-8.69c.412-3.081,4.025-3.667,5.8-2.5a10.584,10.584,0,0,1,2.951,3.406c3.385,5.294,4.925,11.293,6.65,17.227,1.28,4.361,2.528,8.722,4.784,12.714a12.505,12.505,0,0,0,.759,1.2c2.04,2.8,3.645,3.038,6.379.987,8.928-6.672,18.236-12.779,27.457-19.028,6.8-4.611,13.68-9.1,20.449-13.767,3.027-2.083,5.522-4.849,8.277-7.279,4.307-3.808,8.375-7.9,12.964-11.38a9.352,9.352,0,0,1,2.539-1.54,1.994,1.994,0,0,1,2.907,1.616c.521,2.159-.141,4.209-.77,6.216a92.957,92.957,0,0,1-4.958,11.684c-4.274,9.08-8.614,18.128-12.942,27.186a2.9,2.9,0,0,0-.271,2c2.322,9.677,5.045,19.245,7.485,28.879.2.77.51.879,1.182.542,2.256-1.107,4.47-2.322,6.813-3.2a11.2,11.2,0,0,1,10.87,1.074c2.929,2.05,2.831,5.229.1,7.518" transform="translate(0 6.759)" fill="#b57f71"/>
      <path id="Path_6384" data-name="Path 6384" d="M97.666,134.76c-.616-2.872-1.169-5.529-1.768-8.176-.12-.535.125-.708.525-.847l14.822-5.139a7.405,7.405,0,0,1-2.533,4.339c-3.582,3.251-7.226,6.435-11.046,9.823" transform="translate(8.134 10.232)" fill="#b57f71"/>
      <path id="Path_6385" data-name="Path 6385" d="M113.108,140.718c-3.522,2.252-6.762,4.314-9.99,6.4-.729.469-.867.04-1-.549-.439-1.938-.854-3.883-1.372-5.8-.225-.831.028-.983.771-.928,3.1.23,6.206.435,9.309.657.641.046,1.281.124,2.283.223" transform="translate(8.541 11.863)" fill="#b57f71"/>
      <path id="Path_6386" data-name="Path 6386" d="M18.968,86.179V84.62c.456-.162.273-.586.335-.887a11.267,11.267,0,0,1,8.722-9.227Q49.508,68.76,70.987,63a28.674,28.674,0,0,0,5.865-1.766H81c.048.205.208.222.381.264a11.057,11.057,0,0,1,8.6,8.405c1.048,3.833,2.054,7.676,3.083,11.513q14.593,54.435,29.182,108.872c1.782,6.654-1.622,12.581-8.2,14.344q-24.005,6.429-48.017,12.834a11.165,11.165,0,0,1-14.057-8.108Q36.5,151.6,21.038,93.848c-.685-2.558-1.38-5.113-2.07-7.669" transform="translate(1.609 5.195)" fill="#ababab"/>
      <path id="Path_6387" data-name="Path 6387" d="M113.6,202.949q-21.382,5.744-42.786,11.456c-1.833.488-3.656,1-5.5,1.475a11.239,11.239,0,0,1-13.853-8.332q-5.045-18.844-10.089-37.7-5.923-22.082-11.846-44.186c-.1-.369-.141-.759-.206-1.139-1.432-5.24-2.886-10.469-4.307-15.719Q22.1,97.986,19.227,87.153c-1.768-6.65,1.595-12.508,8.245-14.3Q51.278,66.444,75.1,60.087c.434-.119.966-.054,1.248-.532H80.5c.087.076.163.206.26.228a11.081,11.081,0,0,1,8.787,8.549q5.614,20.878,11.2,41.788,4.589,17.135,9.178,34.281c.119.466.228.922.336,1.389q2.181,8.055,4.361,16.121c2.4,8.982,4.817,17.943,7.192,26.926a11.151,11.151,0,0,1-8.212,14.114" transform="translate(1.592 5.053)" fill="#f6f6f6"/>
      <path id="Path_6388" data-name="Path 6388" d="M113.165,198.114q-25.06,6.737-50.12,13.42a5.917,5.917,0,0,1-7.5-4.209q-6.525-24.2-12.986-48.417c-.054-.206-.087-.423-.13-.629C41,153.05,39.558,147.832,38.159,142.6Q30.348,113.475,22.57,84.336a1.61,1.61,0,0,0-.25-.412V81.841c.358-.716.651-1.465,1.074-2.148a5.719,5.719,0,0,1,3.352-2.517c2.408-.673,4.838-1.28,7.236-1.964.6-.174.8-.043,1.074.5a4.274,4.274,0,0,0,5.457,2.463q12.807-3.417,25.624-6.889c2.593-.705,3.743-2.267,3.58-4.925-.033-.575.119-.759.618-.89,2.549-.651,5.066-1.421,7.637-1.985a5.893,5.893,0,0,1,6.9,4.459c2.712,9.959,5.37,19.939,8.039,29.909,1.844,6.878,3.7,13.767,5.511,20.655,1.324,5,2.582,10.024,3.895,15.025.141.521.553.966.488,1.562,1.334,4.871,2.69,9.731,3.992,14.6q5.451,20.259,10.848,40.541c1.009,3.775-.716,6.867-4.48,7.876" transform="translate(1.894 5.375)" fill="#ededed"/>
      <path id="Path_6389" data-name="Path 6389" d="M55.159,69.127a.567.567,0,0,0-.693-.4l-8.459,2.264a.564.564,0,0,0-.4.692h0a.566.566,0,0,0,.693.4l8.457-2.263a.566.566,0,0,0,.4-.692Zm5.323-1.42h0a1.14,1.14,0,0,0-1.4-.8l-.008,0a1.139,1.139,0,0,0-.806,1.394h0a1.14,1.14,0,0,0,1.4.8l.008,0a1.138,1.138,0,0,0,.806-1.394" transform="translate(3.868 5.673)" fill="#ababab"/>
      <path id="Path_6395" data-name="Path 6395" d="M92.5,166.452a1.737,1.737,0,0,1-.922.469c-1.748.461-3.488.937-5.235,1.4q-9.025,2.408-18.064,4.811c-1.636.438-2.543-.075-3-1.688-.64-2.32-1.25-4.641-1.889-6.961-.075-.267-.044-.594-.35-.758v-1.063c.417-.58.729-1.279,1.525-1.48,1.74-.439,3.473-.893,5.213-1.339.164-.06.32-.141.49-.186,3.979-1.064,7.973-2.1,11.944-3.191a64.181,64.181,0,0,0,6.179-1.748h1.063a2.366,2.366,0,0,1,1.562,1.532c.721,2.691,1.457,5.376,2.157,8.076a1.873,1.873,0,0,1-.677,2.127" transform="translate(5.349 13.127)" fill="#004022"/>
      <path id="Path_6402" data-name="Path 6402" d="M92.5,166.452a1.737,1.737,0,0,1-.922.469c-1.748.461-3.488.937-5.235,1.4q-9.025,2.408-18.064,4.811c-1.636.438-2.543-.075-3-1.688-.64-2.32-1.25-4.641-1.889-6.961-.075-.267-.044-.594-.35-.758v-1.063c.417-.58.729-1.279,1.525-1.48,1.74-.439,3.473-.893,5.213-1.339.164-.06.32-.141.49-.186,3.979-1.064,7.973-2.1,11.944-3.191a64.181,64.181,0,0,0,6.179-1.748h1.063a2.366,2.366,0,0,1,1.562,1.532c.721,2.691,1.457,5.376,2.157,8.076a1.873,1.873,0,0,1-.677,2.127" transform="translate(217.971 49.764) rotate(31)" fill="#004022"/>
      <path id="Path_6396" data-name="Path 6396" d="M120.854,153.383c-.152,3.059-1.671,4.556-4.687,4.611-4.556.087-9.015-.369-13.181-2.387a7.24,7.24,0,0,1-1.888-1.3c-2.1-2.029-2.018-4.112.26-6.043,1.573-1.54,3.623-1.942,5.685-2.343a20.663,20.663,0,0,1,7.344-.542c3.58.564,5.294,2.972,6.227,6.129a3.437,3.437,0,0,1,.239,1.877" transform="translate(8.449 12.321)" fill="#d69385"/>
      <path id="Path_6397" data-name="Path 6397" d="M115.934,137.878c-.553,2.842-3.255,5-6.824,5.587a20.717,20.717,0,0,1-9.926-.976c-2.7-.89-3.884-2.224-3.884-4.426,0-2.473,1.389-4.068,3.547-5.1a26.68,26.68,0,0,1,9.633-3.537c.25-.043.521,0,.662-.282h1.28c.065.065.108.163.174.174,4.383,1.085,6.3,4.166,5.337,8.559" transform="translate(8.085 10.957)" fill="#d69385"/>
      <path id="Path_6398" data-name="Path 6398" d="M110.368,124.164a17.823,17.823,0,0,1-5.912,4.079,23.625,23.625,0,0,1-6.173,2.289c-3.135.488-4,.1-5.4-2.593v-1.53a20.694,20.694,0,0,1,3.092-6.4c1.54-2.43,3.222-4.741,5.836-6.14,3.949-2.115,7.095-1.074,9.08,2.962,1.237,2.539,1.627,5.034-.521,7.334" transform="translate(7.88 9.57)" fill="#d69385"/>
      <path id="Path_6399" data-name="Path 6399" d="M92.909,30.434a3.2,3.2,0,0,0-1.947-.563,2.87,2.87,0,0,0,.877-3.007,2.739,2.739,0,0,0-.763-1.251,3.124,3.124,0,0,0-1.181-.7,3.161,3.161,0,0,0-1.355-.116c-.165.021-.358.055-.576.1l-.7-2.34-1.277.382.688,2.293-.222.065-1.471.44-.687-2.291-1.277.382.687,2.292-1.589.476-.3.091-1.432.429.259.864,1.431-.429,2.961,9.881-1.431.429.258.865,1.432-.43.3-.09,1.589-.476.636,2.119,1.277-.382-.636-2.12.782-.234c.332-.1.631-.2.908-.282l.638,2.13,1.277-.384-.648-2.159c.281-.1.493-.174.628-.231a3.459,3.459,0,0,0,1.407-1.021,3.256,3.256,0,0,0,.648-1.5A3.609,3.609,0,0,0,94,32.014a2.927,2.927,0,0,0-1.095-1.58m-4.816-3.483a1.406,1.406,0,0,1,1.006.143,1.328,1.328,0,0,1,.559.785,1.279,1.279,0,0,1-.073,1.01,1.608,1.608,0,0,1-.822.7q-.321.14-1.69.551l-1.536.46-.8-2.685,1.346-.4q1.655-.5,2.015-.561m3.421,6.762a1.508,1.508,0,0,1-.713.719,10.958,10.958,0,0,1-1.586.552l-2.17.651-.93-3.1,1.893-.567a8.327,8.327,0,0,1,2.127-.457,1.5,1.5,0,0,1,.892.311,1.585,1.585,0,0,1,.52.809,1.494,1.494,0,0,1-.034,1.085" transform="translate(6.819 1.914)" fill="#fefdfc"/>
      <path id="Path_6400" data-name="Path 6400" d="M215.67,49.176a.813.813,0,0,1-.456.759l-7.4,3.558a5.929,5.929,0,0,1-2.484.629h-.2a5.9,5.9,0,0,1-2.235-.434,6.01,6.01,0,0,1-2.061-1.367,6.131,6.131,0,0,1-1.367-2.191l-2.864-7.757a.816.816,0,0,1,.2-.857.808.808,0,0,1,.857-.184l2.452.944a.789.789,0,0,1,.477.488l2.213,6.184a2.527,2.527,0,0,0,.564.9,2.366,2.366,0,0,0,.846.564,2.682,2.682,0,0,0,1.009.184,2.469,2.469,0,0,0,1.031-.271L212,47.452a.852.852,0,0,1,.673-.022l2.5,1.02a.807.807,0,0,1,.5.727" transform="translate(16.677 3.502)" fill="#fefdfc"/>
      <path id="Path_6401" data-name="Path 6401" d="M208.984,65.42a.806.806,0,0,1-.77,1.085.8.8,0,0,1-.315-.054l-2.484-1.02a.829.829,0,0,1-.456-.5l-2.083-6.075a2.369,2.369,0,0,0-.553-.911,2.573,2.573,0,0,0-.846-.586,2.241,2.241,0,0,0-1-.184,2.431,2.431,0,0,0-1.031.239l-5.923,2.864a.808.808,0,0,1-.673.011l-2.408-1.052a.817.817,0,0,1-.022-1.486l7.5-3.515a5.944,5.944,0,0,1,4.882-.141,5.953,5.953,0,0,1,3.417,3.613Z" transform="translate(16.116 4.551)" fill="#fefdfc"/>
      <g id="Group_2771" data-name="Group 2771" transform="translate(-183.81 12.65) rotate(-16)">
        <path id="Path_6376-2" data-name="Path 6376" d="M176.665,167.195c2.6.411,5.042,1.476,7.659,1.812a5.058,5.058,0,0,0,.717,1.911c1.3,2.225,2.578,4.459,3.866,6.688,1.492,2.583,2.8,2.939,5.355,1.48,3.34-1.906,6.6-3.963,10.029-5.705,1.8,1.1,3.9,1.241,5.856,1.831,2.128.641,4.316,1.086,6.417,1.831a19.323,19.323,0,0,1-7.017,10,20.642,20.642,0,0,1-32.678-11.49,10.5,10.5,0,0,0-.713-2.931v-4.137c.535-.287.146-.937.508-1.293" transform="translate(14.946 14.186)" fill="#2dbc0f"/>
        <path id="Path_6378-2" data-name="Path 6378" d="M217.659,174.441a20.65,20.65,0,0,1-40.313.553,9.886,9.886,0,0,0-.716-2.94v-3.873c.575-.77.358-1.714.6-2.56,2.267-8.191,7.42-13.485,15.719-15.611a15.929,15.929,0,0,0,3.341-.705h2.061c.271.423.705.239,1.063.271a20.7,20.7,0,0,1,18.247,24.865" transform="translate(14.986 12.667)" fill="#28e808"/>
        <path id="Path_6379-2" data-name="Path 6379" d="M207,170.052q-6.433,3.66-12.866,7.319c-.261.149-.508.324-.775.462-1.829.954-3.036.657-4.109-1.087-1.146-1.865-2.234-3.765-3.347-5.65-.346-.643-.685-1.29-1.04-1.927-1.057-1.892-.749-3.563.831-4.459,1.531-.869,3.159-.3,4.214,1.5.785,1.335,1.622,2.648,2.3,4.037.5,1.02.967.986,1.859.456,3.773-2.245,7.594-4.41,11.4-6.6.3-.172.592-.354.9-.5a2.918,2.918,0,0,1,3.911,1.166,2.88,2.88,0,0,1-.994,3.854c-.744.506-1.523.959-2.286,1.435" transform="translate(15.631 13.853)" fill="#fcfdfd"/>
      </g>
    </g>
  </g>
</svg>
