<svg xmlns="http://www.w3.org/2000/svg" width="28" height="20" viewBox="0 0 28 20">
  <path id="debitcard" d="M-5703-6522h-24a2,2,0,0,1-2-2v-16a2,2,0,0,1,2-2h24a2,2,0,0,1,2,2v16A2,2,0,0,1-5703-6522Zm-22.7-6.019a.3.3,0,0,0-.3.3v1.172a.3.3,0,0,0,.3.3h12.808a.3.3,0,0,0,.3-.3v-1.172a.3.3,0,0,0-.3-.3Zm1.7-7.616h.518c.146,0,.263,0,.37,0a.9.9,0,0,0,.939-.9,15.522,15.522,0,0,0,0-1.575.887.887,0,0,0-.944-.885c-.355-.005-.685-.008-1.009-.008s-.645,0-.935.008a.872.872,0,0,0-.924.928c-.01.443-.011.912,0,1.473a.892.892,0,0,0,.971.957c.12,0,.242,0,.359,0h.661Zm19.759-3.365a.2.2,0,0,0-.2.2v1.795a.2.2,0,0,0,.2.2h.915a.2.2,0,0,0,.2-.2v-1.795a.2.2,0,0,0-.2-.2Zm-2.632,0a.2.2,0,0,0-.2.2v1.795a.2.2,0,0,0,.2.2h.916a.2.2,0,0,0,.2-.2v-1.795a.2.2,0,0,0-.2-.2Zm-2.63,0a.2.2,0,0,0-.2.2v1.795a.2.2,0,0,0,.2.2h.916a.2.2,0,0,0,.2-.2v-1.795a.2.2,0,0,0-.2-.2Zm-2.632,0a.2.2,0,0,0-.2.2v1.795a.2.2,0,0,0,.2.2h.916a.2.2,0,0,0,.2-.2v-1.795a.2.2,0,0,0-.2-.2Zm-11.13,2.512h-.031c-.12,0-.241,0-.358,0h-.476l-.238,0-.244,0c-.109,0-.2,0-.289.006h-.033a.232.232,0,0,1-.176-.057.29.29,0,0,1-.057-.22c.012-.423.012-.773,0-1.1a.308.308,0,0,1,.059-.234.277.277,0,0,1,.211-.065h.012c.238,0,.486.007.759.007.256,0,.54,0,.845-.006h.007a.265.265,0,0,1,.2.059.248.248,0,0,1,.051.187c-.013.39-.013.783,0,1.171a.262.262,0,0,1-.052.2A.253.253,0,0,1-5723.269-6536.487Z" transform="translate(5729 6542)" fill="#262626"/>
</svg>
