<svg xmlns="http://www.w3.org/2000/svg" width="26" height="26" viewBox="0 0 26 26">
  <g id="eth" transform="translate(0 -0.25)">
    <circle id="Ellipse_102" data-name="Ellipse 102" cx="13" cy="13" r="13" transform="translate(0 0.25)" fill="#f2e4f0"/>
    <g id="Group_2138" data-name="Group 2138" transform="translate(9.351 5.615)">
      <path id="Path_2468" data-name="Path 2468" d="M-227.274-70.846a13.51,13.51,0,0,1,.7,1.408q1.5,3.132,2.985,6.273c.035.075.137.145.057.25a1.042,1.042,0,0,0-.138.022l-3.6,1.074-.012-.012c0-.1.006-.2.006-.307Q-227.274-66.492-227.274-70.846Z" transform="translate(231.05 70.846)" fill="#9d2887"/>
      <path id="Path_2469" data-name="Path 2469" d="M-255.77-70.846q0,4.354,0,8.709c0,.1,0,.2-.006.307-.824-.245-1.647-.494-2.474-.732a11.862,11.862,0,0,0-1.263-.356c-.075-.075,0-.132.029-.187q1.8-3.8,3.614-7.593C-255.846-70.752-255.842-70.823-255.77-70.846Z" transform="translate(259.546 70.846)" fill="#c37eb6"/>
      <path id="Path_2470" data-name="Path 2470" d="M-259.273-2.977a11.867,11.867,0,0,1,1.263.356c.827.237,1.65.487,2.474.732l.012.012,0,5.992a9.51,9.51,0,0,1-.657-1.19Q-257.7.064-259.2-2.8A1.735,1.735,0,0,1-259.273-2.977Z" transform="translate(259.305 10.905)" fill="#9d2987"/>
      <path id="Path_2471" data-name="Path 2471" d="M-227.213,4.145q0-3,0-5.992l3.6-1.074a1.042,1.042,0,0,1,.138-.022c-.361.7-.719,1.4-1.084,2.094q-1.261,2.4-2.53,4.806C-227.121,4.023-227.132,4.109-227.213,4.145Z" transform="translate(230.99 10.875)" fill="#620873"/>
    </g>
  </g>
</svg>
