<svg xmlns="http://www.w3.org/2000/svg" width="74" height="74" viewBox="0 0 74 74">
  <g id="flag" transform="translate(-30 -509)">
    <circle id="Ellipse_63" data-name="Ellipse 63" cx="37" cy="37" r="37" transform="translate(30 509)" fill="#262626"/>
    <g id="Group_1786" data-name="Group 1786" transform="translate(3.955 499.519)">
      <path id="Rectangle_804" data-name="Rectangle 804" d="M1.461,0h0A1.461,1.461,0,0,1,2.922,1.461v30.6a.876.876,0,0,1-.876.876H.876A.876.876,0,0,1,0,32.065V1.461A1.461,1.461,0,0,1,1.461,0Z" transform="matrix(0.965, -0.261, 0.261, 0.965, 48.217, 33.382)" fill="none" stroke="#28e808" stroke-width="1.5"/>
      <path id="Path_2150" data-name="Path 2150" d="M74.043,52.194c8.2,1.789,13.283-7.964,21.545-5.945a95.185,95.185,0,0,0-7.993-8.821,54.077,54.077,0,0,1,3.078-9.37C82.409,26.038,77.328,35.795,69.124,34" transform="translate(-17.715 0)" fill="none" stroke="#28e808" stroke-linejoin="round" stroke-width="1.5"/>
    </g>
  </g>
</svg>
