<svg id="flame" xmlns="http://www.w3.org/2000/svg" width="14.683" height="21.005" viewBox="0 0 14.683 21.005">
  <path id="Path_2461" data-name="Path 2461" d="M304.115,123.1a3.761,3.761,0,0,0-.691-.11c-.19-.048-.387-.07-.581-.1-.013-.118-.123-.14-.2-.189a6.051,6.051,0,0,1-1.456-1.387,7.633,7.633,0,0,1-1.077-1.984,11.613,11.613,0,0,1-.708-3.5c-.036-.64,0-1.283,0-1.925a2.123,2.123,0,0,0,.9.557c.012.031.014.074.036.091a2.046,2.046,0,0,0,2.112.395,1.833,1.833,0,0,0,1.1-1.325,3.139,3.139,0,0,0-.224-1.7,5.6,5.6,0,0,1-.324-2.818,7.38,7.38,0,0,1,1.251-2.985,8.818,8.818,0,0,1,1.346-1.505.943.943,0,0,1,.446-.309,5.286,5.286,0,0,0-.573,2.447,2.7,2.7,0,0,0,.366,1.43.936.936,0,0,0,.872.472,1.278,1.278,0,0,0,1.347-1.279,6.4,6.4,0,0,0,0-.819.491.491,0,0,1,.316-.519.478.478,0,0,1,.57.163,5,5,0,0,1,1.095,2.172,3.992,3.992,0,0,1-.243,2.189c-.246.66-.594,1.274-.86,1.924a3.415,3.415,0,0,0-.31,1.753.7.7,0,0,0,.771.7,4.166,4.166,0,0,0,1.736-.423,3.022,3.022,0,0,1,.282-.119.48.48,0,0,1,.627.387,5.147,5.147,0,0,1-.019,1.329,9.287,9.287,0,0,1-.889,3.344,6.185,6.185,0,0,1-4.783,3.514c-.265.044-.531.083-.8.124h-.164c-.13-.088-.275-.039-.411-.036a1.945,1.945,0,0,0-.7.036Z" transform="translate(-297.393 -102.098)" fill="#d62d2d"/>
  <path id="Path_2462" data-name="Path 2462" d="M322.836,63.45a.943.943,0,0,0-.446.309,8.819,8.819,0,0,0-1.346,1.505,7.38,7.38,0,0,0-1.251,2.985,5.6,5.6,0,0,0,.324,2.818,3.139,3.139,0,0,1,.224,1.7,1.833,1.833,0,0,1-1.1,1.325,2.046,2.046,0,0,1-2.112-.395c-.022-.018-.025-.06-.036-.091a1.44,1.44,0,0,0,1.341-.535,1.111,1.111,0,0,0,.238-1.282c-.183-.512-.382-1.018-.569-1.529a5.737,5.737,0,0,1,.389-4.814,8.307,8.307,0,0,1,3.806-3.7,6.735,6.735,0,0,1,1.275-.485.507.507,0,0,1,.62.262.466.466,0,0,1-.156.618,4.137,4.137,0,0,0-1.148,1.233.073.073,0,0,0-.048.08Z" transform="translate(-314.186 -61.236)" fill="#ac1111"/>
  <path id="Path_2463" data-name="Path 2463" d="M262.624,260.761c0,.642-.032,1.285,0,1.925a11.613,11.613,0,0,0,.708,3.5,7.631,7.631,0,0,0,1.078,1.984,6.051,6.051,0,0,0,1.456,1.387c.074.049.185.071.2.189a6.251,6.251,0,0,1-4.328-3.416,10.344,10.344,0,0,1-1.009-3.47,15.362,15.362,0,0,1-.073-2.965,3.273,3.273,0,0,1,.042-.345.5.5,0,0,1,.4-.413.476.476,0,0,1,.513.219,8.568,8.568,0,0,0,.489.779C262.272,260.345,262.45,260.552,262.624,260.761Z" transform="translate(-260.618 -248.952)" fill="#ac1111"/>
  <path id="Path_2464" data-name="Path 2464" d="M265.97,166.393a.121.121,0,0,1-.017.036c-.494.51-.5.517-.96.009a1.844,1.844,0,0,1,.314-2.718.222.222,0,0,1,.322,0,1.39,1.39,0,0,1,.354.361,1.616,1.616,0,0,0-.422,1.076A1.84,1.84,0,0,0,265.97,166.393Z" transform="translate(-264.332 -158.388)" fill="#ac1111"/>
  <path id="Path_2465" data-name="Path 2465" d="M284.9,174.347a1.84,1.84,0,0,1-.408-1.233,1.616,1.616,0,0,1,.422-1.076A1.823,1.823,0,0,1,284.9,174.347Z" transform="translate(-283.262 -166.341)" fill="#d62d2d"/>
</svg>
