<svg xmlns="http://www.w3.org/2000/svg" width="16.606" height="16.605" viewBox="0 0 16.606 16.605">
  <g id="gallery" transform="translate(0.5 0.5)">
    <path id="Path_2642" data-name="Path 2642" d="M6.211,4.5H18.188A1.711,1.711,0,0,1,19.9,6.211V18.187A1.711,1.711,0,0,1,18.188,19.9H6.211A1.711,1.711,0,0,1,4.5,18.187V6.211A1.711,1.711,0,0,1,6.211,4.5Z" transform="translate(-4.5 -4.5)" fill="#dcffd5" stroke="#28e808" stroke-linecap="round" stroke-linejoin="round" stroke-width="1"/>
    <path id="Path_2643" data-name="Path 2643" d="M13.066,11.783A1.283,1.283,0,1,1,11.783,10.5,1.283,1.283,0,0,1,13.066,11.783Z" transform="translate(-7.078 -7.078)" fill="none" stroke="#28e808" stroke-linecap="round" stroke-linejoin="round" stroke-width="1"/>
    <path id="Path_2644" data-name="Path 2644" d="M21.188,19.277,16.91,15,7.5,24.41" transform="translate(-5.789 -9.012)" fill="none" stroke="#28e808" stroke-linecap="round" stroke-linejoin="round" stroke-width="1"/>
  </g>
</svg>
