<svg xmlns="http://www.w3.org/2000/svg" xmlns:xlink="http://www.w3.org/1999/xlink" width="74.151" height="25.56" viewBox="0 0 74.151 25.56">
  <defs>
    <linearGradient id="linear-gradient" x1="0.5" x2="0.5" y2="1" gradientUnits="objectBoundingBox">
      <stop offset="0" stop-color="#28e808" stop-opacity="0.329"/>
      <stop offset="1" stop-color="#28e808" stop-opacity="0"/>
    </linearGradient>
  </defs>
  <g id="green-chart" transform="translate(-174.424 -170.519)">
    <path id="Path_2479" data-name="Path 2479" d="M7980.522,5138.143l3.333-.719a9.434,9.434,0,0,0,3.076,2.311c4.808-1.347,10.37-1.9,18.1-14.819,2.356,2.2,2.356,3.368,3.771,3.062s2.733-1.47,4.053-.367a7.325,7.325,0,0,0,6.881,1.592,4.507,4.507,0,0,1,5.468,1.714c.848,1.164,4.525,4.225,7.07,3.674s4.431-1.163,6.033,1.164,3.677,5.634,3.677,5.634,3.487-5.39,12.538-7.349c-.04,11.9,0,15.876,0,15.876h-74Z" transform="translate(-7806.022 -4953.836)" fill="url(#linear-gradient)"/>
    <path id="Path_2476" data-name="Path 2476" d="M7980.522,5138.481l3.333-.738a9.471,9.471,0,0,0,3.076,2.37c4.808-1.381,10.37-1.946,18.1-15.2,2.356,2.261,2.356,3.454,3.771,3.14s2.733-1.507,4.053-.376a7.2,7.2,0,0,0,6.881,1.633,4.453,4.453,0,0,1,5.468,1.758c.848,1.193,4.525,4.333,7.07,3.768s4.431-1.193,6.033,1.193,3.677,5.778,3.677,5.778,3.487-5.527,12.538-7.536" transform="translate(-7806.022 -4953.836)" fill="none" stroke="#28e808" stroke-width="0.7"/>
  </g>
</svg>
