<svg id="home" xmlns="http://www.w3.org/2000/svg" width="26" height="26" viewBox="0 0 26 26">
  <g id="home-2" data-name="home" transform="translate(7187 6109)">
    <path id="Exclusion_22" data-name="Exclusion 22" d="M17,22H3a3,3,0,0,1-3-3V8a1,1,0,0,1,.386-.789l9-7a1,1,0,0,1,1.228,0l9,7A1,1,0,0,1,20,8V19A3,3,0,0,1,17,22ZM10,2.267,2,8.489V19a1,1,0,0,0,1,1H17a1,1,0,0,0,1-1V8.489L10,2.267Z" transform="translate(-7184 -6107)" fill="#6f21d9"/>
    <path id="Shape" d="M6,2V8A1,1,0,0,0,8,8V1A1,1,0,0,0,7,0H1A1,1,0,0,0,0,1V8A1,1,0,0,0,2,8V2Z" transform="translate(-7178 -6094)" fill="#6f21d9"/>
  </g>
  <rect id="Rectangle_753" data-name="Rectangle 753" width="26" height="26" fill="none"/>
</svg>
