<svg id="market" xmlns="http://www.w3.org/2000/svg" width="26" height="26" viewBox="0 0 26 26">
  <g id="market-2" data-name="market" transform="translate(7324 6263)" opacity="0">
    <path id="Exclusion_21" data-name="Exclusion 21" d="M11.031,22h-.063A11,11,0,0,1,3.222,3.222,10.927,10.927,0,0,1,10.976,0h.047a11,11,0,0,1,7.754,18.778A10.926,10.926,0,0,1,11.031,22ZM13.275,2.291A16.352,16.352,0,0,1,16,11.021a16.281,16.281,0,0,1-2.724,8.688,9,9,0,0,0,0-17.417Zm-4.55,0a9,9,0,0,0,0,17.417A16.344,16.344,0,0,1,6,10.979,16.273,16.273,0,0,1,8.725,2.291ZM11,2.551a14.337,14.337,0,0,0-3,8.428,14.393,14.393,0,0,0,3,8.47,14.339,14.339,0,0,0,3-8.429A14.4,14.4,0,0,0,11,2.551Z" transform="translate(-7322 -6261)" fill="#6f21d9"/>
    <path id="Shape" d="M1,2H21a1,1,0,0,0,0-2H1A1,1,0,0,0,1,2Z" transform="translate(-7322 -6251)" fill="#6f21d9"/>
  </g>
  <rect id="Rectangle_756" data-name="Rectangle 756" width="26" height="26" fill="none"/>
  <g id="market-3" data-name="market" transform="translate(7324 6263)">
    <path id="Exclusion_21-2" data-name="Exclusion 21" d="M11.031,22h-.063A11,11,0,0,1,3.222,3.222,10.927,10.927,0,0,1,10.976,0h.047a11,11,0,0,1,7.754,18.778A10.926,10.926,0,0,1,11.031,22ZM13.275,2.291A16.352,16.352,0,0,1,16,11.021a16.281,16.281,0,0,1-2.724,8.688,9,9,0,0,0,0-17.417Zm-4.55,0a9,9,0,0,0,0,17.417A16.344,16.344,0,0,1,6,10.979,16.273,16.273,0,0,1,8.725,2.291ZM11,2.551a14.337,14.337,0,0,0-3,8.428,14.393,14.393,0,0,0,3,8.47,14.339,14.339,0,0,0,3-8.429A14.4,14.4,0,0,0,11,2.551Z" transform="translate(-7322 -6261)" fill="#818181"/>
    <path id="Shape-2" data-name="Shape" d="M1,2H21a1,1,0,0,0,0-2H1A1,1,0,0,0,1,2Z" transform="translate(-7322 -6251)" fill="#818181"/>
  </g>
</svg>
