<svg xmlns="http://www.w3.org/2000/svg" width="7.526" height="10.767" viewBox="0 0 7.526 10.767">
  <g id="moderate" transform="translate(0 0)">
    <path id="Path_2461" data-name="Path 2461" d="M301.81,113.944a1.929,1.929,0,0,0-.354-.057c-.1-.024-.2-.036-.3-.053-.007-.06-.063-.072-.1-.1a3.1,3.1,0,0,1-.746-.711,3.912,3.912,0,0,1-.552-1.017,5.952,5.952,0,0,1-.363-1.793c-.019-.328,0-.658,0-.987a1.088,1.088,0,0,0,.46.286c.006.016.007.038.018.047a1.049,1.049,0,0,0,1.083.2.94.94,0,0,0,.566-.679,1.609,1.609,0,0,0-.115-.87,2.869,2.869,0,0,1-.166-1.444,3.783,3.783,0,0,1,.641-1.53,4.518,4.518,0,0,1,.69-.772.483.483,0,0,1,.228-.159,2.71,2.71,0,0,0-.294,1.254,1.385,1.385,0,0,0,.188.733.48.48,0,0,0,.447.242.655.655,0,0,0,.691-.655,3.291,3.291,0,0,0,0-.42.252.252,0,0,1,.162-.266.245.245,0,0,1,.292.083,2.561,2.561,0,0,1,.561,1.113,2.046,2.046,0,0,1-.125,1.122c-.126.338-.3.653-.441.986a1.751,1.751,0,0,0-.159.9.359.359,0,0,0,.4.36,2.136,2.136,0,0,0,.89-.217,1.548,1.548,0,0,1,.145-.061.246.246,0,0,1,.322.2,2.639,2.639,0,0,1-.01.681,4.76,4.76,0,0,1-.456,1.714,3.17,3.17,0,0,1-2.452,1.8c-.136.022-.272.042-.408.063h-.084c-.066-.045-.141-.02-.211-.018a1,1,0,0,0-.357.018Z" transform="translate(-298.364 -103.177)" fill="#f2b90f"/>
    <path id="Path_2462" data-name="Path 2462" d="M320.035,62.371a.484.484,0,0,0-.228.159,4.52,4.52,0,0,0-.69.772,3.783,3.783,0,0,0-.641,1.53,2.869,2.869,0,0,0,.166,1.444,1.609,1.609,0,0,1,.115.87.94.94,0,0,1-.566.679,1.049,1.049,0,0,1-1.083-.2c-.011-.009-.013-.031-.018-.047a.738.738,0,0,0,.687-.274.569.569,0,0,0,.122-.657c-.094-.262-.2-.522-.292-.784a2.94,2.94,0,0,1,.2-2.467,4.258,4.258,0,0,1,1.951-1.9,3.453,3.453,0,0,1,.654-.248.26.26,0,0,1,.318.134.239.239,0,0,1-.08.317,2.121,2.121,0,0,0-.589.632.037.037,0,0,0-.025.041Z" transform="translate(-315.601 -61.236)" fill="#df8d12"/>
    <path id="Path_2463" data-name="Path 2463" d="M261.646,259.963c0,.329-.017.659,0,.987a5.951,5.951,0,0,0,.363,1.793,3.913,3.913,0,0,0,.552,1.017,3.1,3.1,0,0,0,.746.711c.038.025.095.037.1.1a3.2,3.2,0,0,1-2.219-1.751,5.3,5.3,0,0,1-.517-1.779,7.873,7.873,0,0,1-.038-1.52,1.681,1.681,0,0,1,.021-.177.258.258,0,0,1,.206-.212.244.244,0,0,1,.263.112,4.395,4.395,0,0,0,.251.4C261.465,259.75,261.557,259.856,261.646,259.963Z" transform="translate(-260.618 -253.91)" fill="#df8d12"/>
    <path id="Path_2464" data-name="Path 2464" d="M265.27,165.057a.062.062,0,0,1-.009.019c-.253.261-.258.265-.492,0a.945.945,0,0,1,.161-1.393.114.114,0,0,1,.165,0,.713.713,0,0,1,.181.185.828.828,0,0,0-.216.552A.943.943,0,0,0,265.27,165.057Z" transform="translate(-264.43 -160.954)" fill="#df8d12"/>
    <path id="Path_2465" data-name="Path 2465" d="M284.7,173.221a.943.943,0,0,1-.209-.632.828.828,0,0,1,.216-.552A.935.935,0,0,1,284.7,173.221Z" transform="translate(-283.86 -169.118)" fill="#f2b90f"/>
  </g>
</svg>
