<svg xmlns="http://www.w3.org/2000/svg" width="94" height="97.652" viewBox="0 0 94 97.652">
  <g id="no-notification" transform="translate(-2.037 0)">
    <path id="Path_2482" data-name="Path 2482" d="M0,81.609l9.8,44.4L20,123.739l2.514,11.385,8.82-13.91,49.3-10.985-9.8-44.4Z" transform="translate(2.037 -37.472)" fill="#a2ff92"/>
    <rect id="Rectangle_902" data-name="Rectangle 902" width="53.147" height="2.825" transform="translate(14.492 51.532) rotate(-12.505)" fill="#28e808"/>
    <rect id="Rectangle_903" data-name="Rectangle 903" width="53.147" height="2.924" transform="translate(16.69 61.982) rotate(-12.505)" fill="#28e808"/>
    <rect id="Rectangle_904" data-name="Rectangle 904" width="41.986" height="2.703" transform="translate(19.029 72.43) rotate(-12.505)" fill="#28e808"/>
    <path id="Path_2483" data-name="Path 2483" d="M156.117,0,101.063,4.089l2.552,34.353L141.932,35.6l9.463,8.154-.654-8.809,7.927-.589Z" transform="translate(-62.631)" fill="#28e808"/>
    <rect id="Rectangle_905" data-name="Rectangle 905" width="40.254" height="2.14" transform="translate(47.524 10.453) rotate(-4.331)" fill="#faffff"/>
    <rect id="Rectangle_906" data-name="Rectangle 906" width="40.254" height="2.214" transform="translate(48.139 18.51) rotate(-4.331)" fill="#faffff"/>
    <rect id="Rectangle_907" data-name="Rectangle 907" width="31.801" height="2.047" transform="translate(48.845 26.596) rotate(-4.331)" fill="#faffff"/>
  </g>
</svg>
