<svg xmlns="http://www.w3.org/2000/svg" width="15.042" height="18.332" viewBox="0 0 15.042 18.332">
  <g id="notifications" transform="translate(-6 -3.75)" fill="#dcffd5">
    <path d="M 13.52099704742432 21.58243751525879 C 12.93616580963135 21.58243751525879 12.435133934021 21.21685409545898 12.23444271087646 20.70218658447266 L 14.80755138397217 20.70218658447266 C 14.60686016082764 21.21685409545898 14.10582828521729 21.58243751525879 13.52099704742432 21.58243751525879 Z M 20.5419979095459 18.76205635070801 L 6.499997138977051 18.76205635070801 L 6.499997138977051 18.52903747558594 L 8.233797073364258 16.79523658752441 L 8.380247116088867 16.64879608154297 L 8.380247116088867 16.44168663024902 L 8.380247116088867 11.74105644226074 C 8.380247116088867 10.3917064666748 8.731217384338379 9.170066833496094 9.395196914672852 8.208207130432129 C 10.07088661193848 7.229396820068359 11.04979705810547 6.564706802368164 12.22608661651611 6.286006927490234 L 12.61081695556641 6.194856643676758 L 12.61081695556641 5.799476623535156 L 12.61081695556641 5.160186767578125 C 12.61081695556641 4.658307075500488 13.01912689208984 4.249996662139893 13.52099704742432 4.249996662139893 C 14.02287673950195 4.249996662139893 14.43118667602539 4.658307075500488 14.43118667602539 5.160186767578125 L 14.43118667602539 5.799476623535156 L 14.43118667602539 6.194536685943604 L 14.81552696228027 6.285916805267334 C 15.98779678344727 6.564636707305908 16.96563720703125 7.230607032775879 17.64333724975586 8.211827278137207 C 18.3095874786377 9.17647647857666 18.66174697875977 10.39686679840088 18.66174697875977 11.74105644226074 L 18.66174697875977 16.44168663024902 L 18.66174697875977 16.64879608154297 L 18.80819702148438 16.79523658752441 L 20.5419979095459 18.52903747558594 L 20.5419979095459 18.76205635070801 Z" stroke="none"/>
    <path d="M 19.56789779663086 18.26205635070801 L 18.16174697875977 16.85589599609375 L 18.16174697875977 11.74105644226074 C 18.16174697875977 10.49884700775146 17.84021759033203 9.376716613769531 17.2319278717041 8.495976448059082 C 16.62557792663574 7.618056774139404 15.75000667572021 7.022037029266357 14.69987678527832 6.772356986999512 L 13.93118667602539 6.589596748352051 L 13.93118667602539 5.160186767578125 C 13.93118667602539 4.934006690979004 13.74717712402344 4.749996662139893 13.52099704742432 4.749996662139893 C 13.29482746124268 4.749996662139893 13.11081695556641 4.934006690979004 13.11081695556641 5.160186767578125 L 13.11081695556641 6.590226650238037 L 12.3413667678833 6.772536754608154 C 10.20646667480469 7.278367042541504 8.880247116088867 9.182187080383301 8.880247116088867 11.74105644226074 L 8.880247116088867 16.85589599609375 L 7.47409725189209 18.26205635070801 L 19.56789779663086 18.26205635070801 M 13.52099704742432 22.08243751525879 C 12.47745704650879 22.08243751525879 11.6407470703125 21.2363166809082 11.6407470703125 20.20218658447266 L 15.40124702453613 20.20218658447266 C 15.40124702453613 21.2363166809082 14.55513668060303 22.08243751525879 13.52099704742432 22.08243751525879 Z M 21.0419979095459 19.26205635070801 L 5.999997138977051 19.26205635070801 L 5.999997138977051 18.32193756103516 L 7.880247116088867 16.44168663024902 L 7.880247116088867 11.74105644226074 C 7.880247116088867 8.845477104187012 9.412656784057617 6.438756942749023 12.11081695556641 5.799476623535156 L 12.11081695556641 5.160186767578125 C 12.11081695556641 4.379886627197266 12.74069690704346 3.749996900558472 13.52099704742432 3.749996900558472 C 14.30130672454834 3.749996900558472 14.93118667602539 4.379886627197266 14.93118667602539 5.160186767578125 L 14.93118667602539 5.799476623535156 C 17.61993789672852 6.438756942749023 19.16174697875977 8.854876518249512 19.16174697875977 11.74105644226074 L 19.16174697875977 16.44168663024902 L 21.0419979095459 18.32193756103516 L 21.0419979095459 19.26205635070801 Z" stroke="none" fill="#28e808"/>
  </g>
</svg>
