<svg xmlns="http://www.w3.org/2000/svg" width="14.888" height="18.926" viewBox="0 0 14.888 18.926">
  <g id="notification" transform="translate(-334.556 -62.5)">
    <path id="Icon_material-notifications" data-name="Icon material-notifications" d="M12.944,21.676A1.741,1.741,0,0,0,14.68,19.94H11.208A1.735,1.735,0,0,0,12.944,21.676Zm5.208-6.208v-4.34c0-2.665-1.423-4.9-3.906-5.486v-.59a1.3,1.3,0,0,0-2.6,0v.59c-2.491.59-3.906,2.812-3.906,5.486v4.34L6,17.2v.868H19.888V17.2Z" transform="translate(329.056 59.25)" fill="none" stroke="#fff" stroke-width="1"/>
    <path id="Path_2450" data-name="Path 2450" d="M3203.344,4456.178h3.594l-.436,1.027-.642.514-.873.282-.873-.282-.565-.667Z" transform="translate(-2863 -4377)" fill="#fff"/>
  </g>
</svg>
