<svg xmlns="http://www.w3.org/2000/svg" width="89.714" height="28.625" viewBox="0 0 89.714 28.625">
  <path id="Path_2208" data-name="Path 2208" d="M4000.354,4685.728l3.164-4.994,2.9,1.485.791-2.295,3.956,2.97.791,6.883,1.978,8.638,3.033-5.8,3.164,2.159,3.692-2.159,1.582,2.159,3.692,1.62,1.45,3.509,3.165.81,2.505-2.294.791,3.1,3.165,2.834,2.637,2.834,2.505-.54,4.219-2.294,6.065-3.644,3.428-4.319,3.164,1.08,1.714-1.08,3.165-1.62,1.846-2.7h3.3l3.692,4.319,3.56,1.08,5.01-1.08,4.878,3.509" transform="translate(-3999.932 -4679.112)" fill="none" stroke="#d62d2d" stroke-width="1" opacity="0.89"/>
</svg>
