<svg xmlns="http://www.w3.org/2000/svg" width="89.433" height="30.843" viewBox="0 0 89.433 30.843">
  <path id="Path_2204" data-name="Path 2204" d="M3999.96,4541.781h2.089l1.219-5.966,2.437,15.792,2.263-11.229,1.393,5.088,1.218-8.773,1.044,3.685,1.915-7.9v22.108l1.915-14.212,3.481-4.562,3.481,11.054,2.437-5.088.87-5.088,2.785,3.685,2.263-5.79,1.915,3.333,2.959,2.457,1.219,11.229,3.307-6.141v3.509h2.263v5.615l2.611-1.755,2.437,8.6,2.611-8.6,1.74,2.983,2.263-4.211,1.393,2.983,1.044-1.755,2.089,4.562,2.437-1.579,1.044,2.808,3.307-4.913,1.741.877,2.089-2.983,3.133,1.228,1.393-1.228,2.611,1.228.87-1.228h4l1.117-2,2.713,2,1.51,2.105,2.369-4.108" transform="translate(-3999.96 -4532.364)" fill="none" stroke="#0bd9b3" stroke-width="1"/>
</svg>
