<svg xmlns="http://www.w3.org/2000/svg" xmlns:xlink="http://www.w3.org/1999/xlink" width="136.074" height="161.622" viewBox="0 0 136.074 161.622">
  <defs>
    <linearGradient id="linear-gradient" x1="1.921" y1="0.264" x2="0.233" y2="0.565" gradientUnits="objectBoundingBox">
      <stop offset="0" stop-color="#ec9568"/>
      <stop offset="1" stop-color="#f7b68b"/>
    </linearGradient>
    <linearGradient id="linear-gradient-2" x1="2.55" y1="-1.692" x2="3.248" y2="-1.716" xlink:href="#linear-gradient"/>
    <linearGradient id="linear-gradient-3" x1="3.03" y1="-6.297" x2="4.114" y2="-6.297" xlink:href="#linear-gradient"/>
    <linearGradient id="linear-gradient-4" x1="6.243" y1="-6.076" x2="7.379" y2="-6.076" xlink:href="#linear-gradient"/>
    <linearGradient id="linear-gradient-5" x1="5.802" y1="0.23" x2="7.663" y2="0.206" xlink:href="#linear-gradient"/>
    <linearGradient id="linear-gradient-6" x1="6.053" y1="-6.057" x2="7.188" y2="-6.057" xlink:href="#linear-gradient"/>
    <linearGradient id="linear-gradient-7" x1="5.884" y1="-6.071" x2="7.02" y2="-6.071" xlink:href="#linear-gradient"/>
  </defs>
  <g id="phone-number" transform="translate(-2604.27 -283.192)">
    <path id="Path_2132" data-name="Path 2132" d="M2740.344,461.276a68.029,68.029,0,0,1-36.367,60.233q-2.146,1.132-4.381,2.111a67.806,67.806,0,0,1-27.287,5.693q-1.006,0-2-.03c-.364-.009-.729-.023-1.091-.039a68.041,68.041,0,0,1-40.377-120.305q1.1-.919,2.248-1.788c.395-.3.792-.6,1.191-.889q1.452-1.062,2.962-2.043.557-.366,1.124-.717l.042-.026c.5-.311,1-.618,1.511-.912.128-.077.258-.151.385-.225.186-.107.372-.216.56-.318a.644.644,0,0,1,.056-.033q1.042-.589,2.106-1.14c.557-.29,1.117-.571,1.683-.843q1.275-.62,2.582-1.184a67.807,67.807,0,0,1,27.023-5.579q3.461,0,6.84.339c.608.06,1.212.13,1.813.2l.2.028c.218.028.436.056.652.086.276.039.553.079.827.123.69.1,1.377.218,2.062.348.276.049.55.1.824.156a1.3,1.3,0,0,1,.137.028q2.163.428,4.272.994,1.689.453,3.345.987A68.067,68.067,0,0,1,2740.344,461.276Z" transform="translate(0 -84.498)" fill="#6f21d9"/>
    <g id="Group_1783" data-name="Group 1783" transform="translate(2616.523 283.192)">
      <path id="Path_2133" data-name="Path 2133" d="M2922.362,646.7q-2.145,1.132-4.381,2.11a67.8,67.8,0,0,1-27.287,5.693q-1.006,0-2-.03c.049-20.668.467-41.32.7-56.8.067-4.293.118-8.191.144-11.578v-.007c.014-1.683.019-3.241.019-4.66,0-4.219-.074-7.209-.251-8.623-.023-.181-.049-.339-.074-.467a4.988,4.988,0,0,1,1.054-4.019l0,0a12.678,12.678,0,0,1,2.709-2.626l0,0c.372-.281.766-.555,1.18-.824a42.576,42.576,0,0,1,6.749-3.464h0a94,94,0,0,1,9.366-3.3c3.917-1.17,6.8-1.813,6.8-1.813l.378,2.846.1,1.834v.019Z" transform="translate(-2834.908 -492.876)" fill="url(#linear-gradient)"/>
      <g id="Group_1782" data-name="Group 1782" transform="translate(0)">
        <path id="Path_2134" data-name="Path 2134" d="M2829.321,472.88s14.956,11.74,17.534,14.64,5.664,27.523,4.907,32.322-4.72,13.571-16.914,13.241-16.714-1.026-23.744-11.617S2812.64,463.684,2829.321,472.88Z" transform="translate(-2773.439 -427.933)" fill="url(#linear-gradient-2)"/>
        <path id="Path_2135" data-name="Path 2135" d="M2683.186,396.382l-24.121-7.222s-3.5,1.766-1.283,4.977,3.025,3.972,10.359,6.938,12.607,6.456,14.361,6.45S2683.186,396.382,2683.186,396.382Z" transform="translate(-2657.045 -364.557)" fill="url(#linear-gradient-3)"/>
        <g id="Group_1781" data-name="Group 1781" transform="translate(7.486)">
          <g id="Group_1780" data-name="Group 1780">
            <path id="Path_2136" data-name="Path 2136" d="M2756.949,334.689h0l-1.267-.277h0l.912-4.168h0l1.267.277h0Z" transform="translate(-2740.267 -319.32)" fill="#c5e1f9"/>
            <path id="Path_2137" data-name="Path 2137" d="M2746.649,372.334h0l-1.268-.278h0l1.538-7.03h0l1.266.277h0Z" transform="translate(-2732.358 -346.027)" fill="#c5e1f9"/>
            <path id="Path_2138" data-name="Path 2138" d="M2738.8,409.309h0l-1.268-.277h0l1.466-6.7h0l1.267.277h0Z" transform="translate(-2726.331 -374.667)" fill="#c5e1f9"/>
            <path id="Path_2139" data-name="Path 2139" d="M2735.55,380.421a6.952,6.952,0,0,1-8.253,5.292l-32.558-7.119a6.954,6.954,0,0,1-5.292-8.254l17.864-81.7a6.955,6.955,0,0,1,8.254-5.291l32.557,7.119a6.953,6.953,0,0,1,5.291,8.253Z" transform="translate(-2689.287 -283.192)" fill="#c5e1f9"/>
            <path id="Path_2140" data-name="Path 2140" d="M2698.186,380.871a5.959,5.959,0,0,1-4.544-7.087l17.864-81.7a5.959,5.959,0,0,1,7.087-4.544l32.557,7.119a5.96,5.96,0,0,1,4.544,7.087l-17.864,81.7a5.959,5.959,0,0,1-7.088,4.544Z" transform="translate(-2692.525 -286.427)" fill="#eaf4fe"/>
            <rect id="Rectangle_803" data-name="Rectangle 803" width="73.184" height="41.057" transform="translate(4.24 82.853) rotate(-77.666)" fill="#0bd9b3"/>
          </g>
        </g>
        <path id="Path_2141" data-name="Path 2141" d="M2683.1,552.507s2.585,7.769,3.607,11.108.883,4.865-.742,6.067-5.534-1.4-8.188-5.295-4.646-7.246-4.646-7.246a7.221,7.221,0,0,1,2.891-5.209C2678.784,550,2680.294,551.114,2683.1,552.507Z" transform="translate(-2669.399 -488.745)" fill="url(#linear-gradient-4)"/>
        <path id="Path_2142" data-name="Path 2142" d="M2948.245,380.092s-6.828,3.18-6.315,10.654a61.371,61.371,0,0,0,3.66,15.507s-6.37,19.137-5.2,24.825,3.029,12.24,5.755,15.866,5.7,4.912,7.295,1.648,5.849-37.144,4.926-40.72-2.012-3.365-2.936-6.941S2949.709,379.411,2948.245,380.092Z" transform="translate(-2874.492 -357.58)" fill="url(#linear-gradient-5)"/>
        <path id="Path_2143" data-name="Path 2143" d="M2681.676,497.685s2.584,7.77,3.606,11.108.884,4.866-.742,6.068-5.534-1.4-8.188-5.295-4.646-7.247-4.646-7.247a7.223,7.223,0,0,1,2.891-5.209C2677.354,495.183,2678.865,496.292,2681.676,497.685Z" transform="translate(-2668.302 -446.651)" fill="url(#linear-gradient-6)"/>
        <path id="Path_2144" data-name="Path 2144" d="M2692,450.466s2.585,7.769,3.607,11.107.883,4.867-.742,6.069-5.534-1.4-8.188-5.3-4.646-7.246-4.646-7.246a7.221,7.221,0,0,1,2.891-5.209C2687.68,447.963,2689.19,449.072,2692,450.466Z" transform="translate(-2676.229 -410.395)" fill="url(#linear-gradient-7)"/>
      </g>
    </g>
  </g>
</svg>
