<svg xmlns="http://www.w3.org/2000/svg" xmlns:xlink="http://www.w3.org/1999/xlink" width="74.145" height="25.545" viewBox="0 0 74.145 25.545">
  <defs>
    <linearGradient id="linear-gradient" x1="0.5" x2="0.5" y2="1" gradientUnits="objectBoundingBox">
      <stop offset="0" stop-color="#d62d2d" stop-opacity="0.322"/>
      <stop offset="1" stop-color="#d62d2d" stop-opacity="0"/>
    </linearGradient>
  </defs>
  <g id="red" transform="translate(0.073 0.545)">
    <path id="Path_2479" data-name="Path 2479" d="M8054.522,5138.143l-3.333-.72a9.433,9.433,0,0,1-3.076,2.312c-4.808-1.347-10.371-1.9-18.1-14.819-2.356,2.2-2.356,3.368-3.771,3.062s-2.733-1.47-4.053-.368a7.323,7.323,0,0,1-6.881,1.593,4.507,4.507,0,0,0-5.468,1.714c-.849,1.164-4.526,4.226-7.07,3.674s-4.431-1.164-6.033,1.164-3.677,5.634-3.677,5.634-3.486-5.39-12.537-7.349c.04,11.9,0,15.876,0,15.876h74Z" transform="translate(-7980.522 -5124.915)" fill="url(#linear-gradient)"/>
    <path id="Path_2476" data-name="Path 2476" d="M8054.522,5137.874l-3.333-.706a9.4,9.4,0,0,1-3.076,2.265c-4.808-1.319-10.371-1.859-18.1-14.518-2.356,2.16-2.356,3.3-3.771,3s-2.733-1.44-4.053-.36a7.432,7.432,0,0,1-6.881,1.56,4.554,4.554,0,0,0-5.468,1.68c-.849,1.14-4.526,4.139-7.07,3.6s-4.431-1.139-6.033,1.14-3.677,5.519-3.677,5.519-3.486-5.279-12.537-7.2" transform="translate(-7980.522 -5124.916)" fill="none" stroke="#d62d2d" stroke-width="0.7"/>
  </g>
</svg>
