<svg xmlns="http://www.w3.org/2000/svg" width="16.464" height="16.926" viewBox="0 0 16.464 16.926">
  <g id="settings" transform="translate(-3.406 -3)" fill="#dcffd5">
    <path d="M 13.2627010345459 19.42577934265137 L 10.01695537567139 19.42577934265137 L 9.705918312072754 17.25669860839844 L 9.665307998657227 16.97350883483887 L 9.400588035583496 16.86501884460449 C 8.941758155822754 16.67696952819824 8.49932861328125 16.42024803161621 8.08560848236084 16.10199928283691 L 7.859328269958496 15.92793846130371 L 7.59440803527832 16.03432846069336 L 5.55780029296875 16.85224342346191 L 3.931089162826538 14.03803730010986 L 5.659908294677734 12.68611907958984 L 5.883218288421631 12.51149845123291 L 5.848048210144043 12.2302188873291 C 5.810258388519287 11.92799854278564 5.79265832901001 11.68416881561279 5.79265832901001 11.46288871765137 C 5.79265832901001 11.24160861968994 5.810258388519287 10.99777889251709 5.848048210144043 10.69555854797363 L 5.883218288421631 10.41427898406982 L 5.659908294677734 10.23965835571289 L 3.931073665618896 8.887731552124023 L 5.557812213897705 6.073512077331543 L 7.59440803527832 6.891448497772217 L 7.855587959289551 6.996338844299316 L 8.080748558044434 6.827468872070312 C 8.527398109436035 6.492478847503662 8.959128379821777 6.24168872833252 9.400588035583496 6.060758590698242 L 9.665307998657227 5.952268600463867 L 9.705918312072754 5.669078826904297 L 10.01695537567139 3.499998807907104 L 13.2627010345459 3.499998807907104 L 13.57373809814453 5.669078826904297 L 13.61434841156006 5.952268600463867 L 13.87906837463379 6.060758590698242 C 14.33786773681641 6.248788833618164 14.78028774261475 6.505508899688721 15.19405841827393 6.823778629302979 L 15.42033863067627 6.997838497161865 L 15.68524837493896 6.891448497772217 L 17.72186470031738 6.073529720306396 L 19.34857177734375 8.887746810913086 L 17.61975860595703 10.23965835571289 L 17.39645767211914 10.41426849365234 L 17.43161773681641 10.69554901123047 C 17.47043800354004 11.00608825683594 17.48699760437012 11.2355785369873 17.48699760437012 11.46288871765137 C 17.48699760437012 11.69019889831543 17.47043800354004 11.9196891784668 17.43161773681641 12.23022842407227 L 17.39645767211914 12.51150894165039 L 17.61975860595703 12.68611907958984 L 19.34856796264648 14.03803539276123 L 17.72185516357422 16.85226440429688 L 15.68524837493896 16.03432846069336 L 15.42406845092773 15.92943859100342 L 15.19890785217285 16.09830856323242 C 14.75224781036377 16.43329811096191 14.32051849365234 16.6840991973877 13.87906837463379 16.86501884460449 L 13.61434841156006 16.97350883483887 L 13.57373809814453 17.25669860839844 L 13.2627010345459 19.42577934265137 Z M 11.63982772827148 8.00087833404541 C 9.730868339538574 8.00087833404541 8.177818298339844 9.553928375244141 8.177818298339844 11.46288871765137 C 8.177818298339844 13.37184906005859 9.730868339538574 14.92489910125732 11.63982772827148 14.92489910125732 C 13.54878807067871 14.92489910125732 15.10183811187744 13.37184906005859 15.10183811187744 11.46288871765137 C 15.10183811187744 9.553928375244141 13.54878807067871 8.00087833404541 11.63982772827148 8.00087833404541 Z" stroke="none"/>
    <path d="M 12.82929229736328 18.92577934265137 L 13.16001796722412 16.61933898925781 L 13.68945789337158 16.40235900878906 C 14.09107780456543 16.23776817321777 14.4866886138916 16.00746917724609 14.8989086151123 15.69830894470215 L 15.34923839569092 15.36056900024414 L 17.50592041015625 16.22670745849609 L 18.69814872741699 14.16414356231689 L 16.86516761779785 12.73075866699219 L 16.93547821044922 12.1682186126709 C 16.97158813476562 11.879319190979 16.98699760437012 11.66837882995605 16.98699760437012 11.46288871765137 C 16.98699760437012 11.25739860534668 16.97158813476562 11.04645824432373 16.93547821044922 10.75755882263184 L 16.86516761779785 10.19501876831055 L 18.69815254211426 8.761641502380371 L 17.50592041015625 6.699069499969482 L 15.34175777435303 7.568208694458008 L 14.88920783996582 7.220098495483398 C 14.5053882598877 6.924858570098877 14.11294841766357 6.696978569030762 13.68945789337158 6.52341890335083 L 13.16001796722412 6.30643892288208 L 12.82929229736328 3.999998807907104 L 10.450364112854 3.999998807907104 L 10.11963844299316 6.306428909301758 L 9.590198516845703 6.523408889770508 C 9.188568115234375 6.688018798828125 8.79295825958252 6.918318748474121 8.38074779510498 7.227468490600586 L 7.930418014526367 7.565208911895752 L 5.77374267578125 6.699072360992432 L 4.581506252288818 8.761639595031738 L 6.414518356323242 10.19502830505371 L 6.344178199768066 10.75759887695312 C 6.309028148651123 11.03873825073242 6.29265832901001 11.26284885406494 6.29265832901001 11.46288871765137 C 6.29265832901001 11.66292858123779 6.309028148651123 11.88703918457031 6.344178199768066 12.16817855834961 L 6.414518356323242 12.73074913024902 L 4.581506252288818 14.16413879394531 L 5.77374267578125 16.22670555114746 L 7.937908172607422 15.35755825042725 L 8.390468597412109 15.7056884765625 C 8.774238586425781 16.00089836120605 9.166678428649902 16.22878837585449 9.590198516845703 16.40236854553223 L 10.11963844299316 16.61934852600098 L 10.450364112854 18.92577934265137 L 12.82929229736328 18.92577934265137 M 11.63982772827148 7.500878810882568 C 13.82448863983154 7.500878810882568 15.60183811187744 9.278228759765625 15.60183811187744 11.46288871765137 C 15.60183811187744 13.64754867553711 13.82448863983154 15.42489910125732 11.63982772827148 15.42489910125732 C 9.455167770385742 15.42489910125732 7.677818298339844 13.64754867553711 7.677818298339844 11.46288871765137 C 7.677818298339844 9.278228759765625 9.455167770385742 7.500878810882568 11.63982772827148 7.500878810882568 M 13.33240795135498 19.92577934265137 L 9.947248458862305 19.92577934265137 C 9.735677719116211 19.92577934265137 9.557958602905273 19.7734489440918 9.532567977905273 19.57033920288086 L 9.210978507995605 17.32766914367676 C 8.694747924804688 17.11609840393066 8.220818519592285 16.83682823181152 7.78074836730957 16.4983081817627 L 5.673488140106201 17.3445987701416 C 5.487306594848633 17.41230201721191 5.258808612823486 17.34459686279297 5.157258033752441 17.15840911865234 L 3.464678287506104 14.23024845123291 C 3.363128185272217 14.04406833648682 3.405438184738159 13.8155689239502 3.566238164901733 13.68862915039062 L 5.351908206939697 12.29224872589111 C 5.318048000335693 12.02143859863281 5.29265832901001 11.74215888977051 5.29265832901001 11.46288871765137 C 5.29265832901001 11.18361854553223 5.318048000335693 10.90433883666992 5.351908206939697 10.63352870941162 L 3.566228151321411 9.237148284912109 C 3.405438184738159 9.110208511352539 3.354658126831055 8.881709098815918 3.464678287506104 8.695528984069824 L 5.157258033752441 5.767368793487549 C 5.258808135986328 5.581178665161133 5.478849411010742 5.505020141601562 5.673488140106201 5.581178665161133 L 7.78074836730957 6.427468776702881 C 8.220818519592285 6.097418785095215 8.694747924804688 5.809678554534912 9.210978507995605 5.598108768463135 L 9.532567977905273 3.355438709259033 C 9.557958602905273 3.152328729629517 9.735677719116211 2.999998807907104 9.947248458862305 2.999998807907104 L 13.33240795135498 2.999998807907104 C 13.54397773742676 2.999998807907104 13.72169780731201 3.152328729629517 13.74708843231201 3.355438709259033 L 14.06867790222168 5.598108768463135 C 14.58491802215576 5.809678554534912 15.058837890625 6.088958740234375 15.49890804290771 6.427468776702881 L 17.60616874694824 5.581178665161133 C 17.79235076904297 5.513476848602295 18.02084922790527 5.581179618835449 18.12240791320801 5.767368793487549 L 19.81497764587402 8.695528984069824 C 19.91653823852539 8.881709098815918 19.87421798706055 9.110208511352539 19.71342849731445 9.237148284912109 L 17.92775726318359 10.63352870941162 C 17.96160888671875 10.90433883666992 17.98699760437012 11.17514896392822 17.98699760437012 11.46288871765137 C 17.98699760437012 11.75062847137451 17.96160888671875 12.02143859863281 17.92775726318359 12.29224872589111 L 19.71342849731445 13.68862915039062 C 19.87421798706055 13.8155689239502 19.91653823852539 14.04406833648682 19.81497764587402 14.23024845123291 L 18.12240791320801 17.15840911865234 C 18.02084732055664 17.34459686279297 17.80081748962402 17.42075729370117 17.60616874694824 17.3445987701416 L 15.49890804290771 16.4983081817627 C 15.058837890625 16.82835960388184 14.58491802215576 17.11609840393066 14.06867790222168 17.32766914367676 L 13.74708843231201 19.57033920288086 C 13.72169780731201 19.7734489440918 13.54397773742676 19.92577934265137 13.33240795135498 19.92577934265137 Z M 11.63982772827148 8.50087833404541 C 10.00648784637451 8.50087833404541 8.677818298339844 9.829548835754395 8.677818298339844 11.46288871765137 C 8.677818298339844 13.09622859954834 10.00648784637451 14.42489910125732 11.63982772827148 14.42489910125732 C 13.27316856384277 14.42489910125732 14.60183811187744 13.09622859954834 14.60183811187744 11.46288871765137 C 14.60183811187744 9.829548835754395 13.27316856384277 8.50087833404541 11.63982772827148 8.50087833404541 Z" stroke="none" fill="#28e808"/>
  </g>
</svg>
