<svg id="social" xmlns="http://www.w3.org/2000/svg" width="26" height="26" viewBox="0 0 26 26">
  <path id="social-2" data-name="social" d="M2,19H0a9.428,9.428,0,0,1,2.837-6A9.036,9.036,0,0,1,9,11a9.036,9.036,0,0,1,6.163,2A9.43,9.43,0,0,1,18,19H16c-.579-4.094-2.768-6-6.892-6H8.892C4.768,13,2.579,14.906,2,19H2Zm19,0V17c0-1.162-.676-2.722-2-3V12a4.972,4.972,0,0,1,4,5v2ZM16,8a2.83,2.83,0,0,0,2-3,2.831,2.831,0,0,0-2-3V0a4.994,4.994,0,0,1,4,5,4.994,4.994,0,0,1-4,5ZM4,5a5,5,0,1,1,5,5A5.006,5.006,0,0,1,4,5ZM6,5A3,3,0,1,0,9,2,3,3,0,0,0,6,5Z" transform="translate(2 4)" fill="#818181"/>
  <rect id="Rectangle_757" data-name="Rectangle 757" width="26" height="26" fill="none"/>
</svg>
