<svg id="tradefarm-logo" xmlns="http://www.w3.org/2000/svg" xmlns:xlink="http://www.w3.org/1999/xlink" width="66.56" height="81.698" viewBox="0 0 66.56 81.698">
  <defs>
    <clipPath id="clip-path">
      <rect id="Rectangle_1167" data-name="Rectangle 1167" width="66.56" height="81.698" fill="none"/>
    </clipPath>
  </defs>
  <g id="Group_2624" data-name="Group 2624" clip-path="url(#clip-path)">
    <path id="Path_5763" data-name="Path 5763" d="M66.976,83.169,42.31,95.282a.345.345,0,0,1-.5-.309V85.666A19.961,19.961,0,0,1,52.975,67.749l23.2-11.393a.345.345,0,0,1,.5.31V67.607a17.337,17.337,0,0,1-9.695,15.562" transform="translate(-10.112 -13.62)" fill="#28d709"/>
    <path id="Path_5764" data-name="Path 5764" d="M9.695,60.138,31.2,70.7a.345.345,0,0,0,.5-.31V63.1A19.96,19.96,0,0,0,20.54,45.187L.5,35.344a.345.345,0,0,0-.5.309v8.923A17.337,17.337,0,0,0,9.695,60.138" transform="translate(0 -8.538)" fill="#28d709"/>
    <path id="Path_5765" data-name="Path 5765" d="M61.669,37.311,42.494,46.728a.472.472,0,0,1-.68-.424V40.6A19.961,19.961,0,0,1,52.975,22.679l17.891-8.786a.345.345,0,0,1,.5.31v7.546a17.337,17.337,0,0,1-9.695,15.562" transform="translate(-10.112 -3.351)" fill="#28d709"/>
    <path id="Path_5766" data-name="Path 5766" d="M18.588,20.517,33.355,27.77a.346.346,0,0,0,.5-.31V24.484A19.961,19.961,0,0,0,22.691,6.567L9.39.035a.345.345,0,0,0-.5.31v4.61a17.337,17.337,0,0,0,9.695,15.562" transform="translate(-2.151 0)" fill="#28d709"/>
  </g>
</svg>
