<svg xmlns="http://www.w3.org/2000/svg" width="26.53" height="31.93" viewBox="0 0 26.53 31.93">
  <g id="trade" transform="translate(-3.584 -1.314)">
    <g id="Group_2066" data-name="Group 2066" transform="translate(5.771 1.314)">
      <g id="Group_2064" data-name="Group 2064">
        <rect id="Rectangle_856" data-name="Rectangle 856" width="1.963" height="4.846" fill="#28e808"/>
      </g>
      <g id="Group_2065" data-name="Group 2065" transform="translate(0 18.052)">
        <rect id="Rectangle_857" data-name="Rectangle 857" width="1.963" height="4.836" fill="#28e808"/>
      </g>
    </g>
    <path id="Path_2453" data-name="Path 2453" d="M8.4,5.4V17.424H5.11V5.4H8.4M9.922,3.874H3.584V18.949H9.922V3.874Z" transform="translate(0 1.346)" fill="#28e808"/>
    <g id="Group_2069" data-name="Group 2069" transform="translate(25.964 3.76)">
      <g id="Group_2067" data-name="Group 2067">
        <rect id="Rectangle_858" data-name="Rectangle 858" width="1.963" height="5.218" fill="#28e808"/>
      </g>
      <g id="Group_2068" data-name="Group 2068" transform="translate(0 18.025)">
        <rect id="Rectangle_859" data-name="Rectangle 859" width="1.963" height="4.863" fill="#28e808"/>
      </g>
    </g>
    <path id="Path_2454" data-name="Path 2454" d="M21.074,7V19.027H17.788V7h3.286M22.6,5.477H16.262V20.552H22.6V5.477Z" transform="translate(7.514 2.292)" fill="#28e808"/>
    <rect id="Rectangle_860" data-name="Rectangle 860" width="1.963" height="8.04" transform="translate(15.716 9.754)" fill="#28e808"/>
    <rect id="Rectangle_861" data-name="Rectangle 861" width="1.963" height="8.04" transform="translate(15.716 25.205)" fill="#28e808"/>
    <rect id="Rectangle_862" data-name="Rectangle 862" width="6.338" height="15.357" transform="translate(13.527 13.908)" fill="#dcffd5"/>
  </g>
</svg>
