<svg id="transfer-failed" xmlns="http://www.w3.org/2000/svg" width="75" height="174" viewBox="0 0 75 174">
  <ellipse id="Ellipse_113" data-name="Ellipse 113" cx="18.5" cy="2" rx="18.5" ry="2" transform="translate(0 170)" fill="#ebebeb"/>
  <g id="Group_2247" data-name="Group 2247" transform="translate(2.847)">
    <path id="Path_2630" data-name="Path 2630" d="M72.153,41.225H49.2s3.669,95.667,3.975,96.584,3.516,3.669,1.223,7.8,3.822,3.669-.153,9.172,1.326,13.973,1.326,13.973l5.956-15.5Z" transform="translate(-49.198)" fill="#d62d2d"/>
    <path id="Path_2631" data-name="Path 2631" d="M59.819,172.2s-9.25-.324-9.648-.208,3.13-5,6.163-3.022,3.485,3.23,3.485,3.23" transform="translate(-37.806)" fill="#ffb1b1"/>
    <path id="Path_2632" data-name="Path 2632" d="M63.286,46.7l-7.349-.768L23.082,138.574,13.3,166.395l1.223,4.082,4.586-5.61L59.923,74.676Z" transform="translate(-4.433)" fill="#d62d2d"/>
    <path id="Path_2633" data-name="Path 2633" d="M47.809,46.7s-24.925,76.127-30.654,88.662-5.881,6.115-8.785,15.287A74.783,74.783,0,0,1,.012,167.92c-.027-.031,0,2.144,0,2.144l4.4-1.859s.743-6.4,3.8-7.466,6.267-1.528,9.936-10.089,11.312-13.6,15.287-22.93S52.854,84.336,53.159,83.633s7.949-16.754,7.949-16.754Z" transform="translate(11.045)" fill="#ffb1b1"/>
    <path id="Path_2634" data-name="Path 2634" d="M65.782,37.146,41.018,0l-21.1,135.974a20.177,20.177,0,0,0,2.293,5.733c1.6,2.522-1.834,4.815-2.293,6.42s1.147,6.65,1.835,7.8-1.08,4.127-1.916,5.733-4.787,10.131,2.6,10.547c5.274.3,2.523-7.567,11.236,0,0,0-.2-5.534-7.681-3.783-5.389,1.261-4.7-5.159-2.408-4.93S30.47,148.7,30.7,147.439s-.344-4.471.459-5.847S39.592,129.4,41.91,119.464,65.782,37.146,65.782,37.146" transform="translate(-11.667)" fill="#ffb1b1"/>
  </g>
</svg>
