<svg xmlns="http://www.w3.org/2000/svg" width="29.615" height="25.087" viewBox="0 0 29.615 25.087">
  <g id="transfer" transform="translate(-284.233 -214.815)">
    <path id="Path_2486" data-name="Path 2486" d="M27.824.054l0,0L.369,9.73c-.439.154-.538.535-.014.744l5.9,2.365,3.5,1.4s9.559-5.614,9.786-5.779.494.147.329.326-5.645,7.256-5.645,7.256,8.164,4.394,8.675,4.672a.8.8,0,0,0,1.083-.291.773.773,0,0,0,.086-.23c.154-.662,4.425-19.061,4.518-19.472.123-.531-.23-.857-.761-.668" transform="translate(284.734 215.322)" fill="none" stroke="#28e808" stroke-width="1"/>
    <path id="Path_2487" data-name="Path 2487" d="M33.931,50.5s-4.547,4.077-4.986,4.478c-.335.3-.578.181-.578-.247h.008V47.627Z" transform="translate(265.521 184.754)" fill="#dcffd5"/>
  </g>
</svg>
