<svg xmlns="http://www.w3.org/2000/svg" xmlns:xlink="http://www.w3.org/1999/xlink" width="229.528" height="179.453" viewBox="0 0 229.528 179.453">
  <defs>
    <clipPath id="clip-path">
      <path id="Path_2626" data-name="Path 2626" d="M321.623,68.791l11.415,28.863.808-21.949,82.031-52.07Z" transform="translate(-321.623 -23.635)" fill="none"/>
    </clipPath>
  </defs>
  <g id="transfer-successful" transform="translate(-72.736 -125.864)">
    <path id="Path_2635" data-name="Path 2635" d="M192.213,57.548,153.99,35.48a16,16,0,0,0-2.239-1.062,19.738,19.738,0,0,0-2.52-.777,23.084,23.084,0,0,0-2.738-.478,25.791,25.791,0,0,0-5.78,0,22.941,22.941,0,0,0-2.732.478,19.548,19.548,0,0,0-2.511.778,15.8,15.8,0,0,0-2.228,1.062L37.247,91.265a11.787,11.787,0,0,0-1.826,1.294,8.313,8.313,0,0,0-1.334,1.457,6.111,6.111,0,0,0-.816,1.584,5.133,5.133,0,0,0,.019,3.348,6.2,6.2,0,0,0,.834,1.584,8.452,8.452,0,0,0,1.35,1.457,11.973,11.973,0,0,0,1.841,1.293l38.223,22.068a16,16,0,0,0,2.239,1.062,19.736,19.736,0,0,0,2.52.777,23.085,23.085,0,0,0,2.737.478,25.749,25.749,0,0,0,5.78,0,22.959,22.959,0,0,0,2.732-.478,19.554,19.554,0,0,0,2.511-.778,15.79,15.79,0,0,0,2.227-1.062L192.28,69.566a11.792,11.792,0,0,0,1.827-1.294,8.315,8.315,0,0,0,1.334-1.457,6.11,6.11,0,0,0,.816-1.584,5.132,5.132,0,0,0-.019-3.348A6.2,6.2,0,0,0,195.4,60.3a8.452,8.452,0,0,0-1.35-1.457,11.97,11.97,0,0,0-1.841-1.293" transform="translate(72.736 144.485)" fill="#ebebeb"/>
    <g id="Group_2237" data-name="Group 2237" transform="translate(92.48 135.535)">
      <path id="Path_2488" data-name="Path 2488" d="M185.013,28.526,140.6,2.882a18.591,18.591,0,0,0-2.6-1.234,22.936,22.936,0,0,0-2.928-.9,26.825,26.825,0,0,0-3.181-.555,29.97,29.97,0,0,0-6.717,0,26.659,26.659,0,0,0-3.175.555,22.716,22.716,0,0,0-2.918.9,18.356,18.356,0,0,0-2.589,1.235L4.936,67.707a13.7,13.7,0,0,0-2.122,1.5A9.659,9.659,0,0,0,1.263,70.9a7.1,7.1,0,0,0-.948,1.841,5.965,5.965,0,0,0,.022,3.891,7.2,7.2,0,0,0,.969,1.841,9.822,9.822,0,0,0,1.569,1.693,13.911,13.911,0,0,0,2.139,1.5l44.417,25.644a18.592,18.592,0,0,0,2.6,1.234,22.936,22.936,0,0,0,2.928.9,26.826,26.826,0,0,0,3.181.555,29.92,29.92,0,0,0,6.717,0,26.68,26.68,0,0,0,3.175-.555,22.722,22.722,0,0,0,2.918-.9,18.35,18.35,0,0,0,2.588-1.234l111.55-64.825a13.7,13.7,0,0,0,2.123-1.5,9.662,9.662,0,0,0,1.55-1.693,7.1,7.1,0,0,0,.948-1.841,5.964,5.964,0,0,0-.022-3.89,7.2,7.2,0,0,0-.969-1.841,9.822,9.822,0,0,0-1.569-1.693,13.911,13.911,0,0,0-2.139-1.5" transform="translate(0.012 0)" fill="#eee"/>
      <path id="Path_2489" data-name="Path 2489" d="M177.592,27.793a8.653,8.653,0,0,1,2.8,2.43,4.59,4.59,0,0,1,.031,5.534,8.511,8.511,0,0,1-2.769,2.43L66.1,103.012a15.334,15.334,0,0,1-4.186,1.612,21.5,21.5,0,0,1-9.553,0,15.506,15.506,0,0,1-4.2-1.612L3.74,77.368a8.655,8.655,0,0,1-2.8-2.43A4.59,4.59,0,0,1,.912,69.4a8.513,8.513,0,0,1,2.769-2.43L115.231,2.149A15.334,15.334,0,0,1,119.417.537a21.5,21.5,0,0,1,9.553,0,15.509,15.509,0,0,1,4.2,1.612l5.656,3.266-2.17,1.261A3.569,3.569,0,0,0,135.5,7.7a1.941,1.941,0,0,0,.013,2.334,3.629,3.629,0,0,0,1.176,1.023L162.2,25.788a6.519,6.519,0,0,0,1.771.678,9.1,9.1,0,0,0,4.03,0,6.444,6.444,0,0,0,1.763-.678l2.17-1.261Z" transform="translate(4.36 2.519)" fill="#fff"/>
      <path id="Path_2490" data-name="Path 2490" d="M190.036.226q0,.016,0,.033l0,.033,0,.033,0,.033,0,.03v.03l0,.03q0,.015,0,.03l0,.033,0,.033,0,.033,0,.033,0,.029,0,.029,0,.029,0,.029,0,.033,0,.033,0,.033,0,.033,0,.029,0,.029,0,.029,0,.029L189.959,1l-.006.033-.006.033-.006.033-.005.028-.005.028-.005.028-.005.028-.007.031-.007.031-.007.031-.007.031-.007.03-.006.029-.007.029-.007.029-.008.031-.008.031-.008.031-.008.031-.008.03-.008.03-.008.029-.008.029-.009.031-.009.031-.01.03-.01.031-.009.029-.009.029-.009.029-.01.029-.01.031-.011.031-.011.031-.011.031-.01.029-.01.029-.01.029-.011.029-.014.037-.015.037-.015.037-.015.037-.009.023-.009.023-.009.023-.009.023-.019.043-.019.043-.019.043-.02.043-.007.016-.007.016-.007.016-.007.016-.028.059-.029.059-.029.059-.03.059-.007.013-.007.013-.007.013-.007.013-.024.046-.024.045-.025.045-.025.045-.008.013-.008.013-.008.013-.008.013-.027.047-.028.047-.028.047-.029.047-.014.022-.014.022-.014.022L189,3.445l-.024.039-.025.038-.025.038L188.9,3.6l-.016.024-.016.024-.016.024-.016.024-.025.036-.025.036-.025.036-.026.036-.018.024-.018.024-.018.024-.018.024-.026.035L188.615,4l-.026.035-.027.035-.018.023-.018.023-.018.022-.018.022-.043.054-.044.054-.044.054-.045.053-.01.012-.01.012-.01.012-.01.012-.056.064-.056.064-.057.064-.058.064-.016.017-.016.017L188,4.731l-.016.017-.046.048-.046.048-.046.048-.047.048-.019.019-.019.019L187.743,5l-.019.019-.053.052-.054.052-.054.052-.055.052-.011.011-.011.011-.011.011-.011.011-.036.032-.036.032-.036.032-.036.032-.021.019-.021.019-.021.019-.022.019-.045.038-.045.038-.045.038-.045.038-.015.012-.015.012-.015.013-.015.013-.061.05-.062.05-.062.05-.063.05-.015.011-.015.011-.015.011-.015.011-.049.038L186.587,6l-.05.038-.05.038-.024.018-.025.018-.025.018-.024.018-.042.031-.042.031-.042.03-.043.03-.028.02-.029.02-.029.02-.029.02-.04.028-.04.028-.04.028-.041.028-.031.02-.031.02-.031.02-.031.02-.04.026-.04.026-.04.026-.04.026-.033.021-.033.021-.033.02-.033.02-.04.025-.041.025-.041.025-.041.025-.065.04-.066.039-.066.039-.067.039L73.553,71.807l-.1.055-.1.054-.1.054-.1.053-.027.015-.027.014-.027.014-.027.014-.082.044-.082.043-.083.043-.083.043-.019.01-.019.01-.019.01-.019.01-.1.05-.1.049-.1.049-.1.048-.025.012-.025.012-.025.012-.025.012-.083.038-.083.038-.084.038-.084.037-.027.012-.027.012-.027.012-.027.012-.105.045-.106.045-.106.045-.107.044-.018.007-.018.007-.018.007-.018.007-.092.037-.093.037-.093.036-.094.036-.03.012-.03.012-.03.011-.03.011-.1.039-.105.038-.106.038-.106.037-.027.01-.113.039-.113.038-.114.038-.114.037-.04.013-.04.013-.04.013-.04.013-.049.015-.049.015-.049.015-.049.015-.044.013-.044.013-.044.013-.044.013-.049.015-.049.015-.049.014-.049.014-.045.013L69,73.7l-.045.013-.045.012-.05.014-.05.014-.05.014-.05.013-.046.012-.046.012-.046.012-.046.012-.05.013-.05.013-.051.013-.051.013-.046.012-.046.011-.046.011-.046.011-.051.012-.051.012-.051.012-.051.012-.047.011-.047.011L67.8,74l-.047.011-.051.012-.051.011-.052.011-.052.011-.047.01-.047.01-.047.01-.047.01-.052.011-.052.011-.052.011-.052.011-.047.01-.047.009-.047.009-.047.009-.053.01-.053.01-.053.01-.053.01-.044.008-.044.008-.044.008-.044.008-.12.021-.12.021-.12.02-.121.02h0l-.121.019-.121.018-.121.018-.121.017-.036,0-.036,0-.036,0-.036,0-.092.012-.092.012-.092.012-.092.011-.035,0-.035,0-.035,0-.035,0-.123.014-.124.014-.124.013-.124.013-.017,0h-.017l-.017,0-.017,0-.094.009-.094.009-.094.008-.094.008-.039,0-.039,0-.039,0-.039,0-.073.006-.073.006-.073.005-.073.005-.044,0-.044,0-.044,0-.044,0-.069,0-.069,0-.069,0-.069,0-.046,0-.046,0-.046,0-.046,0-.068,0-.068,0-.069,0-.069,0-.045,0-.045,0-.045,0h-.045l-.081,0-.081,0-.082,0-.082,0h-.151l-.119,0h-.533l-.175,0-.175,0-.175,0h-.105l-.055,0-.055,0-.055,0-.054,0-.052,0-.052,0-.052,0-.052,0-.054,0-.054,0-.054,0-.054,0-.052,0-.052,0-.052,0-.052,0-.054,0-.054,0-.054,0-.054,0-.051,0-.051,0-.051,0-.051,0-.054,0-.054,0-.054,0-.054,0-.05,0-.05,0-.05,0-.05,0-.054,0-.054,0-.054,0-.054,0-.05,0-.05,0-.05,0-.05,0-.054-.005-.054-.006-.054-.006-.054-.006-.05-.005-.05-.005-.05-.005-.05-.005-.053-.006-.053-.006-.053-.006-.053-.006-.05-.006-.05-.006-.05-.006-.049-.006-.053-.007-.053-.007-.053-.007-.053-.007-.049-.007-.049-.007-.049-.007-.049-.007-.063-.009-.062-.009-.062-.009-.062-.009-.041-.006-.041-.006L57,74.344l-.041-.006-.069-.011-.069-.011-.069-.011-.069-.012-.034-.006-.034-.006-.034-.006-.034-.006-.1-.018-.1-.018-.1-.018-.1-.019-.008,0-.1-.019-.1-.02-.1-.02-.1-.02-.02,0-.02,0-.02,0-.02,0-.086-.018-.086-.018-.086-.019-.085-.019-.037-.008-.037-.008L55.205,74l-.037-.009-.069-.016-.068-.016-.068-.016-.068-.016-.04-.01-.04-.01-.04-.01-.04-.01-.064-.016-.064-.016-.064-.016-.064-.017-.041-.011L54.4,73.8l-.04-.011-.04-.011-.064-.017-.064-.018-.064-.018-.064-.018-.037-.01-.036-.01-.036-.01-.036-.01-.117-.034L53.68,73.6l-.116-.035-.115-.035-.018-.006-.018-.006-.018-.006-.018-.006-.1-.031-.1-.032-.1-.032-.1-.032-.031-.011-.031-.011-.031-.011-.031-.011-.1-.036-.1-.036-.1-.037-.1-.037-.009,0-.009,0-.009,0-.009,0-.111-.041-.11-.041-.11-.042-.109-.042-.041-.016-.041-.016-.041-.016-.041-.016-.039-.016-.039-.016-.039-.016-.038-.016-.045-.019-.045-.019-.045-.019-.045-.019-.038-.016-.038-.016-.038-.016-.038-.016-.045-.02-.045-.02-.045-.02-.045-.02-.037-.016-.037-.016-.037-.016-.036-.016-.045-.021-.045-.021-.045-.021-.045-.021-.035-.016-.035-.016-.035-.016-.035-.017-.046-.022-.045-.022-.045-.022-.045-.022-.034-.016-.034-.016-.034-.016-.033-.017-.047-.023-.047-.024-.046-.024-.046-.024-.031-.016-.031-.016-.031-.016-.031-.016-.051-.027-.051-.027-.05-.027-.05-.027-.026-.014L49.793,72l-.026-.014-.025-.014-.075-.041-.075-.042-.074-.042-.074-.042L5.026,46.164a13.912,13.912,0,0,1-2.139-1.5,9.823,9.823,0,0,1-1.569-1.693,7.2,7.2,0,0,1-.969-1.841,6.024,6.024,0,0,1-.337-1.946L0,43.541a6.025,6.025,0,0,0,.337,1.946,7.2,7.2,0,0,0,.969,1.841,9.82,9.82,0,0,0,1.569,1.693,13.911,13.911,0,0,0,2.139,1.5L49.431,76.168l.074.042.074.042.075.042.075.042.025.014.026.014.026.014.025.014.05.027.05.027.05.027.051.027.031.016.031.016.031.016.031.016.046.024.046.024.047.024.047.023.033.017.034.016.034.016.034.016.045.022.045.022.045.022.045.022.035.017.035.017.035.016.035.016.045.021.045.021.045.021.045.02.037.016.037.016.037.016.037.016.045.02.045.02.045.02.045.02.038.016.038.016.038.016.038.016.045.019.045.019.045.019.045.019.039.016.039.016.039.016.039.016.029.011.028.012.028.012.029.011.012,0,.012,0,.012,0,.012,0,.109.042.11.042.11.041.111.041.009,0,.009,0,.009,0,.009,0,.1.037.1.037.1.036.1.036.031.011.031.011.031.011.032.011.1.032.1.032.1.032.1.031.018.006.018.006.018.006.018.006.115.035.116.035.116.034.117.034.011,0,.011,0,.011,0,.011,0,.026.007.026.007.026.007.026.007.064.018.064.018.064.017.064.017.041.011.041.011.041.011.041.011.064.017.064.016.064.016.064.016.04.01.04.01.04.01.04.01.068.016.068.016.068.016.069.016.037.009.037.009.037.008.037.008.085.019.086.019.086.018.086.018.018,0,.018,0,.018,0,.018,0h.01l.1.02.1.02.1.02.1.019.008,0,.1.019.1.018.1.018.1.018.034.006.034.006.034.006.034.006.068.012.069.011.069.011.069.011.041.006.041.006.041.006.041.006.062.01.062.009.062.009.062.009h.031l.042.006.042.006.042.006.042.006.052.007.052.007.052.007.052.007.05.006.05.006.05.006.05.006.052.006.052.006.053.006.053.006.05.005.05.005.05.005.05.005.053.006.053.006.053.006.053.005.051,0,.051,0,.051,0,.051,0,.053,0,.053,0,.053,0,.053,0h.038l.042,0,.042,0,.042,0,.042,0,.054,0,.054,0,.054,0,.054,0,.051,0,.051,0,.051,0,.051,0,.054,0,.054,0,.054,0,.054,0,.052,0,.052,0,.052,0,.052,0,.054,0,.054,0,.054,0,.054,0,.052,0,.052,0,.052,0,.052,0,.054,0,.055,0,.055,0,.055,0H60.8l.175,0,.175,0,.175,0h.533l.119,0h.151l.082,0,.081,0,.081,0,.081,0h.181l.069,0,.069,0,.068,0,.068,0,.046,0,.046,0,.046,0,.046,0,.069,0,.069,0,.069,0,.069,0,.045,0,.044,0,.044,0,.044,0,.073-.005.073-.005.073-.006.073-.006.039,0,.039,0,.039,0,.039,0,.094-.008.094-.008.094-.009.094-.009.016,0h.031l.016,0h.006l.124-.013.124-.013.124-.014.123-.014.035,0,.035,0,.035,0,.035,0,.092-.011.092-.012.092-.012.091-.012.036,0,.036,0,.036,0,.036,0,.121-.017.121-.018.121-.018.121-.019h0l.121-.02.12-.02.12-.021.12-.021.013,0,.013,0,.014,0,.014,0,.031-.006.031-.006.031-.006.031-.006.053-.01.053-.01.053-.01.053-.01.047-.009.047-.009.047-.009.047-.01.052-.011.052-.011.052-.011.052-.011.047-.01.047-.01.047-.01.047-.01.051-.011.051-.011.051-.011.051-.012.047-.011.047-.011.047-.011.047-.011.051-.012.051-.012.051-.012.051-.012.046-.011.046-.011.046-.011.046-.012.051-.013.05-.013.05-.013.05-.013.046-.012.046-.012.046-.012.046-.012.05-.013.05-.014.05-.014.05-.014.045-.012.045-.013.045-.013.045-.013.05-.014.05-.014.049-.015.049-.015.044-.013.044-.013.044-.013.044-.013L69.5,77.9l.049-.015.049-.015.049-.015.026-.008.027-.008.027-.008.026-.008.013,0,.013,0,.013,0,.013,0,.114-.037.114-.038.113-.038.113-.039.027-.01.106-.037.106-.038.105-.038.1-.039.03-.011.03-.012.03-.012.03-.012.094-.036.093-.036.093-.037L71.2,77.3l.018-.007.018-.007.018-.007.018-.007.107-.044.106-.045.106-.045L71.7,77.1l.027-.012.027-.012.027-.012.027-.012.084-.037.084-.038.083-.038.083-.038.025-.012.025-.012.025-.012.025-.012.1-.049.1-.049.1-.049.1-.05.019-.01.019-.01.019-.01.019-.01.083-.043.083-.043.082-.043.082-.044.027-.015.027-.014.027-.014.027-.015.1-.053.1-.054.1-.054.1-.055L185.09,11.342l.059-.035.059-.035.058-.035.058-.035.007,0,.007,0,.007,0,.007,0,.041-.025.041-.025.041-.025.04-.025.033-.02.033-.02.033-.021.033-.021.04-.026.04-.026.04-.026.04-.026.031-.02.031-.02.031-.02.031-.02.041-.028.04-.028.04-.028.04-.028.029-.02.029-.02.029-.02.028-.02.042-.03.042-.03.042-.03.041-.03.025-.018.025-.018.025-.018.025-.018.049-.037.049-.037.048-.037.048-.037.016-.012.016-.012.016-.012.016-.012.063-.05.062-.05.062-.05.061-.05.015-.013.015-.013.015-.013.015-.013.045-.038.045-.038.044-.038.044-.038.022-.02.022-.02.022-.02.022-.02.036-.032.036-.032.036-.032.035-.032,0,0,0,0,0,0,0,0,.009-.008.009-.008.009-.008.009-.008.055-.051.054-.052.054-.052.053-.052.019-.019.019-.019.019-.019.019-.02.047-.047.046-.048.046-.048.045-.048.016-.017L188,9.074l.016-.017.015-.017.058-.063.057-.064.057-.064.056-.064.01-.012.01-.012.01-.012.01-.012.045-.053.044-.054.044-.054.043-.054.008-.009.008-.009L188.5,8.5l.008-.009.01-.013.01-.013.01-.013.01-.013.027-.035.026-.035.026-.035.026-.035.018-.024.018-.024.018-.025.018-.025.026-.036.025-.036.025-.036.025-.036.016-.024.016-.024.016-.024.016-.024.025-.038.025-.038.025-.038.024-.038L189,7.784l.014-.022.014-.022.014-.022.029-.047.028-.047.028-.047.027-.047.007-.012.007-.012.007-.012.007-.012,0-.006.025-.045.025-.045.024-.045.024-.046.007-.013.007-.013.007-.013.007-.013.03-.059.029-.059.029-.059.028-.059.007-.016.007-.016.007-.016.007-.016.02-.043.019-.043.019-.043.019-.043.009-.023.009-.023.009-.023.009-.023.015-.037L189.6,6.6l.015-.037.014-.037,0-.011.01-.026.009-.026.009-.026.009-.026.011-.03.011-.03.011-.03.01-.03.01-.029.009-.029.009-.029.009-.029.009-.03.01-.03.009-.03.009-.03.008-.03.008-.03.008-.03.008-.03.008-.03.008-.03.008-.03.008-.03.007-.03.007-.03.007-.03.007-.03.007-.031.007-.031L189.9,5.6l.006-.031V5.559l0-.025,0-.025,0-.025,0-.025.006-.033.006-.033.006-.033.005-.033,0-.029,0-.029,0-.029,0-.029,0-.032,0-.032,0-.032,0-.032,0-.029,0-.029,0-.029,0-.029,0-.032,0-.032,0-.032,0-.032q0-.015,0-.03l0-.03,0-.03,0-.03,0-.032,0-.032,0-.032q0-.016,0-.032V4.565q0-.026,0-.051t0-.051q0-.026,0-.051t0-.051L190.039,0q0,.028,0,.057t0,.057q0,.028,0,.057t0,.056" transform="translate(0 35.509)" fill="#bbb"/>
      <path id="Path_2491" data-name="Path 2491" d="M.347.2A.8.8,0,0,0,.088.425.451.451,0,0,0,0,.682.445.445,0,0,0,.084.94a.785.785,0,0,0,.256.226,1.422,1.422,0,0,0,.389.149,1.961,1.961,0,0,0,.444.05,1.969,1.969,0,0,0,.445-.05,1.438,1.438,0,0,0,.39-.149A.8.8,0,0,0,2.268.94.45.45,0,0,0,2.355.682.446.446,0,0,0,2.271.425.787.787,0,0,0,2.014.2,1.419,1.419,0,0,0,1.625.05a2.007,2.007,0,0,0-.888,0A1.436,1.436,0,0,0,.347.2" transform="translate(148.782 13.874)" fill="#bbb"/>
      <path id="Path_2492" data-name="Path 2492" d="M.346.2A.8.8,0,0,0,.087.425.45.45,0,0,0,0,.682.446.446,0,0,0,.085.94a.786.786,0,0,0,.257.226l9.966,5.792a1.421,1.421,0,0,0,.389.149,2.01,2.01,0,0,0,.889,0,1.436,1.436,0,0,0,.39-.149.8.8,0,0,0,.259-.226.428.428,0,0,0,0-.515.786.786,0,0,0-.257-.226L2.014.2A1.42,1.42,0,0,0,1.626.05a2.008,2.008,0,0,0-.889,0A1.436,1.436,0,0,0,.346.2" transform="translate(151.413 15.403)" fill="#bbb"/>
      <path id="Rectangle_911" data-name="Rectangle 911" d="M190.039,0H0V114.558H190.039Z" fill="none"/>
      <path id="Rectangle_912" data-name="Rectangle 912" d="M190.039,0H0V114.558H190.039Z" fill="none"/>
    </g>
    <ellipse id="Ellipse_114" data-name="Ellipse 114" cx="36" cy="6.5" rx="36" ry="6.5" transform="matrix(0.809, -0.588, 0.588, 0.809, 156.29, 198.558)" fill="#ebebeb"/>
    <g id="Group_2236" data-name="Group 2236" transform="translate(-5146.449 -6719.717)">
      <path id="Path_2625" data-name="Path 2625" d="M357.151,95.795,318.4,73.585l-36.013-20.64,121.9-29.311Z" transform="translate(4991.112 6821.946)" fill="#a2ff92"/>
      <g id="Group_2235" data-name="Group 2235" transform="translate(5301.146 6845.581)">
        <g id="Group_2234" data-name="Group 2234" clip-path="url(#clip-path)">
          <rect id="Rectangle_913" data-name="Rectangle 913" width="107.499" height="116.994" transform="matrix(0.432, -0.902, 0.902, 0.432, -28.861, 60.177)" fill="#28e808"/>
        </g>
      </g>
    </g>
  </g>
</svg>
