<svg xmlns="http://www.w3.org/2000/svg" width="24" height="24" viewBox="0 0 24 24">
  <g id="visible" transform="translate(-307 -658)">
    <rect id="Rectangle_779" data-name="Rectangle 779" width="24" height="24" transform="translate(307 658)" fill="#fff" opacity="0"/>
    <path id="Icon_awesome-eye" data-name="Icon awesome-eye" d="M15.837,9.407A8.872,8.872,0,0,0,7.967,4.5,8.874,8.874,0,0,0,.1,9.407a.9.9,0,0,0,0,.807,8.872,8.872,0,0,0,7.87,4.907,8.874,8.874,0,0,0,7.87-4.907A.9.9,0,0,0,15.837,9.407Zm-7.87,4.387A3.983,3.983,0,1,1,11.95,9.811,3.983,3.983,0,0,1,7.967,13.794Zm0-6.639a2.637,2.637,0,0,0-.7.1A1.324,1.324,0,0,1,5.416,9.111,2.649,2.649,0,1,0,7.967,7.155Z" transform="translate(311 660.5)" fill="#101019"/>
  </g>
</svg>
