<svg xmlns="http://www.w3.org/2000/svg" width="14" height="18" viewBox="0 0 14 18">
  <g id="watchlist" transform="translate(-7.5 -4.5)" fill="#dcffd5">
    <path d="M 21 21.74173355102539 L 14.69696044921875 19.04043006896973 L 14.5 18.95602035522461 L 14.30303955078125 19.04043006896973 L 8.000473976135254 21.74152946472168 L 8.010000228881836 6.500309944152832 C 8.010000228881836 5.672900199890137 8.678409576416016 5 9.5 5 L 19.5 5 C 20.32710075378418 5 21 5.672900199890137 21 6.5 L 21 21.74173355102539 Z" stroke="none"/>
    <path d="M 9.5 5.5 C 8.954109191894531 5.5 8.510000228881836 5.948600769042969 8.510000228881836 6.500619888305664 L 8.500947952270508 20.9830493927002 L 14.5 18.41202926635742 L 20.5 20.98345565795898 L 20.5 6.5 C 20.5 5.948600769042969 20.05139923095703 5.5 19.5 5.5 L 9.5 5.5 M 9.5 4.5 L 19.5 4.5 C 20.60000038146973 4.5 21.5 5.399999618530273 21.5 6.5 L 21.5 22.5 L 14.5 19.5 L 7.5 22.5 L 7.510000228881836 6.5 C 7.510000228881836 5.399999618530273 8.399999618530273 4.5 9.5 4.5 Z" stroke="none" fill="#28e808"/>
  </g>
</svg>
