<svg xmlns="http://www.w3.org/2000/svg" xmlns:xlink="http://www.w3.org/1999/xlink" width="340" height="187" viewBox="0 0 340 187">
  <defs>
    <filter id="Rectangle_843" x="0" y="0" width="340" height="187" filterUnits="userSpaceOnUse">
      <feOffset dy="3" input="SourceAlpha"/>
      <feGaussianBlur stdDeviation="3" result="blur"/>
      <feFlood flood-opacity="0.102"/>
      <feComposite operator="in" in2="blur"/>
      <feComposite in="SourceGraphic"/>
    </filter>
    <linearGradient id="linear-gradient" x1="0.5" x2="0.5" y2="1" gradientUnits="objectBoundingBox">
      <stop offset="0" stop-color="#d62d2d" stop-opacity="0.322"/>
      <stop offset="1" stop-color="#d62d2d" stop-opacity="0"/>
    </linearGradient>
  </defs>
  <g id="Group_2444" data-name="Group 2444" transform="translate(-18 -514)">
    <g transform="matrix(1, 0, 0, 1, 18, 514)" filter="url(#Rectangle_843)">
      <rect id="Rectangle_843-2" data-name="Rectangle 843" width="322" height="169" rx="5" transform="translate(9 6)" fill="#fff"/>
    </g>
    <text id="Trading_Account_B" data-name="Trading Account B" transform="translate(43 556)" fill="#28e808" font-size="15" font-family="Poppins-Medium, Poppins" font-weight="500" letter-spacing="0.01em"><tspan x="0" y="0">Trading Account B</tspan></text>
    <text id="_12_001.08" data-name="$12,001.08" transform="translate(43 596)" fill="#101019" font-size="15" font-family="Poppins-SemiBold, Poppins" font-weight="600" letter-spacing="0.01em"><tspan x="0" y="0">$12,001.08</tspan></text>
    <text id="Trading_balance" data-name="Trading balance" transform="translate(43 575)" fill="#101019" font-size="9" font-family="Poppins-Regular, Poppins" letter-spacing="0.01em"><tspan x="0" y="0">Trading balance</tspan></text>
    <g id="trading-account-b" transform="translate(43 610)">
      <path id="Path_2455" data-name="Path 2455" d="M3452.563,3721.878l-9.5-4.251-3.041-5.749-3.421,6.844-6.461,1.916-2.28,3.011-3.421-1.368-3.04,1.368-9.122,3.011-1.9,2.464-15.2-15.878-7.6-6.022-11.021-2.464-22.043-10.677-8.361,9.581-10.261-7.939-4.561,2.19-2.66-2.19h-3.041l-2.28-1.642h-2.28l-9.5-7.665V3745.7h141Z" transform="translate(-3311.563 -3686.418)" opacity="0.25" fill="url(#linear-gradient)"/>
      <path id="Path_2456" data-name="Path 2456" d="M3452.563,3721.878l-9.5-4.251-3.041-5.749-3.421,6.844-6.461,1.916-2.28,3.011-3.421-1.368-3.04,1.368-9.122,3.011-1.9,2.464-15.2-15.878-7.6-6.022-11.021-2.464-22.043-10.677-8.361,9.581-10.261-7.939-4.561,2.19-2.66-2.19h-3.041l-2.28-1.642h-2.28l-9.5-7.665" transform="translate(-3311.563 -3686.418)" fill="none" stroke="#d62d2d" stroke-width="1"/>
    </g>
    <g id="Group_2085" data-name="Group 2085" transform="translate(-4 -620)">
      <g id="Group_2084" data-name="Group 2084">
        <text id="Profit" transform="translate(208 1172)" fill="#818181" font-size="10" font-family="Poppins-Regular, Poppins"><tspan x="0" y="0">Profit</tspan></text>
        <text id="_1_029.78" data-name="$1,029.78" transform="translate(337 1173)" fill="#323232" font-size="12" font-family="Poppins-Medium, Poppins" font-weight="500"><tspan x="-54" y="0">$1,029.78</tspan></text>
      </g>
      <g id="Group_2083" data-name="Group 2083" transform="translate(0 1)">
        <text id="Margin_level" data-name="Margin level" transform="translate(208 1209)" fill="#818181" font-size="10" font-family="Poppins-Regular, Poppins"><tspan x="0" y="0">Margin level</tspan></text>
        <text id="_2711.17_" data-name="2711.17%" transform="translate(337 1209)" fill="#323232" font-size="12" font-family="Poppins-Medium, Poppins" font-weight="500"><tspan x="-45" y="0">2711.17%</tspan></text>
      </g>
      <g id="Group_2082" data-name="Group 2082" transform="translate(0 4)">
        <text id="Equity" transform="translate(208 1244)" fill="#818181" font-size="10" font-family="Poppins-Regular, Poppins"><tspan x="0" y="0">Equity</tspan></text>
        <text id="_4789.11" data-name="4789.11" transform="translate(337 1244)" fill="#323232" font-size="12" font-family="Poppins-Medium, Poppins" font-weight="500"><tspan x="-41" y="0">4789.11</tspan></text>
      </g>
      <g id="Group_2081" data-name="Group 2081">
        <text id="Margin" transform="translate(208 1285)" fill="#818181" font-size="10" font-family="Poppins-Regular, Poppins"><tspan x="0" y="0">Margin</tspan></text>
        <text id="_176.48" data-name="176.48" transform="translate(337 1285)" fill="#323232" font-size="12" font-family="Poppins-Medium, Poppins" font-weight="500"><tspan x="-36" y="0">176.48</tspan></text>
      </g>
    </g>
  </g>
</svg>
