<svg xmlns="http://www.w3.org/2000/svg" width="26.526" height="31.929" viewBox="0 0 26.526 31.929">
  <g id="withdraw" transform="translate(-2.784 -1.046)">
    <g id="Group_2058" data-name="Group 2058" transform="translate(2.784 10.603)">
      <path id="Path_2451" data-name="Path 2451" d="M4.3,13.627a4.549,4.549,0,0,0,1.514.258H27.791v13.27H5.817A1.516,1.516,0,0,1,4.3,25.64V13.627M2.784,9.334V25.64a3.033,3.033,0,0,0,3.033,3.033H28.254a1.057,1.057,0,0,0,1.056-1.057V13.422a1.055,1.055,0,0,0-1.056-1.056H5.817A3.032,3.032,0,0,1,2.784,9.334Z" transform="translate(-2.784 -6.301)" fill="#28e808"/>
      <path id="Rectangle_853" data-name="Rectangle 853" d="M3,0H19.575a.8.8,0,0,1,.8.8V6.065a0,0,0,0,1,0,0H3a3,3,0,0,1-3-3V3A3,3,0,0,1,3,0Z" transform="translate(0)" fill="#dcffd5"/>
    </g>
    <g id="Group_2061" data-name="Group 2061" transform="translate(20.975 9.084) rotate(180)">
      <g id="Group_2059" data-name="Group 2059" transform="translate(4.169)">
        <line id="Line_21" data-name="Line 21" y2="6.966" transform="translate(0.76 0.001)" fill="#fff"/>
        <rect id="Rectangle_854" data-name="Rectangle 854" width="1.519" height="6.966" transform="translate(0 0)" fill="#28e808"/>
      </g>
      <g id="Group_2060" data-name="Group 2060" transform="translate(0 2.355)">
        <path id="Path_2452" data-name="Path 2452" d="M4.921,5.684a.758.758,0,0,1-.538-.223L0,1.075,1.074,0,4.923,3.851,8.786,0,9.857,1.077l-4.4,4.385A.751.751,0,0,1,4.921,5.684Z" transform="translate(0 0)" fill="#28e808"/>
      </g>
    </g>
  </g>
</svg>
