<svg xmlns="http://www.w3.org/2000/svg" width="251.248" height="267.525" viewBox="0 0 251.248 267.525">
  <g id="woman" transform="translate(-54.251 -0.001)">
    <rect id="Rectangle_1224" data-name="Rectangle 1224" width="16.858" height="52.699" transform="translate(151.016 53.974)" fill="#d8d8d8"/>
    <rect id="Rectangle_1225" data-name="Rectangle 1225" width="16.857" height="7.912" transform="translate(151.016 75.343)" fill="#ababab"/>
    <g id="Group_2763" data-name="Group 2763">
      <g id="Group_2765" data-name="Group 2765">
        <path id="Path_6291" data-name="Path 6291" d="M98.156,81.713c1.271-3.152,13.139-5.621,27.6-5.621s26.324,2.469,27.6,5.621Z" transform="translate(36.715 28.462)" fill="#ababab"/>
        <path id="Path_6292" data-name="Path 6292" d="M191.887,11.587V71.466a6.869,6.869,0,0,1-6.867,6.869H78.948a6.87,6.87,0,0,1-6.87-6.869V11.587a6.855,6.855,0,0,1,6.87-6.867H185.019c.137,0,.275.005.411.012a6.87,6.87,0,0,1,6.457,6.855" transform="translate(26.96 1.765)" fill="#ababab"/>
        <path id="Path_6293" data-name="Path 6293" d="M193.528,11.587V71.466a6.888,6.888,0,0,1-6.872,6.872H80.584c-.04,0-.08,0-.117,0a6.866,6.866,0,0,1-6.753-6.869V11.587a6.869,6.869,0,0,1,6.87-6.867H186.656c.17,0,.341.005.507.018a6.871,6.871,0,0,1,6.365,6.85" transform="translate(27.572 1.765)" fill="#d8d8d8"/>
        <path id="Path_6294" data-name="Path 6294" d="M83.383,73.411H181.3a6.257,6.257,0,0,0,6.257-6.257V13.794A6.257,6.257,0,0,0,181.3,7.537H83.383a6.258,6.258,0,0,0-6.259,6.257V67.153a6.258,6.258,0,0,0,6.259,6.259" transform="translate(28.848 2.819)" fill="#fff"/>
        <path id="Path_6295" data-name="Path 6295" d="M121.854,43.636v1.421h18.7l.022-1.421Z" transform="translate(45.579 16.322)" fill="#cac1b7"/>
        <path id="Path_6296" data-name="Path 6296" d="M121.854,46.746v1.421h39.689l.021-1.421Z" transform="translate(45.579 17.485)" fill="#cac1b7"/>
        <path id="Path_6297" data-name="Path 6297" d="M121.854,49.857v1.421h31.378l.022-1.421Z" transform="translate(45.579 18.649)" fill="#cac1b7"/>
        <path id="Path_6298" data-name="Path 6298" d="M136.892,45.056h14.617l.055-1.421H136.945Z" transform="translate(51.204 16.322)" fill="#cac1b7"/>
        <rect id="Rectangle_1226" data-name="Rectangle 1226" width="7.913" height="9.812" transform="translate(178.343 42.007)" fill="#ffa13b"/>
        <rect id="Rectangle_1227" data-name="Rectangle 1227" width="7.915" height="5.62" transform="translate(166.962 46.2)" fill="#28e808"/>
        <rect id="Rectangle_1228" data-name="Rectangle 1228" width="7.913" height="14.418" transform="translate(189.177 37.402)" fill="#6063a3"/>
        <rect id="Rectangle_1229" data-name="Rectangle 1229" width="7.913" height="18.938" transform="translate(200.012 32.881)" fill="#d62d2d"/>
        <path id="Path_6299" data-name="Path 6299" d="M121.064,37.041a.6.6,0,0,1-.381-.1.506.506,0,0,1-.12-.739l5.559-7.134a.6.6,0,0,1,.677-.181l6.579,2.547,5.168-8.36a.568.568,0,0,1,.382-.257.591.591,0,0,1,.453.095l6.532,4.665,3.842-8.541a.564.564,0,0,1,.326-.294.6.6,0,0,1,.448.018l6.09,2.776,5.518-8.448a.591.591,0,0,1,.779-.181.507.507,0,0,1,.185.725l-5.79,8.864a.591.591,0,0,1-.735.2l-6.011-2.741-3.894,8.658a.572.572,0,0,1-.379.309.59.59,0,0,1-.489-.088l-6.6-4.716-5.095,8.24a.586.586,0,0,1-.709.227l-6.626-2.564-5.294,6.795a.584.584,0,0,1-.412.218" transform="translate(45.055 4.8)" fill="#d62d2d"/>
        <path id="Path_6300" data-name="Path 6300" d="M153.676,16.527a.558.558,0,0,1-.595-.4l-.71-2.784-3.4,1.08a.569.569,0,0,1-.713-.33.527.527,0,0,1,.36-.672l3.986-1.267a.594.594,0,0,1,.452.036.535.535,0,0,1,.275.337l.855,3.343a.536.536,0,0,1-.42.643.6.6,0,0,1-.087.014" transform="translate(55.444 4.536)" fill="#f35733"/>
        <path id="Path_6301" data-name="Path 6301" d="M83.256,12.619l-1.331-.008-.006-1.044-.484,0,0,1.043L80.108,12.6l.021,4.5,1.331.01.018,4.119.485,0-.019-4.121,1.331.01Z" transform="translate(29.964 4.325)" fill="#2dbc0f"/>
        <path id="Path_6302" data-name="Path 6302" d="M86.481,17.155l-1.331-.01-.01-2.06-.484,0,.01,2.06-1.331-.008.054,12.188,1.331.01.021,4.474.484,0L85.2,29.335l1.331.01Z" transform="translate(31.171 5.642)" fill="#2dbc0f"/>
        <path id="Path_6303" data-name="Path 6303" d="M89.736,18.356,88.4,18.347l-.022-5.055-.485,0,.023,5.054-1.331-.008.029,6.509,1.331.01.026,5.988.485,0-.027-5.988,1.331.01Z" transform="translate(32.388 4.971)" fill="#d62d2d"/>
        <path id="Path_6304" data-name="Path 6304" d="M92.967,20.54l-1.331-.008-.011-2.363-.484,0,.01,2.362-1.331-.008.032,6.91,1.331.008.026,5.988.485,0-.027-5.988L93,27.45Z" transform="translate(33.597 6.795)" fill="#2dbc0f"/>
        <path id="Path_6305" data-name="Path 6305" d="M96.192,24.425l-1.331-.008-.014-3.131-.485,0,.014,3.131-1.33-.008.021,4.7,1.331.01.033,7.5.485,0-.034-7.5,1.331.008Z" transform="translate(34.803 7.96)" fill="#2dbc0f"/>
        <path id="Path_6306" data-name="Path 6306" d="M99.388,23.474l-1.331-.01-.011-2.553-.485,0,.011,2.554-1.331-.008L96.3,37.462l1.331.008.023,5.274.485,0-.025-5.272,1.331.008Z" transform="translate(35.998 7.82)" fill="#d62d2d"/>
        <path id="Path_6307" data-name="Path 6307" d="M102.605,20.241l-1.331-.008-.025-5.6-.485,0,.026,5.6-1.331-.008.022,5.191,1.331.01.012,2.718.485,0-.012-2.719,1.331.008Z" transform="translate(37.202 5.47)" fill="#d62d2d"/>
        <path id="Path_6308" data-name="Path 6308" d="M105.839,23.344l-1.331-.008-.019-4.286-.484,0,.018,4.284-1.331-.008.027,6.057,1.331.008.014,3.131.485,0-.014-3.131,1.331.01Z" transform="translate(38.411 7.124)" fill="#d62d2d"/>
        <path id="Path_6309" data-name="Path 6309" d="M109.028,27.72l-1.312-.008-.027-6.091-.477,0,.027,6.09-1.312-.008.06,13.7,1.312.008.037,8.415.478,0-.037-8.415,1.312.01Z" transform="translate(39.621 8.086)" fill="#2dbc0f"/>
        <path id="Path_6310" data-name="Path 6310" d="M112.314,32.119l-1.331-.008-.016-3.544-.484,0,.015,3.542-1.33-.008.07,15.789,1.331.01.018,4.2.485,0-.019-4.2,1.331.008Z" transform="translate(40.834 10.685)" fill="#d62d2d"/>
        <path id="Path_6311" data-name="Path 6311" d="M115.527,30.859l-1.331-.01-.016-3.542-.484,0,.015,3.544-1.331-.008.032,7,1.331.01,0,.959.485,0,0-.96,1.331.008Z" transform="translate(42.035 10.212)" fill="#2dbc0f"/>
        <path id="Path_6312" data-name="Path 6312" d="M121.011,59.98l-12.9-13.533L99.548,52.3l-10.61-8.236L78.76,36.054l.28-.356,10.176,8.009L99.565,51.74l8.61-5.882.133.139,12.658,13.28L129.619,47.4l.366.267Z" transform="translate(29.46 13.353)" fill="#d62d2d"/>
        <path id="Path_6313" data-name="Path 6313" d="M57.95,235.16h5.122a3.036,3.036,0,0,0,3.035-3.037V82.443H54.913v149.68a3.037,3.037,0,0,0,3.037,3.037" transform="translate(20.54 30.837)" fill="#ababab"/>
        <path id="Path_6314" data-name="Path 6314" d="M91.226,235.16h5.122a3.035,3.035,0,0,0,3.034-3.037V82.443H88.189v149.68a3.036,3.036,0,0,0,3.037,3.037" transform="translate(32.987 30.837)" fill="#ededed"/>
        <path id="Path_6315" data-name="Path 6315" d="M174.863,235.16h5.122a3.036,3.036,0,0,0,3.035-3.037V82.443H171.826v149.68a3.036,3.036,0,0,0,3.037,3.037" transform="translate(64.271 30.837)" fill="#ababab"/>
        <path id="Path_6316" data-name="Path 6316" d="M208.139,235.16h5.121a3.037,3.037,0,0,0,3.037-3.037V82.443H205.1v149.68a3.036,3.036,0,0,0,3.037,3.037" transform="translate(76.718 30.837)" fill="#ababab"/>
        <rect id="Rectangle_1230" data-name="Rectangle 1230" width="164.865" height="9.945" transform="translate(140.635 110.119)" fill="#ededed"/>
        <rect id="Rectangle_1231" data-name="Rectangle 1231" width="86.384" height="9.945" transform="translate(54.251 110.119)" fill="#d8d8d8"/>
        <path id="Path_6317" data-name="Path 6317" d="M108.64,83.072s1.4-8.393-7.346-9.908-20.168,6.3-20.168,6.3v3.612Z" transform="translate(30.345 27.294)" fill="#ababab"/>
        <path id="Path_6318" data-name="Path 6318" d="M108.64,81.327H81.126V77.714s.047-.033.115-.078h27.2a10.4,10.4,0,0,1,.2,3.691" transform="translate(30.345 29.039)" fill="#d8d8d8"/>
        <path id="Path_6319" data-name="Path 6319" d="M131.6,179.423c1-1.164,11.344.236,11.424.862.246,1.922.459,9.257-.569,10.189-.993.9-11.356.471-11.488-1.388-.115-1.609-.338-8.54.633-9.662" transform="translate(48.949 66.945)" fill="#ff814c"/>
        <path id="Path_6320" data-name="Path 6320" d="M148.509,185.739s4.533,7.041.9,12.3c0,0-25.03.224-32.529-1.239,0,0,2.638-7.866,9.133-8.4a86.727,86.727,0,0,0,10.478-1.419s7.126,3.677,12.017-1.238" transform="translate(43.718 69.475)"/>
        <path id="Path_6321" data-name="Path 6321" d="M129.023,215.8s.851.372,2.179.873a44.112,44.112,0,0,0,8.126,2.275,16.169,16.169,0,0,0,4.009.229,4.824,4.824,0,0,0,3.379-1.465c2.64-9.488,4.482-31.625,6.76-48.535.866-6.481,1.349-11.428,2.678-15.29,1.132-3.325,8.136-5.307,17.215-7.328.672-.147,1.36-.3,2.056-.449,2.252-.482,4.615-.969,7.023-1.487,1.315-.279,2.648-.576,3.989-.871,8.893-2,18.1-4.453,25.133-8.28,4.26-2.313,7.717-5.114,9.829-8.617.084-.14.166-.272.24-.414a19.89,19.89,0,0,0,1.34-17.129c-5.1-14.05-23.532-24.01-30.368-17.2a132.636,132.636,0,0,0-18.291,6.488c-2.042.892-4.172,1.874-6.349,2.956-1.29.647-2.6,1.326-3.917,2.049-.225.117-.445.243-.672.368-1.65.911-3.313,1.88-4.96,2.91-.981.6-1.955,1.237-2.921,1.889a83.872,83.872,0,0,0-7.931,6.032,60.522,60.522,0,0,0-8.93,9.416,44.11,44.11,0,0,0-6.443,11.76c-.313.862-.592,1.742-.846,2.641-.349,1.252-.68,2.53-.97,3.835-.114.447-.212.893-.3,1.348a80.082,80.082,0,0,0-1.454,11.15v.025c-1.079,17.684.607,38.668.4,60.815" transform="translate(47.976 33.636)" fill="#002613"/>
        <path id="Path_6322" data-name="Path 6322" d="M104.9,180.35c.831-1.293,11.264-1.362,11.432-.753.513,1.867,1.755,9.1.87,10.168-.86,1.031-11.181,2.064-11.572.24-.338-1.576-1.533-8.409-.73-9.655" transform="translate(39.137 67.039)" fill="#b57f71"/>
        <path id="Path_6323" data-name="Path 6323" d="M122.731,184.931s4.58,7.013.974,12.292c0,0-25.025.375-32.535-1.044,0,0,1.811-7.406,8.3-7.982a65.513,65.513,0,0,0,11.248-1.955s7.146,3.633,12.008-1.311" transform="translate(34.102 69.173)"/>
        <path id="Path_6324" data-name="Path 6324" d="M188.19,128.434c-12.872,18.081-50.639,6.616-54.882,15.729-6.229,13.379-16.6,63.668-12.562,72.613a11.034,11.034,0,0,1-1.854,1.217c-4.861,2.545-12.764,3.008-12.764,3.008-5.936-20.876-9.022-60.311-7.009-82.6,3.125-34.561,70.245-49.571,70.245-49.571,8.467-6.828,22.912,11.515,22.61,28.347a19.681,19.681,0,0,1-3.785,11.253" transform="translate(36.846 32.68)" fill="#004022"/>
        <path id="Path_6325" data-name="Path 6325" d="M110.58,178.907a61.764,61.764,0,0,0,1.924,27.9q.243.783.51,1.573.738,2.176,1.653,4.328c.159-.087.319-.176.47-.264a10.41,10.41,0,0,0,1.382-.951,5.348,5.348,0,0,1-.273-.738c-.04-.135-.078-.279-.115-.43-.038-.136-.071-.268-.1-.411-.034-.177-.067-.355-.1-.547-.029-.161-.054-.328-.08-.5-.03-.192-.052-.386-.074-.585-.082-.753-.135-1.6-.151-2.5-.007-.183-.014-.363-.011-.552,0-.154,0-.319-.012-.484a.279.279,0,0,0,0-.076c0-.311,0-.636.01-.963s.007-.669.025-1.011c.007-.264.012-.539.03-.819q.043-1.039.121-2.149c.021-.359.051-.732.074-1.107s.066-.772.1-1.171c.025-.264.047-.526.071-.8.232-2.484.562-5.16.954-7.954.033-.279.076-.556.12-.842q.239-1.665.514-3.379c.1-.69.22-1.385.335-2.09.147-.846.294-1.7.441-2.556.066-.376.132-.754.2-1.123.019-.074.03-.15.043-.225.08-.409.151-.82.231-1.237.036-.168.059-.327.093-.495.143-.778.3-1.562.453-2.355a1.929,1.929,0,0,1,.047-.251c.113-.576.228-1.16.342-1.735.062-.293.113-.577.175-.868.113-.567.232-1.127.353-1.693.132-.65.273-1.29.408-1.94.074-.333.143-.666.218-.991q.251-1.136.5-2.247c.122-.522.235-1.039.356-1.544.194-.83.389-1.652.583-2.473.074-.324.148-.64.232-.963q.319-1.331.66-2.634c.095-.4.2-.786.3-1.167.018-.058.027-.125.045-.183.2-.768.4-1.529.6-2.264.18-.686.368-1.353.556-2.013.078-.3.166-.594.246-.892l.054-.172c.095-.348.2-.693.3-1.029.2-.675.394-1.341.6-1.981.016-.058.034-.124.052-.181.268-.853.53-1.674.8-2.46.065-.2.128-.383.191-.573.114-.352.235-.694.355-1.029.136-.383.28-.765.412-1.124.059-.172.121-.342.188-.5q.278-.717.544-1.362c0-.008.01-.015.011-.023.107-.251.2-.493.308-.719.077-.169.154-.338.231-.5a3.883,3.883,0,0,1,.456-.738l.095-.124c.043-.045.085-.1.135-.143.062-.067.124-.136.186-.2a1.955,1.955,0,0,1,.2-.186c.059-.051.118-.1.176-.144s.118-.093.187-.144a4.052,4.052,0,0,1,.4-.265,4.493,4.493,0,0,1,.431-.245c.151-.08.309-.158.474-.228s.333-.147.514-.214c.249-.1.511-.188.78-.268.19-.056.379-.114.577-.17.269-.071.555-.139.848-.2.187-.048.382-.088.585-.125.151-.029.3-.058.459-.077a.58.58,0,0,1,.124-.023c.319-.055.644-.109.978-.153.192-.022.386-.052.578-.074l.683-.077c.166-.018.341-.034.515-.051.279-.026.566-.051.855-.076.548-.047,1.123-.088,1.7-.12,1.65-.1,3.413-.159,5.245-.216l1.114-.037c.372-.012.752-.022,1.134-.033s.758-.022,1.139-.033l.414-.014c.624-.018,1.254-.043,1.887-.074.328-.011.657-.021.995-.038.831-.036,1.68-.08,2.523-.132.728-.043,1.459-.095,2.2-.146q.548-.047,1.1-.091c.367-.038.734-.07,1.1-.109.734-.069,1.47-.154,2.2-.25.359-.04.727-.095,1.087-.143s.721-.106,1.083-.162c.723-.114,1.44-.246,2.148-.386.478-.092.951-.191,1.424-.3.33-.08.649-.151.971-.231.394-.1.789-.206,1.175-.32.323-.088.647-.176.963-.283.4-.12.794-.249,1.187-.387s.78-.276,1.164-.423c.356-.135.713-.279,1.064-.431.221-.1.442-.191.664-.294.1-.037.2-.091.305-.135.037-.021.082-.04.121-.059.352-.17.7-.35,1.043-.529s.694-.376,1.035-.583c.027-.012.056-.034.085-.047.037-.029.084-.048.124-.076.207-.124.4-.249.6-.374.284-.18.556-.371.824-.554.087-.063.163-.121.234-.179l.349-.257c.115-.085.234-.18.341-.267a.444.444,0,0,0,.118-.093,8.085,8.085,0,0,0,.671-.569,1.413,1.413,0,0,0,.209-.183c.249-.22.489-.442.721-.673.122-.126.243-.246.366-.374s.236-.247.35-.376a.838.838,0,0,0,.084-.091c.081-.091.165-.181.247-.28a3.612,3.612,0,0,0,.234-.283c.147-.176.294-.35.425-.528.177-.206.33-.423.493-.649.131-.177.254-.365.378-.552.044-.071.088-.133.125-.2a25.429,25.429,0,0,0,2.813-6.554v-.008c0-.025.015-.041.019-.066a24.066,24.066,0,0,0,.895-5.256V110.5c.015-.153.01-.29.015-.437-.2-.142,1.613-1.973,1.443-2.154-.311-.339.016-1.173-.227-1.554,0,0,.007-1.5,0-1.514-.683-1.05-1.775-3.261-3.2-3.339-.375-.023-2.733,4.912-2.976,5.271a4.578,4.578,0,0,0-.444.878c-.393.937-.852,2.373-1.726,4.277a24.48,24.48,0,0,1-6.939,8.126c-6.442,4.85-15.007,6.606-23.414,7.373-2.939.273-5.86.422-8.665.546-.131.005-.268.01-.4.016-1.947.081-3.832.207-5.631.433-7.611.963-13.7,3.691-16.765,12.177a67.729,67.729,0,0,0-2.168,7.46c-.936,3.942-1.653,7.969-2.539,11.859-1.407,6.312-2.983,12.6-3.983,18.991" transform="translate(41.073 37.966)" fill="#002613"/>
        <path id="Path_6327" data-name="Path 6327" d="M151.879,11.242l15.374-3.8s5.095,9.048.517,17.611a11.973,11.973,0,0,1-1,1.577l2.8,8.46s-4.393,3.934-8.328,4.65c-1.79.323-1.338-3.376-1.338-3.376l-2.409-6.157c-2.763-.589-5-2.37-5.405-4.452a52.521,52.521,0,0,1-.2-14.511" transform="translate(56.652 2.783)" fill="#b57f71"/>
        <path id="Path_6328" data-name="Path 6328" d="M166.1,25.195l-.673-3.037a11.613,11.613,0,0,1-9.595,2.6s7.234,3.256,10.268.436" transform="translate(58.286 8.288)" fill="#a37167"/>
        <path id="Path_6329" data-name="Path 6329" d="M145.1,118.65c.525,1.035,19.436,14.242,31.515,17.044,15.481,3.589,37.856,7.876,44.024,5.629,2.521-.91,4.08-1.88,4.339-2.78.8-2.848-6.605-41.335-8.887-58.559-.448-3.335-.926-6.715-1.462-10.013-2.716-17.251-6.554-33.194-10.943-35.555-1-.552-2.137-1.106-3.4-1.689a57.963,57.963,0,0,0-6.475-2.568A56.186,56.186,0,0,0,180.9,27.447a51.1,51.1,0,0,0-24.311,3.579s0,.025-.018.029a49.991,49.991,0,0,0-6.363,3.085c-.5.273-1,.569-1.528.868-7.116,4.308-3.325,20.714.173,34.424,1.608,6.367-5.557,48.725-3.755,49.218" transform="translate(54.109 10.179)" fill="#28e808"/>
        <path id="Path_6330" data-name="Path 6330" d="M153.289,41.829a48.681,48.681,0,0,0-6.2,1.01l-2.286,1.029c.562,6.216,2.319,13.471,4.009,20.1,1.608,6.367-5.557,48.725-3.755,49.218.4.794,5.919,5.6,19.176,12.169l7.868,3.5c-13.286-18.409-12.206-53.2-14.371-63.437a29.978,29.978,0,0,1,2.675-18.948s-4.878-4.751-7.12-4.64" transform="translate(54.15 15.645)" fill="#2dbc0f"/>
        <path id="Path_6331" data-name="Path 6331" d="M104.284,78.323s-4.321,5.385-3.1,8.214c0,0,28.226,25.342,39.689,19.784,21.851-10.6,36.353-31.435,31.033-51.707-.04-.058-25.157,1.612-22.783,3.387.868.664-10.874,29.367-12.076,30.3-1.088.881-26.306-7.115-32.76-9.982" transform="translate(37.765 20.427)" fill="#b57f71"/>
        <path id="Path_6332" data-name="Path 6332" d="M163.833,80c1.048-2.542,7.552-19.661,4.365-31.576-1.451-5.421-5.617-17.387-12.575-16.05-11.141,2.141-18.136,22.8-22.543,38,8.553,7.747,18.049,11.6,30.753,9.625" transform="translate(49.778 12.07)" fill="#28e808"/>
        <path id="Path_6333" data-name="Path 6333" d="M154.129,14.908a3.563,3.563,0,0,0,.948-.635,6.965,6.965,0,0,0,3.027-1.768c.991.433.655.66,1.784.885-.429,1.41,1.3,6.055,2.029,7.291a5.9,5.9,0,0,0,3.825,2.854,3.3,3.3,0,0,0,.348.4l.1.1c.007.06.021.121.026.173a4.424,4.424,0,0,0,.129.562v.008a3.9,3.9,0,0,0,.293.75c-1.013,2.674-1.257,4.654.282,7.266-2.765,2.337-.884,13.527,1.2,16.105,0,.04-.007.078-.011.117a13.146,13.146,0,0,0,.04,1.474c-4.258,6.15,24.6,4.861,26.387-1.09a1.375,1.375,0,0,0,.327-.532,2.381,2.381,0,0,0,.071-.261c2.029.269,4.135-.344,4.989-2.564.962-2.508-2.773-11.785-4.69-12.887,2.207-3.857,1.966-7.824-2.524-9.206A8.9,8.9,0,0,0,191.224,18a7.262,7.262,0,0,0-6.55-3.035c-.327-3.184-3.225-5.455-5.348-4.878.464-3.383.4-4.584-2.781-6.336a4.853,4.853,0,0,0-3.842-.159c-.8-2.388-3.114-3.461-6.436-3.589-1.76-.067-2.858.573-3.247,1.58a7.489,7.489,0,0,0-4.069.063c-2.216.572-2.9,1.455-3.174,3.071a3.029,3.029,0,0,0-2.887,1.907,2.836,2.836,0,0,0-.173.969c-4.361.877-2.627,9.2,1.411,7.313" transform="translate(56.169 0)" fill="#353635"/>
        <path id="Path_6334" data-name="Path 6334" d="M86.838,75.558c.309-.121.646-.19.971-.287-.827,1,.186,2.847,1.59,2.17a9.951,9.951,0,0,1,2.231-.728c-.43.918.113,2.256,1.373,1.983a16.781,16.781,0,0,1,7.16-.033c2.4,1.755,5.638,3.019,8.156,2.025,2.451-.966,3.728-4.749,2.568-7.1-1.539-3.116-5.466-3.626-8.647-3.788a8.43,8.43,0,0,0-1.888-.088c-4.633-.246-9.027-1.037-13.315,1.319a1.44,1.44,0,0,0-.654,1.781c-.22.06-.442.115-.653.2-1.668.653-.561,3.2,1.106,2.549" transform="translate(31.759 25.954)" fill="#b57f71"/>
        <path id="Path_6335" data-name="Path 6335" d="M166.737,192.666h3.81a2.529,2.529,0,0,0,2.528-2.528V172.4h-8.867v17.736a2.528,2.528,0,0,0,2.528,2.528" transform="translate(61.422 64.486)" fill="#888c94"/>
        <path id="Path_6336" data-name="Path 6336" d="M129.471,211.951a8.6,8.6,0,0,1,5.48-10.849l40.159-13.21V134.26h13.379v53.819l39.6,13.023a8.6,8.6,0,0,1,5.481,10.849l-52.048-17.116h0Z" transform="translate(48.266 50.219)" fill="#888c94"/>
        <path id="Path_6337" data-name="Path 6337" d="M161.734,191.5h15.113V132.852a4.317,4.317,0,0,0-4.317-4.317h-6.48a4.315,4.315,0,0,0-4.316,4.315Z" transform="translate(60.496 48.078)" fill="#888c94"/>
        <path id="Path_6338" data-name="Path 6338" d="M195.839,190.844a8.463,8.463,0,1,1,8.464,8.463,8.466,8.466,0,0,1-8.464-8.463" transform="translate(73.253 68.219)" fill="#d8d8d8"/>
        <path id="Path_6339" data-name="Path 6339" d="M197.179,190.343a6.624,6.624,0,1,1,6.623,6.622,6.624,6.624,0,0,1-6.623-6.622" transform="translate(73.754 68.72)" fill="#ededed"/>
        <path id="Path_6340" data-name="Path 6340" d="M161.277,190.844a8.463,8.463,0,1,1,8.464,8.463,8.465,8.465,0,0,1-8.464-8.463" transform="translate(60.325 68.219)" fill="#d8d8d8"/>
        <path id="Path_6341" data-name="Path 6341" d="M162.616,190.343a6.623,6.623,0,1,1,6.623,6.622,6.623,6.623,0,0,1-6.623-6.622" transform="translate(60.826 68.72)" fill="#ededed"/>
        <path id="Path_6342" data-name="Path 6342" d="M125.685,190.844a8.461,8.461,0,1,1,8.461,8.463,8.462,8.462,0,0,1-8.461-8.463" transform="translate(47.012 68.219)" fill="#d8d8d8"/>
        <path id="Path_6343" data-name="Path 6343" d="M127.023,190.343a6.623,6.623,0,1,1,6.623,6.622,6.623,6.623,0,0,1-6.623-6.622" transform="translate(47.512 68.72)" fill="#ededed"/>
        <path id="Path_6344" data-name="Path 6344" d="M160.378,136.157H182.5c3.245,0,5.875-4.662,5.875-10.413H154.5c0,5.75,2.63,10.413,5.875,10.413" transform="translate(57.791 47.034)" fill="#ededed"/>
        <path id="Path_6345" data-name="Path 6345" d="M149.762,134.214h8.812a18.716,18.716,0,0,0,18.559-17.137l1.3-42.84a6.743,6.743,0,0,1,7.252-6.187h56.116l0,.045a6.723,6.723,0,0,1,5.948,7.205l-1.307,42.837a32.251,32.251,0,0,1-31.986,29.55H149.762a6.737,6.737,0,0,1,0-13.474" transform="translate(53.498 25.446)" fill="#3095f7"/>
        <path id="Path_6346" data-name="Path 6346" d="M134.9,147.689H161.1a32.252,32.252,0,0,0,31.988-29.55L194.39,75.3a6.736,6.736,0,0,0-13.43-1.066l-1.308,42.837A18.707,18.707,0,0,1,161.1,134.215H134.9a6.737,6.737,0,0,0,0,13.474" transform="translate(47.94 25.447)" fill="#03498d"/>
      </g>
    </g>
  </g>
</svg>
